{
    "asset" : {
        "generator" : "Khronos glTF Blender I/O v1.0.5",
        "version" : "2.0"
    },
    "scene" : 0,
    "scenes" : [
        {
            "name" : "Scene",
            "nodes" : [
                1
            ]
        }
    ],
    "nodes" : [
        {
            "mesh" : 0,
            "name" : "potje.001",
            "rotation" : [
                0,
                0.09406068921089172,
                0,
                0.9955664873123169
            ],
            "scale" : [
                0.6843250393867493,
                0.6843250393867493,
                0.6843250393867493
            ],
            "translation" : [
                0,
                -0.681500256061554,
                0
            ]
        },
        {
            "children" : [
                0
            ],
            "mesh" : 1,
            "name" : "Danone.001",
            "rotation" : [
                0,
                -0.09406068921089172,
                0,
                0.9955664873123169
            ],
            "scale" : [
                1.4612939357757568,
                1.4612939357757568,
                1.4612939357757568
            ],
            "translation" : [
                0.00042891502380371094,
                2.010554313659668,
                0
            ]
        }
    ],
    "materials" : [
        {
            "doubleSided" : true,
            "name" : "activia",
            "pbrMetallicRoughness" : {
                "baseColorTexture" : {
                    "index" : 0,
                    "texCoord" : 0
                },
                "metallicFactor" : 0,
                "roughnessFactor" : 0.5
            }
        },
        {
            "doubleSided" : true,
            "name" : "cap",
            "pbrMetallicRoughness" : {
                "baseColorTexture" : {
                    "index" : 1,
                    "texCoord" : 0
                },
                "metallicFactor" : 0,
                "roughnessFactor" : 0.5
            }
        }
    ],
    "meshes" : [
        {
            "name" : "Cylinder.001",
            "primitives" : [
                {
                    "attributes" : {
                        "POSITION" : 0,
                        "NORMAL" : 1,
                        "TEXCOORD_0" : 2
                    },
                    "indices" : 3,
                    "material" : 0
                }
            ]
        },
        {
            "name" : "Circle.001",
            "primitives" : [
                {
                    "attributes" : {
                        "POSITION" : 4,
                        "NORMAL" : 5,
                        "TEXCOORD_0" : 6
                    },
                    "indices" : 7,
                    "material" : 1
                }
            ]
        }
    ],
    "textures" : [
        {
            "source" : 0
        },
        {
            "source" : 1
        }
    ],
    "images" : [
        {
            "bufferView" : 4,
            "mimeType" : "image/jpeg",
            "name" : "activia"
        },
        {
            "bufferView" : 9,
            "mimeType" : "image/jpeg",
            "name" : "activia top"
        }
    ],
    "accessors" : [
        {
            "bufferView" : 0,
            "componentType" : 5126,
            "count" : 438,
            "max" : [
                1.0475584268569946,
                1,
                1.067697525024414
            ],
            "min" : [
                -1.0208953619003296,
                -1,
                -1.0407087802886963
            ],
            "type" : "VEC3"
        },
        {
            "bufferView" : 1,
            "componentType" : 5126,
            "count" : 438,
            "type" : "VEC3"
        },
        {
            "bufferView" : 2,
            "componentType" : 5126,
            "count" : 438,
            "type" : "VEC2"
        },
        {
            "bufferView" : 3,
            "componentType" : 5123,
            "count" : 756,
            "type" : "SCALAR"
        },
        {
            "bufferView" : 5,
            "componentType" : 5126,
            "count" : 380,
            "max" : [
                0.8661685585975647,
                0.02425605244934559,
                0.8557634949684143
            ],
            "min" : [
                -0.8661683201789856,
                0.0021395431831479073,
                -0.8557637333869934
            ],
            "type" : "VEC3"
        },
        {
            "bufferView" : 6,
            "componentType" : 5126,
            "count" : 380,
            "type" : "VEC3"
        },
        {
            "bufferView" : 7,
            "componentType" : 5126,
            "count" : 380,
            "type" : "VEC2"
        },
        {
            "bufferView" : 8,
            "componentType" : 5123,
            "count" : 960,
            "type" : "SCALAR"
        }
    ],
    "bufferViews" : [
        {
            "buffer" : 0,
            "byteLength" : 5256,
            "byteOffset" : 0
        },
        {
            "buffer" : 0,
            "byteLength" : 5256,
            "byteOffset" : 5256
        },
        {
            "buffer" : 0,
            "byteLength" : 3504,
            "byteOffset" : 10512
        },
        {
            "buffer" : 0,
            "byteLength" : 1512,
            "byteOffset" : 14016
        },
        {
            "buffer" : 0,
            "byteLength" : 25170,
            "byteOffset" : 15528
        },
        {
            "buffer" : 0,
            "byteLength" : 4560,
            "byteOffset" : 40700
        },
        {
            "buffer" : 0,
            "byteLength" : 4560,
            "byteOffset" : 45260
        },
        {
            "buffer" : 0,
            "byteLength" : 3040,
            "byteOffset" : 49820
        },
        {
            "buffer" : 0,
            "byteLength" : 1920,
            "byteOffset" : 52860
        },
        {
            "buffer" : 0,
            "byteLength" : 90828,
            "byteOffset" : 54780
        }
    ],
    "buffers" : [
        {
            "byteLength" : 145608,
            "uri" : "data:application/octet-stream;base64,"
        }
    ]
}
