{
    "asset" : {
        "generator" : "Khronos glTF Blender I/O v0.9.36",
        "version" : "2.0"
    },
    "scene" : 0,
    "scenes" : [
        {
            "name" : "Scene",
            "nodes" : [
                0
            ]
        }
    ],
    "nodes" : [
        {
            "mesh" : 0,
            "name" : "Cylinder.001",
            "scale" : [
                0.32045820355415344,
                4.915911674499512,
                0.31544411182403564
            ],
            "translation" : [
                0.036316633224487305,
                4.972721099853516,
                -1.3329135179519653
            ]
        }
    ],
    "materials" : [
        {
            "doubleSided" : true,
            "name" : "wood",
            "pbrMetallicRoughness" : {
                "baseColorFactor" : [
                    0.8000000715255737,
                    0.19703121483325958,
                    0.024820929393172264,
                    1
                ],
                "metallicFactor" : 0,
                "roughnessFactor" : 0.5
            }
        },
        {
            "doubleSided" : true,
            "name" : "Material.005",
            "pbrMetallicRoughness" : {
                "baseColorTexture" : {
                    "index" : 0,
                    "texCoord" : 0
                },
                "metallicFactor" : 0,
                "roughnessFactor" : 0.5
            }
        },
        {
            "doubleSided" : true,
            "emissiveFactor" : [
                0.9056618213653564,
                1,
                0.052755121141672134
            ],
            "name" : "Material.007",
            "pbrMetallicRoughness" : {}
        },
        {
            "doubleSided" : true,
            "emissiveFactor" : [
                1,
                0.11651726812124252,
                0.37400197982788086
            ],
            "name" : "Material.001",
            "pbrMetallicRoughness" : {}
        }
    ],
    "meshes" : [
        {
            "name" : "Cylinder.002",
            "primitives" : [
                {
                    "attributes" : {
                        "POSITION" : 0,
                        "NORMAL" : 1,
                        "TEXCOORD_0" : 2
                    },
                    "indices" : 3,
                    "material" : 0
                },
                {
                    "attributes" : {
                        "POSITION" : 4,
                        "NORMAL" : 5,
                        "TEXCOORD_0" : 6
                    },
                    "indices" : 7,
                    "material" : 1
                },
                {
                    "attributes" : {
                        "POSITION" : 8,
                        "NORMAL" : 9,
                        "TEXCOORD_0" : 10
                    },
                    "indices" : 11,
                    "material" : 2
                },
                {
                    "attributes" : {
                        "POSITION" : 12,
                        "NORMAL" : 13,
                        "TEXCOORD_0" : 14
                    },
                    "indices" : 15,
                    "material" : 3
                }
            ]
        }
    ],
    "textures" : [
        {
            "source" : 0
        }
    ],
    "images" : [
        {
            "bufferView" : 8,
            "mimeType" : "image/png",
            "name" : "tree_texture"
        }
    ],
    "accessors" : [
        {
            "bufferView" : 0,
            "componentType" : 5126,
            "count" : 60,
            "max" : [
                1,
                -0.7157129645347595,
                1
            ],
            "min" : [
                -1,
                -1,
                -1
            ],
            "type" : "VEC3"
        },
        {
            "bufferView" : 1,
            "componentType" : 5126,
            "count" : 60,
            "type" : "VEC3"
        },
        {
            "bufferView" : 2,
            "componentType" : 5126,
            "count" : 60,
            "type" : "VEC2"
        },
        {
            "bufferView" : 3,
            "componentType" : 5123,
            "count" : 102,
            "type" : "SCALAR"
        },
        {
            "bufferView" : 4,
            "componentType" : 5126,
            "count" : 684,
            "max" : [
                12.964991569519043,
                1,
                12.964943885803223
            ],
            "min" : [
                -12.964900016784668,
                -0.7157129645347595,
                -12.964947700500488
            ],
            "type" : "VEC3"
        },
        {
            "bufferView" : 5,
            "componentType" : 5126,
            "count" : 684,
            "type" : "VEC3"
        },
        {
            "bufferView" : 6,
            "componentType" : 5126,
            "count" : 684,
            "type" : "VEC2"
        },
        {
            "bufferView" : 7,
            "componentType" : 5123,
            "count" : 1038,
            "type" : "SCALAR"
        },
        {
            "bufferView" : 9,
            "componentType" : 5126,
            "count" : 9672,
            "max" : [
                5.6213459968566895,
                1.071844220161438,
                6.32535457611084
            ],
            "min" : [
                -7.3337273597717285,
                -0.6394917368888855,
                -8.507817268371582
            ],
            "type" : "VEC3"
        },
        {
            "bufferView" : 10,
            "componentType" : 5126,
            "count" : 9672,
            "type" : "VEC3"
        },
        {
            "bufferView" : 11,
            "componentType" : 5126,
            "count" : 9672,
            "type" : "VEC2"
        },
        {
            "bufferView" : 12,
            "componentType" : 5123,
            "count" : 14040,
            "type" : "SCALAR"
        },
        {
            "bufferView" : 13,
            "componentType" : 5126,
            "count" : 744,
            "max" : [
                6.674988269805908,
                -0.31773215532302856,
                4.411287307739258
            ],
            "min" : [
                5.3639750480651855,
                -0.4031943678855896,
                3.079435348510742
            ],
            "type" : "VEC3"
        },
        {
            "bufferView" : 14,
            "componentType" : 5126,
            "count" : 744,
            "type" : "VEC3"
        },
        {
            "bufferView" : 15,
            "componentType" : 5126,
            "count" : 744,
            "type" : "VEC2"
        },
        {
            "bufferView" : 16,
            "componentType" : 5123,
            "count" : 1080,
            "type" : "SCALAR"
        }
    ],
    "bufferViews" : [
        {
            "buffer" : 0,
            "byteLength" : 720,
            "byteOffset" : 0
        },
        {
            "buffer" : 0,
            "byteLength" : 720,
            "byteOffset" : 720
        },
        {
            "buffer" : 0,
            "byteLength" : 480,
            "byteOffset" : 1440
        },
        {
            "buffer" : 0,
            "byteLength" : 204,
            "byteOffset" : 1920
        },
        {
            "buffer" : 0,
            "byteLength" : 8208,
            "byteOffset" : 2124
        },
        {
            "buffer" : 0,
            "byteLength" : 8208,
            "byteOffset" : 10332
        },
        {
            "buffer" : 0,
            "byteLength" : 5472,
            "byteOffset" : 18540
        },
        {
            "buffer" : 0,
            "byteLength" : 2076,
            "byteOffset" : 24012
        },
        {
            "buffer" : 0,
            "byteLength" : 1205481,
            "byteOffset" : 26088
        },
        {
            "buffer" : 0,
            "byteLength" : 116064,
            "byteOffset" : 1231572
        },
        {
            "buffer" : 0,
            "byteLength" : 116064,
            "byteOffset" : 1347636
        },
        {
            "buffer" : 0,
            "byteLength" : 77376,
            "byteOffset" : 1463700
        },
        {
            "buffer" : 0,
            "byteLength" : 28080,
            "byteOffset" : 1541076
        },
        {
            "buffer" : 0,
            "byteLength" : 8928,
            "byteOffset" : 1569156
        },
        {
            "buffer" : 0,
            "byteLength" : 8928,
            "byteOffset" : 1578084
        },
        {
            "buffer" : 0,
            "byteLength" : 5952,
            "byteOffset" : 1587012
        },
        {
            "buffer" : 0,
            "byteLength" : 2160,
            "byteOffset" : 1592964
        }
    ],
    "buffers" : [
        {
            "byteLength" : 1595124,
            "uri" : "data:application/octet-stream;base64,"
        }
    ]
}
