{
    "asset" : {
        "generator" : "Khronos glTF Blender I/O v0.9.36",
        "version" : "2.0"
    },
    "scene" : 0,
    "scenes" : [
        {
            "name" : "Scene",
            "nodes" : [
                0,
                1,
                2,
                3,
                4,
                5,
                6,
                7,
                8
            ]
        }
    ],
    "nodes" : [
        {
            "mesh" : 0,
            "name" : "Cube",
            "rotation" : [
                0,
                0.3388631045818329,
                0,
                0.94083571434021
            ],
            "scale" : [
                0.10245747119188309,
                0.3701227307319641,
                1.0533759593963623
            ],
            "translation" : [
                -3.3560614585876465,
                0.46163734793663025,
                9.846965789794922
            ]
        },
        {
            "mesh" : 1,
            "name" : "Cube.001",
            "rotation" : [
                0.2396123707294464,
                0.23961235582828522,
                0.6652712821960449,
                0.6652713418006897
            ],
            "scale" : [
                0.10245747119188309,
                0.3521602153778076,
                1.0533759593963623
            ],
            "translation" : [
                -3.0031538009643555,
                0.1941472887992859,
                9.554855346679688
            ]
        },
        {
            "mesh" : 2,
            "name" : "Cube.002",
            "rotation" : [
                0.3388630449771881,
                0,
                0.94083571434021,
                -2.201665836309985e-07
            ],
            "scale" : [
                0.3114386200904846,
                0.3521602153778076,
                0.5519507527351379
            ],
            "translation" : [
                -3.402961015701294,
                0.44370192289352417,
                9.14168643951416
            ]
        },
        {
            "mesh" : 3,
            "name" : "Cube.003",
            "rotation" : [
                0.3388630449771881,
                0,
                0.94083571434021,
                -2.201665836309985e-07
            ],
            "scale" : [
                0.3114386200904846,
                0.3521602153778076,
                0.5519507527351379
            ],
            "translation" : [
                -4.7251482009887695,
                0.44370192289352417,
                7.544302463531494
            ]
        },
        {
            "mesh" : 4,
            "name" : "Cube.004",
            "rotation" : [
                0.2396123707294464,
                0.23961235582828522,
                0.6652712821960449,
                0.6652713418006897
            ],
            "scale" : [
                0.08777362108230591,
                0.3705553412437439,
                1.0533759593963623
            ],
            "translation" : [
                -3.0031538009643555,
                0.30620282888412476,
                9.554855346679688
            ]
        },
        {
            "mesh" : 5,
            "name" : "Cylinder",
            "rotation" : [
                0,
                0.3388631045818329,
                0,
                0.94083571434021
            ],
            "scale" : [
                -0.015408997423946857,
                -0.04277349263429642,
                -0.015408997423946857
            ],
            "translation" : [
                -2.220780849456787,
                0.04994124174118042,
                10.110502243041992
            ]
        },
        {
            "mesh" : 6,
            "name" : "Cylinder.001",
            "rotation" : [
                0,
                0.3388631045818329,
                0,
                0.94083571434021
            ],
            "scale" : [
                -0.015408997423946857,
                -0.04277349263429642,
                -0.015408997423946857
            ],
            "translation" : [
                -2.7713253498077393,
                0.04994124174118042,
                10.56619930267334
            ]
        },
        {
            "mesh" : 7,
            "name" : "Cylinder.002",
            "rotation" : [
                0,
                0.3388631045818329,
                0,
                0.94083571434021
            ],
            "scale" : [
                -0.015408997423946857,
                -0.04277349263429642,
                -0.015408997423946857
            ],
            "translation" : [
                -3.4050400257110596,
                0.04994124174118042,
                8.679754257202148
            ]
        },
        {
            "mesh" : 8,
            "name" : "Cylinder.003",
            "rotation" : [
                0,
                0.3388631045818329,
                0,
                0.94083571434021
            ],
            "scale" : [
                -0.015408997423946857,
                -0.04277349263429642,
                -0.015408997423946857
            ],
            "translation" : [
                -3.9555845260620117,
                0.04994124174118042,
                9.135451316833496
            ]
        }
    ],
    "materials" : [
        {
            "doubleSided" : true,
            "name" : "Long Couch Color",
            "pbrMetallicRoughness" : {
                "baseColorFactor" : [
                    0.05628056824207306,
                    0.05478246882557869,
                    0.05780280753970146,
                    1
                ],
                "metallicFactor" : 0,
                "roughnessFactor" : 1
            }
        },
        {
            "doubleSided" : true,
            "name" : "Cloth (White)",
            "pbrMetallicRoughness" : {
                "baseColorTexture" : {
                    "index" : 0,
                    "texCoord" : 0
                },
                "metallicFactor" : 0,
                "roughnessFactor" : 0.5
            }
        },
        {
            "doubleSided" : true,
            "name" : "Couch Leg (No Nodes)",
            "pbrMetallicRoughness" : {
                "baseColorFactor" : [
                    0.14240087568759918,
                    0.14240087568759918,
                    0.14240087568759918,
                    1
                ],
                "metallicFactor" : 0.8352272510528564,
                "roughnessFactor" : 0.33522725105285645
            }
        }
    ],
    "meshes" : [
        {
            "name" : "Cube",
            "primitives" : [
                {
                    "attributes" : {
                        "POSITION" : 0,
                        "TEXCOORD_0" : 1
                    },
                    "indices" : 2,
                    "material" : 0
                }
            ]
        },
        {
            "name" : "Cube.007",
            "primitives" : [
                {
                    "attributes" : {
                        "POSITION" : 3,
                        "TEXCOORD_0" : 4
                    },
                    "indices" : 5,
                    "material" : 0
                }
            ]
        },
        {
            "name" : "Cube.009",
            "primitives" : [
                {
                    "attributes" : {
                        "POSITION" : 6,
                        "TEXCOORD_0" : 7
                    },
                    "indices" : 8,
                    "material" : 0
                }
            ]
        },
        {
            "name" : "Cube.012",
            "primitives" : [
                {
                    "attributes" : {
                        "POSITION" : 9,
                        "TEXCOORD_0" : 10
                    },
                    "indices" : 8,
                    "material" : 0
                }
            ]
        },
        {
            "name" : "Cube.011",
            "primitives" : [
                {
                    "attributes" : {
                        "POSITION" : 11,
                        "TEXCOORD_0" : 12
                    },
                    "indices" : 13,
                    "material" : 1
                }
            ]
        },
        {
            "name" : "Cylinder.001",
            "primitives" : [
                {
                    "attributes" : {
                        "POSITION" : 14,
                        "TEXCOORD_0" : 15
                    },
                    "indices" : 16,
                    "material" : 2
                }
            ]
        },
        {
            "name" : "Cylinder.002",
            "primitives" : [
                {
                    "attributes" : {
                        "POSITION" : 17,
                        "TEXCOORD_0" : 18
                    },
                    "indices" : 16,
                    "material" : 2
                }
            ]
        },
        {
            "name" : "Cylinder.003",
            "primitives" : [
                {
                    "attributes" : {
                        "POSITION" : 19,
                        "TEXCOORD_0" : 20
                    },
                    "indices" : 16,
                    "material" : 2
                }
            ]
        },
        {
            "name" : "Cylinder.004",
            "primitives" : [
                {
                    "attributes" : {
                        "POSITION" : 21,
                        "TEXCOORD_0" : 22
                    },
                    "indices" : 16,
                    "material" : 2
                }
            ]
        }
    ],
    "textures" : [
        {
            "source" : 0
        }
    ],
    "images" : [
        {
            "bufferView" : 14,
            "mimeType" : "image/jpeg",
            "name" : "Fabric32_col"
        }
    ],
    "accessors" : [
        {
            "bufferView" : 0,
            "componentType" : 5126,
            "count" : 2592,
            "max" : [
                0.9865750074386597,
                1.0000001192092896,
                1.0000001192092896
            ],
            "min" : [
                -1.2883983850479126,
                -1.0000001192092896,
                -1.0000001192092896
            ],
            "type" : "VEC3"
        },
        {
            "bufferView" : 1,
            "componentType" : 5126,
            "count" : 2592,
            "type" : "VEC2"
        },
        {
            "bufferView" : 2,
            "componentType" : 5123,
            "count" : 3888,
            "type" : "SCALAR"
        },
        {
            "bufferView" : 3,
            "componentType" : 5126,
            "count" : 8448,
            "max" : [
                0.22206948697566986,
                1.0000001192092896,
                0.951949417591095
            ],
            "min" : [
                -1.0014349222183228,
                -1.0000001192092896,
                -0.955456018447876
            ],
            "type" : "VEC3"
        },
        {
            "bufferView" : 4,
            "componentType" : 5126,
            "count" : 8448,
            "type" : "VEC2"
        },
        {
            "bufferView" : 5,
            "componentType" : 5123,
            "count" : 12672,
            "type" : "SCALAR"
        },
        {
            "bufferView" : 6,
            "componentType" : 5126,
            "count" : 1888,
            "max" : [
                1.1512947082519531,
                0.9999989867210388,
                2.9927899837493896
            ],
            "min" : [
                -1.2718148231506348,
                -0.04771417751908302,
                2.833245277404785
            ],
            "type" : "VEC3"
        },
        {
            "bufferView" : 7,
            "componentType" : 5126,
            "count" : 1888,
            "type" : "VEC2"
        },
        {
            "bufferView" : 8,
            "componentType" : 5123,
            "count" : 2832,
            "type" : "SCALAR"
        },
        {
            "bufferView" : 9,
            "componentType" : 5126,
            "count" : 1888,
            "max" : [
                1.1512947082519531,
                0.9999989867210388,
                2.9927899837493896
            ],
            "min" : [
                -1.2718148231506348,
                -0.04771417751908302,
                2.833245277404785
            ],
            "type" : "VEC3"
        },
        {
            "bufferView" : 10,
            "componentType" : 5126,
            "count" : 1888,
            "type" : "VEC2"
        },
        {
            "bufferView" : 11,
            "componentType" : 5126,
            "count" : 2880,
            "max" : [
                0.22206947207450867,
                1.0000001192092896,
                0.9467797875404358
            ],
            "min" : [
                -1.0014348030090332,
                -1.0000001192092896,
                -0.9467951059341431
            ],
            "type" : "VEC3"
        },
        {
            "bufferView" : 12,
            "componentType" : 5126,
            "count" : 2880,
            "type" : "VEC2"
        },
        {
            "bufferView" : 13,
            "componentType" : 5123,
            "count" : 4320,
            "type" : "SCALAR"
        },
        {
            "bufferView" : 15,
            "componentType" : 5126,
            "count" : 60,
            "max" : [
                1.3595885038375854,
                1,
                1.4295493364334106
            ],
            "min" : [
                -1.359588384628296,
                -1.0000003576278687,
                -1.4295624494552612
            ],
            "type" : "VEC3"
        },
        {
            "bufferView" : 16,
            "componentType" : 5126,
            "count" : 60,
            "type" : "VEC2"
        },
        {
            "bufferView" : 17,
            "componentType" : 5123,
            "count" : 108,
            "type" : "SCALAR"
        },
        {
            "bufferView" : 18,
            "componentType" : 5126,
            "count" : 60,
            "max" : [
                1.3595885038375854,
                1,
                1.4295493364334106
            ],
            "min" : [
                -1.359588384628296,
                -1.0000003576278687,
                -1.4295624494552612
            ],
            "type" : "VEC3"
        },
        {
            "bufferView" : 19,
            "componentType" : 5126,
            "count" : 60,
            "type" : "VEC2"
        },
        {
            "bufferView" : 20,
            "componentType" : 5126,
            "count" : 60,
            "max" : [
                1.3595885038375854,
                1,
                1.4295493364334106
            ],
            "min" : [
                -1.359588384628296,
                -1.0000003576278687,
                -1.4295624494552612
            ],
            "type" : "VEC3"
        },
        {
            "bufferView" : 21,
            "componentType" : 5126,
            "count" : 60,
            "type" : "VEC2"
        },
        {
            "bufferView" : 22,
            "componentType" : 5126,
            "count" : 60,
            "max" : [
                1.3595885038375854,
                1,
                1.4295493364334106
            ],
            "min" : [
                -1.359588384628296,
                -1.0000003576278687,
                -1.4295624494552612
            ],
            "type" : "VEC3"
        },
        {
            "bufferView" : 23,
            "componentType" : 5126,
            "count" : 60,
            "type" : "VEC2"
        }
    ],
    "bufferViews" : [
        {
            "buffer" : 0,
            "byteLength" : 31104,
            "byteOffset" : 0
        },
        {
            "buffer" : 0,
            "byteLength" : 20736,
            "byteOffset" : 31104
        },
        {
            "buffer" : 0,
            "byteLength" : 7776,
            "byteOffset" : 51840
        },
        {
            "buffer" : 0,
            "byteLength" : 101376,
            "byteOffset" : 59616
        },
        {
            "buffer" : 0,
            "byteLength" : 67584,
            "byteOffset" : 160992
        },
        {
            "buffer" : 0,
            "byteLength" : 25344,
            "byteOffset" : 228576
        },
        {
            "buffer" : 0,
            "byteLength" : 22656,
            "byteOffset" : 253920
        },
        {
            "buffer" : 0,
            "byteLength" : 15104,
            "byteOffset" : 276576
        },
        {
            "buffer" : 0,
            "byteLength" : 5664,
            "byteOffset" : 291680
        },
        {
            "buffer" : 0,
            "byteLength" : 22656,
            "byteOffset" : 297344
        },
        {
            "buffer" : 0,
            "byteLength" : 15104,
            "byteOffset" : 320000
        },
        {
            "buffer" : 0,
            "byteLength" : 34560,
            "byteOffset" : 335104
        },
        {
            "buffer" : 0,
            "byteLength" : 23040,
            "byteOffset" : 369664
        },
        {
            "buffer" : 0,
            "byteLength" : 8640,
            "byteOffset" : 392704
        },
        {
            "buffer" : 0,
            "byteLength" : 329698,
            "byteOffset" : 401344
        },
        {
            "buffer" : 0,
            "byteLength" : 720,
            "byteOffset" : 731044
        },
        {
            "buffer" : 0,
            "byteLength" : 480,
            "byteOffset" : 731764
        },
        {
            "buffer" : 0,
            "byteLength" : 216,
            "byteOffset" : 732244
        },
        {
            "buffer" : 0,
            "byteLength" : 720,
            "byteOffset" : 732460
        },
        {
            "buffer" : 0,
            "byteLength" : 480,
            "byteOffset" : 733180
        },
        {
            "buffer" : 0,
            "byteLength" : 720,
            "byteOffset" : 733660
        },
        {
            "buffer" : 0,
            "byteLength" : 480,
            "byteOffset" : 734380
        },
        {
            "buffer" : 0,
            "byteLength" : 720,
            "byteOffset" : 734860
        },
        {
            "buffer" : 0,
            "byteLength" : 480,
            "byteOffset" : 735580
        }
    ],
    "buffers" : [
        {
            "byteLength" : 736060,
            "uri" : "data:application/octet-stream;base64,"
        }
    ]
}
