{
    "asset" : {
        "generator" : "Khronos glTF Blender I/O v0.9.36",
        "version" : "2.0"
    },
    "scene" : 0,
    "scenes" : [
        {
            "name" : "Scene",
            "nodes" : [
                0,
                1,
                2,
                3
            ]
        }
    ],
    "nodes" : [
        {
            "mesh" : 0,
            "name" : "Cube.005",
            "rotation" : [
                0,
                -0.2676714360713959,
                0,
                0.963510274887085
            ],
            "scale" : [
                0.05820140987634659,
                0.3499999940395355,
                0.44999998807907104
            ],
            "translation" : [
                -3.051238536834717,
                0.4763879179954529,
                6.738379955291748
            ]
        },
        {
            "mesh" : 1,
            "name" : "Cube.006",
            "rotation" : [
                0,
                -0.2676714360713959,
                0,
                0.963510274887085
            ],
            "scale" : [
                -0.3124825954437256,
                -0.3124825954437256,
                -0.3124825954437256
            ],
            "translation" : [
                -2.8416175842285156,
                0.43819326162338257,
                6.884330749511719
            ]
        },
        {
            "mesh" : 2,
            "name" : "Pillow (Seat).002",
            "rotation" : [
                -0.18927234411239624,
                -0.18927232921123505,
                0.6813045740127563,
                0.6813046336174011
            ],
            "scale" : [
                0.029462598264217377,
                0.20922759175300598,
                0.2397805154323578
            ],
            "translation" : [
                -2.826693296432495,
                0.4915054440498352,
                6.997347831726074
            ]
        },
        {
            "mesh" : 3,
            "name" : "Pillow (Seat).003",
            "rotation" : [
                -0.2670668661594391,
                0.017980316653847694,
                0.9613339900970459,
                -0.0647222101688385
            ],
            "scale" : [
                0.029462598264217377,
                0.20922759175300598,
                0.2397805154323578
            ],
            "translation" : [
                -3.010817289352417,
                0.6701751351356506,
                6.886488914489746
            ]
        }
    ],
    "materials" : [
        {
            "doubleSided" : true,
            "name" : "Long Couch Color",
            "pbrMetallicRoughness" : {
                "baseColorFactor" : [
                    0.05628056824207306,
                    0.05478246882557869,
                    0.05780280753970146,
                    1
                ],
                "metallicFactor" : 0,
                "roughnessFactor" : 1
            }
        },
        {
            "doubleSided" : true,
            "name" : "Cloth (White)",
            "pbrMetallicRoughness" : {
                "baseColorTexture" : {
                    "index" : 0,
                    "texCoord" : 0
                },
                "metallicFactor" : 0,
                "roughnessFactor" : 0.5
            }
        }
    ],
    "meshes" : [
        {
            "name" : "Cube.010",
            "primitives" : [
                {
                    "attributes" : {
                        "POSITION" : 0,
                        "TEXCOORD_0" : 1
                    },
                    "indices" : 2,
                    "material" : 0
                }
            ]
        },
        {
            "name" : "Cube.008",
            "primitives" : [
                {
                    "attributes" : {
                        "POSITION" : 3,
                        "TEXCOORD_0" : 4
                    },
                    "indices" : 5,
                    "material" : 0
                }
            ]
        },
        {
            "name" : "Cube.016",
            "primitives" : [
                {
                    "attributes" : {
                        "POSITION" : 6,
                        "TEXCOORD_0" : 7
                    },
                    "indices" : 8,
                    "material" : 1
                }
            ]
        },
        {
            "name" : "Cube.017",
            "primitives" : [
                {
                    "attributes" : {
                        "POSITION" : 9,
                        "TEXCOORD_0" : 10
                    },
                    "indices" : 8,
                    "material" : 1
                }
            ]
        }
    ],
    "textures" : [
        {
            "source" : 0
        }
    ],
    "images" : [
        {
            "bufferView" : 9,
            "mimeType" : "image/jpeg",
            "name" : "Fabric32_col"
        }
    ],
    "accessors" : [
        {
            "bufferView" : 0,
            "componentType" : 5126,
            "count" : 214,
            "max" : [
                10.28273868560791,
                1,
                1
            ],
            "min" : [
                -1,
                -1.3596678972244263,
                -1
            ],
            "type" : "VEC3"
        },
        {
            "bufferView" : 1,
            "componentType" : 5126,
            "count" : 214,
            "type" : "VEC2"
        },
        {
            "bufferView" : 2,
            "componentType" : 5123,
            "count" : 357,
            "type" : "SCALAR"
        },
        {
            "bufferView" : 3,
            "componentType" : 5126,
            "count" : 24,
            "max" : [
                1,
                1,
                1.1486327648162842
            ],
            "min" : [
                -1.099692702293396,
                -0.064109206199646,
                -1.0561904907226562
            ],
            "type" : "VEC3"
        },
        {
            "bufferView" : 4,
            "componentType" : 5126,
            "count" : 24,
            "type" : "VEC2"
        },
        {
            "bufferView" : 5,
            "componentType" : 5123,
            "count" : 36,
            "type" : "SCALAR"
        },
        {
            "bufferView" : 6,
            "componentType" : 5126,
            "count" : 12928,
            "max" : [
                1.0000001192092896,
                1.0000001192092896,
                1.0000001192092896
            ],
            "min" : [
                -1.104688286781311,
                -1.444610595703125,
                -1.8624292612075806
            ],
            "type" : "VEC3"
        },
        {
            "bufferView" : 7,
            "componentType" : 5126,
            "count" : 12928,
            "type" : "VEC2"
        },
        {
            "bufferView" : 8,
            "componentType" : 5123,
            "count" : 19392,
            "type" : "SCALAR"
        },
        {
            "bufferView" : 10,
            "componentType" : 5126,
            "count" : 12928,
            "max" : [
                1.0000001192092896,
                1.0000001192092896,
                1.0000001192092896
            ],
            "min" : [
                -1.104688286781311,
                -1.444610595703125,
                -1.8624292612075806
            ],
            "type" : "VEC3"
        },
        {
            "bufferView" : 11,
            "componentType" : 5126,
            "count" : 12928,
            "type" : "VEC2"
        }
    ],
    "bufferViews" : [
        {
            "buffer" : 0,
            "byteLength" : 2568,
            "byteOffset" : 0
        },
        {
            "buffer" : 0,
            "byteLength" : 1712,
            "byteOffset" : 2568
        },
        {
            "buffer" : 0,
            "byteLength" : 714,
            "byteOffset" : 4280
        },
        {
            "buffer" : 0,
            "byteLength" : 288,
            "byteOffset" : 4996
        },
        {
            "buffer" : 0,
            "byteLength" : 192,
            "byteOffset" : 5284
        },
        {
            "buffer" : 0,
            "byteLength" : 72,
            "byteOffset" : 5476
        },
        {
            "buffer" : 0,
            "byteLength" : 155136,
            "byteOffset" : 5548
        },
        {
            "buffer" : 0,
            "byteLength" : 103424,
            "byteOffset" : 160684
        },
        {
            "buffer" : 0,
            "byteLength" : 38784,
            "byteOffset" : 264108
        },
        {
            "buffer" : 0,
            "byteLength" : 329698,
            "byteOffset" : 302892
        },
        {
            "buffer" : 0,
            "byteLength" : 155136,
            "byteOffset" : 632592
        },
        {
            "buffer" : 0,
            "byteLength" : 103424,
            "byteOffset" : 787728
        }
    ],
    "buffers" : [
        {
            "byteLength" : 891152,
            "uri" : "data:application/octet-stream;base64,"
        }
    ]
}
