{
    "asset" : {
        "generator" : "Khronos glTF Blender I/O v1.0.5",
        "version" : "2.0"
    },
    "scene" : 0,
    "scenes" : [
        {
            "name" : "Scene",
            "nodes" : [
                1
            ]
        }
    ],
    "nodes" : [
        {
            "mesh" : 0,
            "name" : "potje",
            "rotation" : [
                0,
                0.09406068921089172,
                0,
                0.9955664873123169
            ],
            "scale" : [
                0.6843250393867493,
                0.6843250393867493,
                0.6843250393867493
            ],
            "translation" : [
                -0.006944086402654648,
                -0.6885973215103149,
                -0.015021929517388344
            ]
        },
        {
            "children" : [
                0
            ],
            "mesh" : 1,
            "name" : "Danone",
            "rotation" : [
                0,
                -0.09406068921089172,
                0,
                0.9955664873123169
            ],
            "scale" : [
                1.4612939357757568,
                1.4612939357757568,
                1.4612939357757568
            ],
            "translation" : [
                -0.017494678497314453,
                1.9826401472091675,
                0
            ]
        }
    ],
    "materials" : [
        {
            "doubleSided" : true,
            "name" : "Material.004",
            "pbrMetallicRoughness" : {
                "baseColorTexture" : {
                    "index" : 0,
                    "texCoord" : 0
                },
                "metallicFactor" : 0,
                "roughnessFactor" : 0.5
            }
        },
        {
            "doubleSided" : true,
            "name" : "white",
            "pbrMetallicRoughness" : {
                "baseColorFactor" : [
                    0.800000011920929,
                    0.800000011920929,
                    0.800000011920929,
                    1
                ],
                "metallicFactor" : 0,
                "roughnessFactor" : 0.5
            }
        },
        {
            "doubleSided" : true,
            "name" : "Material",
            "pbrMetallicRoughness" : {
                "baseColorTexture" : {
                    "index" : 1,
                    "texCoord" : 0
                },
                "metallicFactor" : 0,
                "roughnessFactor" : 0.4000000059604645
            }
        }
    ],
    "meshes" : [
        {
            "name" : "Cylinder",
            "primitives" : [
                {
                    "attributes" : {
                        "POSITION" : 0,
                        "NORMAL" : 1,
                        "TEXCOORD_0" : 2
                    },
                    "indices" : 3,
                    "material" : 0
                },
                {
                    "attributes" : {
                        "POSITION" : 4,
                        "NORMAL" : 5,
                        "TEXCOORD_0" : 6
                    },
                    "indices" : 7,
                    "material" : 1
                }
            ]
        },
        {
            "name" : "Circle",
            "primitives" : [
                {
                    "attributes" : {
                        "POSITION" : 8,
                        "NORMAL" : 9,
                        "TEXCOORD_0" : 10
                    },
                    "indices" : 11,
                    "material" : 2
                }
            ]
        }
    ],
    "textures" : [
        {
            "source" : 0
        },
        {
            "source" : 1
        }
    ],
    "images" : [
        {
            "bufferView" : 4,
            "mimeType" : "image/jpeg",
            "name" : "danone"
        },
        {
            "bufferView" : 13,
            "mimeType" : "image/jpeg",
            "name" : "danone cap"
        }
    ],
    "accessors" : [
        {
            "bufferView" : 0,
            "componentType" : 5126,
            "count" : 408,
            "max" : [
                1.0534149408340454,
                0.9910850524902344,
                1.0911614894866943
            ],
            "min" : [
                -1.0150388479232788,
                -1.0089149475097656,
                -1.017244815826416
            ],
            "type" : "VEC3"
        },
        {
            "bufferView" : 1,
            "componentType" : 5126,
            "count" : 408,
            "type" : "VEC3"
        },
        {
            "bufferView" : 2,
            "componentType" : 5126,
            "count" : 408,
            "type" : "VEC2"
        },
        {
            "bufferView" : 3,
            "componentType" : 5123,
            "count" : 666,
            "type" : "SCALAR"
        },
        {
            "bufferView" : 5,
            "componentType" : 5126,
            "count" : 32,
            "max" : [
                0.9959453344345093,
                -1.0089149475097656,
                1.0316325426101685
            ],
            "min" : [
                -0.9596628546714783,
                -1.0089149475097656,
                -0.961748480796814
            ],
            "type" : "VEC3"
        },
        {
            "bufferView" : 6,
            "componentType" : 5126,
            "count" : 32,
            "type" : "VEC3"
        },
        {
            "bufferView" : 7,
            "componentType" : 5126,
            "count" : 32,
            "type" : "VEC2"
        },
        {
            "bufferView" : 8,
            "componentType" : 5123,
            "count" : 90,
            "type" : "SCALAR"
        },
        {
            "bufferView" : 9,
            "componentType" : 5126,
            "count" : 358,
            "max" : [
                0.885923445224762,
                0.011310474015772343,
                0.8752811551094055
            ],
            "min" : [
                -0.8859235644340515,
                -0.011310457251966,
                -0.875281572341919
            ],
            "type" : "VEC3"
        },
        {
            "bufferView" : 10,
            "componentType" : 5126,
            "count" : 358,
            "type" : "VEC3"
        },
        {
            "bufferView" : 11,
            "componentType" : 5126,
            "count" : 358,
            "type" : "VEC2"
        },
        {
            "bufferView" : 12,
            "componentType" : 5123,
            "count" : 960,
            "type" : "SCALAR"
        }
    ],
    "bufferViews" : [
        {
            "buffer" : 0,
            "byteLength" : 4896,
            "byteOffset" : 0
        },
        {
            "buffer" : 0,
            "byteLength" : 4896,
            "byteOffset" : 4896
        },
        {
            "buffer" : 0,
            "byteLength" : 3264,
            "byteOffset" : 9792
        },
        {
            "buffer" : 0,
            "byteLength" : 1332,
            "byteOffset" : 13056
        },
        {
            "buffer" : 0,
            "byteLength" : 45114,
            "byteOffset" : 14388
        },
        {
            "buffer" : 0,
            "byteLength" : 384,
            "byteOffset" : 59504
        },
        {
            "buffer" : 0,
            "byteLength" : 384,
            "byteOffset" : 59888
        },
        {
            "buffer" : 0,
            "byteLength" : 256,
            "byteOffset" : 60272
        },
        {
            "buffer" : 0,
            "byteLength" : 180,
            "byteOffset" : 60528
        },
        {
            "buffer" : 0,
            "byteLength" : 4296,
            "byteOffset" : 60708
        },
        {
            "buffer" : 0,
            "byteLength" : 4296,
            "byteOffset" : 65004
        },
        {
            "buffer" : 0,
            "byteLength" : 2864,
            "byteOffset" : 69300
        },
        {
            "buffer" : 0,
            "byteLength" : 1920,
            "byteOffset" : 72164
        },
        {
            "buffer" : 0,
            "byteLength" : 196081,
            "byteOffset" : 74084
        }
    ],
    "buffers" : [
        {
            "byteLength" : 270168,
            "uri" : "data:application/octet-stream;base64,"
        }
    ]
}
