{
    "asset" : {
        "generator" : "Khronos glTF Blender I/O v0.9.36",
        "version" : "2.0"
    },
    "scene" : 0,
    "scenes" : [
        {
            "name" : "Scene",
            "nodes" : [
                0
            ]
        }
    ],
    "nodes" : [
        {
            "mesh" : 0,
            "name" : "tv",
            "scale" : [
                -0.010038607753813267,
                1,
                1.600000023841858
            ],
            "translation" : [
                -4.474367141723633,
                3.8158137798309326,
                0
            ]
        }
    ],
    "materials" : [
        {
            "doubleSided" : true,
            "name" : "body.001",
            "pbrMetallicRoughness" : {
                "baseColorFactor" : [
                    0.12160812318325043,
                    0.12371010333299637,
                    0.11303222179412842,
                    1
                ],
                "metallicFactor" : 0,
                "roughnessFactor" : 0.5
            }
        },
        {
            "doubleSided" : true,
            "emissiveFactor" : [
                0.4964291751384735,
                1,
                0.9712676405906677
            ],
            "name" : "screen",
            "pbrMetallicRoughness" : {}
        },
        {
            "doubleSided" : true,
            "name" : "frame.001",
            "pbrMetallicRoughness" : {
                "baseColorFactor" : [
                    0.023650724440813065,
                    0.023650724440813065,
                    0.023650724440813065,
                    1
                ],
                "metallicFactor" : 0,
                "roughnessFactor" : 0
            }
        },
        {
            "doubleSided" : true,
            "name" : "n body",
            "pbrMetallicRoughness" : {
                "baseColorFactor" : [
                    0.010021788068115711,
                    0.010021788068115711,
                    0.010021788068115711,
                    1
                ],
                "metallicFactor" : 0,
                "roughnessFactor" : 0.7333333492279053
            }
        }
    ],
    "meshes" : [
        {
            "name" : "Cube",
            "primitives" : [
                {
                    "attributes" : {
                        "POSITION" : 0,
                        "NORMAL" : 1,
                        "TEXCOORD_0" : 2
                    },
                    "indices" : 3,
                    "material" : 0
                },
                {
                    "attributes" : {
                        "POSITION" : 4,
                        "NORMAL" : 5,
                        "TEXCOORD_0" : 6
                    },
                    "indices" : 7,
                    "material" : 1
                },
                {
                    "attributes" : {
                        "POSITION" : 8,
                        "NORMAL" : 9,
                        "TEXCOORD_0" : 10
                    },
                    "indices" : 11,
                    "material" : 2
                },
                {
                    "attributes" : {
                        "POSITION" : 12,
                        "NORMAL" : 13,
                        "TEXCOORD_0" : 14
                    },
                    "indices" : 15,
                    "material" : 3
                }
            ]
        }
    ],
    "accessors" : [
        {
            "bufferView" : 0,
            "componentType" : 5126,
            "count" : 188,
            "max" : [
                66.11851501464844,
                1,
                1
            ],
            "min" : [
                -16.76638412475586,
                -3.8176417350769043,
                -1
            ],
            "type" : "VEC3"
        },
        {
            "bufferView" : 1,
            "componentType" : 5126,
            "count" : 188,
            "type" : "VEC3"
        },
        {
            "bufferView" : 2,
            "componentType" : 5126,
            "count" : 188,
            "type" : "VEC2"
        },
        {
            "bufferView" : 3,
            "componentType" : 5123,
            "count" : 330,
            "type" : "SCALAR"
        },
        {
            "bufferView" : 4,
            "componentType" : 5126,
            "count" : 4,
            "max" : [
                -1,
                0.9868269562721252,
                0.9868269562721252
            ],
            "min" : [
                -1,
                -0.9868269562721252,
                -0.9868269562721252
            ],
            "type" : "VEC3"
        },
        {
            "bufferView" : 5,
            "componentType" : 5126,
            "count" : 4,
            "type" : "VEC3"
        },
        {
            "bufferView" : 6,
            "componentType" : 5126,
            "count" : 4,
            "type" : "VEC2"
        },
        {
            "bufferView" : 7,
            "componentType" : 5123,
            "count" : 6,
            "type" : "SCALAR"
        },
        {
            "bufferView" : 8,
            "componentType" : 5126,
            "count" : 16,
            "max" : [
                -1,
                1,
                1
            ],
            "min" : [
                -1,
                -1,
                -1
            ],
            "type" : "VEC3"
        },
        {
            "bufferView" : 9,
            "componentType" : 5126,
            "count" : 16,
            "type" : "VEC3"
        },
        {
            "bufferView" : 10,
            "componentType" : 5126,
            "count" : 16,
            "type" : "VEC2"
        },
        {
            "bufferView" : 11,
            "componentType" : 5123,
            "count" : 24,
            "type" : "SCALAR"
        },
        {
            "bufferView" : 12,
            "componentType" : 5126,
            "count" : 48,
            "max" : [
                7.912503242492676,
                0.47372177243232727,
                0.12390674650669098
            ],
            "min" : [
                6.223655700683594,
                0.11161893606185913,
                -0.11497332155704498
            ],
            "type" : "VEC3"
        },
        {
            "bufferView" : 13,
            "componentType" : 5126,
            "count" : 48,
            "type" : "VEC3"
        },
        {
            "bufferView" : 14,
            "componentType" : 5126,
            "count" : 48,
            "type" : "VEC2"
        },
        {
            "bufferView" : 15,
            "componentType" : 5123,
            "count" : 72,
            "type" : "SCALAR"
        }
    ],
    "bufferViews" : [
        {
            "buffer" : 0,
            "byteLength" : 2256,
            "byteOffset" : 0
        },
        {
            "buffer" : 0,
            "byteLength" : 2256,
            "byteOffset" : 2256
        },
        {
            "buffer" : 0,
            "byteLength" : 1504,
            "byteOffset" : 4512
        },
        {
            "buffer" : 0,
            "byteLength" : 660,
            "byteOffset" : 6016
        },
        {
            "buffer" : 0,
            "byteLength" : 48,
            "byteOffset" : 6676
        },
        {
            "buffer" : 0,
            "byteLength" : 48,
            "byteOffset" : 6724
        },
        {
            "buffer" : 0,
            "byteLength" : 32,
            "byteOffset" : 6772
        },
        {
            "buffer" : 0,
            "byteLength" : 12,
            "byteOffset" : 6804
        },
        {
            "buffer" : 0,
            "byteLength" : 192,
            "byteOffset" : 6816
        },
        {
            "buffer" : 0,
            "byteLength" : 192,
            "byteOffset" : 7008
        },
        {
            "buffer" : 0,
            "byteLength" : 128,
            "byteOffset" : 7200
        },
        {
            "buffer" : 0,
            "byteLength" : 48,
            "byteOffset" : 7328
        },
        {
            "buffer" : 0,
            "byteLength" : 576,
            "byteOffset" : 7376
        },
        {
            "buffer" : 0,
            "byteLength" : 576,
            "byteOffset" : 7952
        },
        {
            "buffer" : 0,
            "byteLength" : 384,
            "byteOffset" : 8528
        },
        {
            "buffer" : 0,
            "byteLength" : 144,
            "byteOffset" : 8912
        }
    ],
    "buffers" : [
        {
            "byteLength" : 9056,
            "uri" : "data:application/octet-stream;base64,"
        }
    ]
}
