{
    "asset" : {
        "generator" : "Khronos glTF Blender I/O v0.9.36",
        "version" : "2.0"
    },
    "scene" : 0,
    "scenes" : [
        {
            "name" : "Scene",
            "nodes" : [
                0,
                1,
                2,
                3
            ]
        }
    ],
    "nodes" : [
        {
            "name" : "Light",
            "rotation" : [
                0.16907575726509094,
                0.7558803558349609,
                -0.27217137813568115,
                0.570947527885437
            ],
            "translation" : [
                1.0849645137786865,
                5.903861999511719,
                5.174644947052002
            ]
        },
        {
            "name" : "Camera",
            "rotation" : [
                0.5261176824569702,
                0.03834862634539604,
                -0.02375829964876175,
                0.8492143750190735
            ],
            "translation" : [
                3.9942080974578857,
                22.063770294189453,
                33.495277404785156
            ]
        },
        {
            "mesh" : 0,
            "name" : "Cylinder",
            "translation" : [
                0,
                1.7555975914001465,
                0
            ]
        },
        {
            "mesh" : 1,
            "name" : "logo",
            "rotation" : [
                0.5009652376174927,
                0.49784138798713684,
                0.49902546405792236,
                0.5021567344665527
            ],
            "translation" : [
                0.1912442445755005,
                1.9861018657684326,
                0.9756008386611938
            ]
        }
    ],
    "materials" : [
        {
            "doubleSided" : true,
            "name" : "white_part",
            "pbrMetallicRoughness" : {
                "baseColorFactor" : [
                    0.800000011920929,
                    0.800000011920929,
                    0.800000011920929,
                    1
                ],
                "metallicFactor" : 0,
                "roughnessFactor" : 0.5
            }
        },
        {
            "doubleSided" : true,
            "name" : "main",
            "pbrMetallicRoughness" : {
                "baseColorFactor" : [
                    0.8000000715255737,
                    0.16832153499126434,
                    0.16832153499126434,
                    1
                ],
                "metallicFactor" : 0,
                "roughnessFactor" : 0.5
            }
        }
    ],
    "meshes" : [
        {
            "name" : "Cylinder",
            "primitives" : [
                {
                    "attributes" : {
                        "POSITION" : 0,
                        "NORMAL" : 1,
                        "TEXCOORD_0" : 2
                    },
                    "indices" : 3,
                    "material" : 0
                },
                {
                    "attributes" : {
                        "POSITION" : 4,
                        "NORMAL" : 5,
                        "TEXCOORD_0" : 6
                    },
                    "indices" : 7,
                    "material" : 1
                }
            ]
        },
        {
            "name" : "Nawang",
            "primitives" : [
                {
                    "attributes" : {
                        "POSITION" : 8,
                        "NORMAL" : 9
                    },
                    "indices" : 10,
                    "material" : 1
                }
            ]
        }
    ],
    "accessors" : [
        {
            "bufferView" : 0,
            "componentType" : 5126,
            "count" : 693,
            "max" : [
                0.9945219159126282,
                6.609736919403076,
                1
            ],
            "min" : [
                -0.994521975517273,
                3.918461799621582,
                -1
            ],
            "type" : "VEC3"
        },
        {
            "bufferView" : 1,
            "componentType" : 5126,
            "count" : 693,
            "type" : "VEC3"
        },
        {
            "bufferView" : 2,
            "componentType" : 5126,
            "count" : 693,
            "type" : "VEC2"
        },
        {
            "bufferView" : 3,
            "componentType" : 5123,
            "count" : 1137,
            "type" : "SCALAR"
        },
        {
            "bufferView" : 4,
            "componentType" : 5126,
            "count" : 971,
            "max" : [
                0.9945219159126282,
                7.230844497680664,
                1
            ],
            "min" : [
                -0.994521975517273,
                -1.318374514579773,
                -1
            ],
            "type" : "VEC3"
        },
        {
            "bufferView" : 5,
            "componentType" : 5126,
            "count" : 971,
            "type" : "VEC3"
        },
        {
            "bufferView" : 6,
            "componentType" : 5126,
            "count" : 971,
            "type" : "VEC2"
        },
        {
            "bufferView" : 7,
            "componentType" : 5123,
            "count" : 1731,
            "type" : "SCALAR"
        },
        {
            "bufferView" : 8,
            "componentType" : 5126,
            "count" : 4082,
            "max" : [
                3.2329113483428955,
                0.029999999329447746,
                0.18143460154533386
            ],
            "min" : [
                0.03291139379143715,
                -0.029999999329447746,
                -0.6291139125823975
            ],
            "type" : "VEC3"
        },
        {
            "bufferView" : 9,
            "componentType" : 5126,
            "count" : 4082,
            "type" : "VEC3"
        },
        {
            "bufferView" : 10,
            "componentType" : 5123,
            "count" : 24468,
            "type" : "SCALAR"
        }
    ],
    "bufferViews" : [
        {
            "buffer" : 0,
            "byteLength" : 8316,
            "byteOffset" : 0
        },
        {
            "buffer" : 0,
            "byteLength" : 8316,
            "byteOffset" : 8316
        },
        {
            "buffer" : 0,
            "byteLength" : 5544,
            "byteOffset" : 16632
        },
        {
            "buffer" : 0,
            "byteLength" : 2274,
            "byteOffset" : 22176
        },
        {
            "buffer" : 0,
            "byteLength" : 11652,
            "byteOffset" : 24452
        },
        {
            "buffer" : 0,
            "byteLength" : 11652,
            "byteOffset" : 36104
        },
        {
            "buffer" : 0,
            "byteLength" : 7768,
            "byteOffset" : 47756
        },
        {
            "buffer" : 0,
            "byteLength" : 3462,
            "byteOffset" : 55524
        },
        {
            "buffer" : 0,
            "byteLength" : 48984,
            "byteOffset" : 58988
        },
        {
            "buffer" : 0,
            "byteLength" : 48984,
            "byteOffset" : 107972
        },
        {
            "buffer" : 0,
            "byteLength" : 48936,
            "byteOffset" : 156956
        }
    ],
    "buffers" : [
        {
            "byteLength" : 205892,
            "uri" : "data:application/octet-stream;base64,"
        }
    ]
}
