{
    "asset" : {
        "generator" : "Khronos glTF Blender I/O v1.0.5",
        "version" : "2.0"
    },
    "scene" : 0,
    "scenes" : [
        {
            "name" : "Scene",
            "nodes" : [
                0,
                1,
                2,
                3,
                4,
                5,
                6
            ]
        }
    ],
    "nodes" : [
        {
            "mesh" : 0,
            "name" : "Cube",
            "scale" : [
                1,
                2.200000047683716,
                1.100000023841858
            ],
            "translation" : [
                -3.8897576332092285,
                2.1268301010131836,
                0
            ]
        },
        {
            "name" : "Light",
            "rotation" : [
                0.08102904260158539,
                0.7703090310096741,
                -0.20470765233039856,
                0.5984589457511902
            ],
            "translation" : [
                0.7597389221191406,
                17.857498168945312,
                -1.0054539442062378
            ]
        },
        {
            "name" : "Camera",
            "rotation" : [
                0.483536034822464,
                0.33687159419059753,
                -0.20870360732078552,
                0.7804827094078064
            ],
            "translation" : [
                7.358891487121582,
                4.958309173583984,
                6.925790786743164
            ]
        },
        {
            "mesh" : 1,
            "name" : "Cube.001",
            "scale" : [
                0.06000000238418579,
                2.200000047683716,
                1.100000023841858
            ],
            "translation" : [
                -2.848961114883423,
                2.1268301010131836,
                0
            ]
        },
        {
            "mesh" : 2,
            "name" : "Cube.002",
            "scale" : [
                0.8600000143051147,
                0.04000002145767212,
                1.0499999523162842
            ],
            "translation" : [
                -3.862793207168579,
                3.1685800552368164,
                0.012110143899917603
            ]
        },
        {
            "mesh" : 3,
            "name" : "Cube.003",
            "scale" : [
                0.8600000143051147,
                0.04000002145767212,
                1.0499999523162842
            ],
            "translation" : [
                -3.862793207168579,
                0.888581395149231,
                0.012110143899917603
            ]
        },
        {
            "mesh" : 4,
            "name" : "Cube.004",
            "scale" : [
                0.8600000143051147,
                0.04000002145767212,
                1.0499999523162842
            ],
            "translation" : [
                -3.862793207168579,
                2.068579912185669,
                0.012110143899917603
            ]
        }
    ],
    "materials" : [
        {
            "doubleSided" : true,
            "name" : "Material.003",
            "pbrMetallicRoughness" : {}
        },
        {
            "doubleSided" : true,
            "name" : "Material.004",
            "pbrMetallicRoughness" : {}
        },
        {
            "doubleSided" : true,
            "name" : "Material.002",
            "pbrMetallicRoughness" : {
                "baseColorFactor" : [
                    0,
                    0,
                    0,
                    1
                ],
                "metallicFactor" : 0,
                "roughnessFactor" : 0.5
            }
        },
        {
            "alphaMode" : "BLEND",
            "doubleSided" : true,
            "name" : "Material.001",
            "pbrMetallicRoughness" : {}
        }
    ],
    "meshes" : [
        {
            "name" : "Cube",
            "primitives" : [
                {
                    "attributes" : {
                        "POSITION" : 0,
                        "NORMAL" : 1,
                        "TEXCOORD_0" : 2
                    },
                    "indices" : 3,
                    "material" : 0
                },
                {
                    "attributes" : {
                        "POSITION" : 4,
                        "NORMAL" : 5,
                        "TEXCOORD_0" : 6
                    },
                    "indices" : 7,
                    "material" : 1
                }
            ]
        },
        {
            "name" : "Cube.001",
            "primitives" : [
                {
                    "attributes" : {
                        "POSITION" : 8,
                        "NORMAL" : 9,
                        "TEXCOORD_0" : 10
                    },
                    "indices" : 11,
                    "material" : 2
                },
                {
                    "attributes" : {
                        "POSITION" : 12,
                        "NORMAL" : 13,
                        "TEXCOORD_0" : 14
                    },
                    "indices" : 15,
                    "material" : 3
                },
                {
                    "attributes" : {
                        "POSITION" : 16,
                        "NORMAL" : 17,
                        "TEXCOORD_0" : 18
                    },
                    "indices" : 19
                }
            ]
        },
        {
            "name" : "Cube.002",
            "primitives" : [
                {
                    "attributes" : {
                        "POSITION" : 20,
                        "NORMAL" : 21,
                        "TEXCOORD_0" : 22
                    },
                    "indices" : 23
                }
            ]
        },
        {
            "name" : "Cube.003",
            "primitives" : [
                {
                    "attributes" : {
                        "POSITION" : 24,
                        "NORMAL" : 25,
                        "TEXCOORD_0" : 26
                    },
                    "indices" : 23
                }
            ]
        },
        {
            "name" : "Cube.004",
            "primitives" : [
                {
                    "attributes" : {
                        "POSITION" : 27,
                        "NORMAL" : 28,
                        "TEXCOORD_0" : 29
                    },
                    "indices" : 23
                }
            ]
        }
    ],
    "accessors" : [
        {
            "bufferView" : 0,
            "componentType" : 5126,
            "count" : 36,
            "max" : [
                1,
                1,
                1
            ],
            "min" : [
                -0.8446005582809448,
                -1,
                -1
            ],
            "type" : "VEC3"
        },
        {
            "bufferView" : 1,
            "componentType" : 5126,
            "count" : 36,
            "type" : "VEC3"
        },
        {
            "bufferView" : 2,
            "componentType" : 5126,
            "count" : 36,
            "type" : "VEC2"
        },
        {
            "bufferView" : 3,
            "componentType" : 5123,
            "count" : 54,
            "type" : "SCALAR"
        },
        {
            "bufferView" : 4,
            "componentType" : 5126,
            "count" : 20,
            "max" : [
                1,
                1,
                1
            ],
            "min" : [
                -1,
                -1,
                -1
            ],
            "type" : "VEC3"
        },
        {
            "bufferView" : 5,
            "componentType" : 5126,
            "count" : 20,
            "type" : "VEC3"
        },
        {
            "bufferView" : 6,
            "componentType" : 5126,
            "count" : 20,
            "type" : "VEC2"
        },
        {
            "bufferView" : 7,
            "componentType" : 5123,
            "count" : 30,
            "type" : "SCALAR"
        },
        {
            "bufferView" : 8,
            "componentType" : 5126,
            "count" : 48,
            "max" : [
                1,
                1,
                1
            ],
            "min" : [
                -1,
                -1,
                -1
            ],
            "type" : "VEC3"
        },
        {
            "bufferView" : 9,
            "componentType" : 5126,
            "count" : 48,
            "type" : "VEC3"
        },
        {
            "bufferView" : 10,
            "componentType" : 5126,
            "count" : 48,
            "type" : "VEC2"
        },
        {
            "bufferView" : 11,
            "componentType" : 5123,
            "count" : 72,
            "type" : "SCALAR"
        },
        {
            "bufferView" : 12,
            "componentType" : 5126,
            "count" : 30,
            "max" : [
                1,
                1,
                1
            ],
            "min" : [
                -1,
                -1,
                -1
            ],
            "type" : "VEC3"
        },
        {
            "bufferView" : 13,
            "componentType" : 5126,
            "count" : 30,
            "type" : "VEC3"
        },
        {
            "bufferView" : 14,
            "componentType" : 5126,
            "count" : 30,
            "type" : "VEC2"
        },
        {
            "bufferView" : 15,
            "componentType" : 5123,
            "count" : 48,
            "type" : "SCALAR"
        },
        {
            "bufferView" : 16,
            "componentType" : 5126,
            "count" : 8,
            "max" : [
                0.259762167930603,
                0.8220727443695068,
                0.8220727443695068
            ],
            "min" : [
                0.13090777397155762,
                -0.8220727443695068,
                -0.8220727443695068
            ],
            "type" : "VEC3"
        },
        {
            "bufferView" : 17,
            "componentType" : 5126,
            "count" : 8,
            "type" : "VEC3"
        },
        {
            "bufferView" : 18,
            "componentType" : 5126,
            "count" : 8,
            "type" : "VEC2"
        },
        {
            "bufferView" : 19,
            "componentType" : 5123,
            "count" : 12,
            "type" : "SCALAR"
        },
        {
            "bufferView" : 20,
            "componentType" : 5126,
            "count" : 24,
            "max" : [
                1,
                1,
                1
            ],
            "min" : [
                -1,
                -1,
                -1
            ],
            "type" : "VEC3"
        },
        {
            "bufferView" : 21,
            "componentType" : 5126,
            "count" : 24,
            "type" : "VEC3"
        },
        {
            "bufferView" : 22,
            "componentType" : 5126,
            "count" : 24,
            "type" : "VEC2"
        },
        {
            "bufferView" : 23,
            "componentType" : 5123,
            "count" : 36,
            "type" : "SCALAR"
        },
        {
            "bufferView" : 24,
            "componentType" : 5126,
            "count" : 24,
            "max" : [
                1,
                1,
                1
            ],
            "min" : [
                -1,
                -1,
                -1
            ],
            "type" : "VEC3"
        },
        {
            "bufferView" : 25,
            "componentType" : 5126,
            "count" : 24,
            "type" : "VEC3"
        },
        {
            "bufferView" : 26,
            "componentType" : 5126,
            "count" : 24,
            "type" : "VEC2"
        },
        {
            "bufferView" : 27,
            "componentType" : 5126,
            "count" : 24,
            "max" : [
                1,
                1,
                1
            ],
            "min" : [
                -1,
                -1,
                -1
            ],
            "type" : "VEC3"
        },
        {
            "bufferView" : 28,
            "componentType" : 5126,
            "count" : 24,
            "type" : "VEC3"
        },
        {
            "bufferView" : 29,
            "componentType" : 5126,
            "count" : 24,
            "type" : "VEC2"
        }
    ],
    "bufferViews" : [
        {
            "buffer" : 0,
            "byteLength" : 432,
            "byteOffset" : 0
        },
        {
            "buffer" : 0,
            "byteLength" : 432,
            "byteOffset" : 432
        },
        {
            "buffer" : 0,
            "byteLength" : 288,
            "byteOffset" : 864
        },
        {
            "buffer" : 0,
            "byteLength" : 108,
            "byteOffset" : 1152
        },
        {
            "buffer" : 0,
            "byteLength" : 240,
            "byteOffset" : 1260
        },
        {
            "buffer" : 0,
            "byteLength" : 240,
            "byteOffset" : 1500
        },
        {
            "buffer" : 0,
            "byteLength" : 160,
            "byteOffset" : 1740
        },
        {
            "buffer" : 0,
            "byteLength" : 60,
            "byteOffset" : 1900
        },
        {
            "buffer" : 0,
            "byteLength" : 576,
            "byteOffset" : 1960
        },
        {
            "buffer" : 0,
            "byteLength" : 576,
            "byteOffset" : 2536
        },
        {
            "buffer" : 0,
            "byteLength" : 384,
            "byteOffset" : 3112
        },
        {
            "buffer" : 0,
            "byteLength" : 144,
            "byteOffset" : 3496
        },
        {
            "buffer" : 0,
            "byteLength" : 360,
            "byteOffset" : 3640
        },
        {
            "buffer" : 0,
            "byteLength" : 360,
            "byteOffset" : 4000
        },
        {
            "buffer" : 0,
            "byteLength" : 240,
            "byteOffset" : 4360
        },
        {
            "buffer" : 0,
            "byteLength" : 96,
            "byteOffset" : 4600
        },
        {
            "buffer" : 0,
            "byteLength" : 96,
            "byteOffset" : 4696
        },
        {
            "buffer" : 0,
            "byteLength" : 96,
            "byteOffset" : 4792
        },
        {
            "buffer" : 0,
            "byteLength" : 64,
            "byteOffset" : 4888
        },
        {
            "buffer" : 0,
            "byteLength" : 24,
            "byteOffset" : 4952
        },
        {
            "buffer" : 0,
            "byteLength" : 288,
            "byteOffset" : 4976
        },
        {
            "buffer" : 0,
            "byteLength" : 288,
            "byteOffset" : 5264
        },
        {
            "buffer" : 0,
            "byteLength" : 192,
            "byteOffset" : 5552
        },
        {
            "buffer" : 0,
            "byteLength" : 72,
            "byteOffset" : 5744
        },
        {
            "buffer" : 0,
            "byteLength" : 288,
            "byteOffset" : 5816
        },
        {
            "buffer" : 0,
            "byteLength" : 288,
            "byteOffset" : 6104
        },
        {
            "buffer" : 0,
            "byteLength" : 192,
            "byteOffset" : 6392
        },
        {
            "buffer" : 0,
            "byteLength" : 288,
            "byteOffset" : 6584
        },
        {
            "buffer" : 0,
            "byteLength" : 288,
            "byteOffset" : 6872
        },
        {
            "buffer" : 0,
            "byteLength" : 192,
            "byteOffset" : 7160
        }
    ],
    "buffers" : [
        {
            "byteLength" : 7352,
            "uri" : "data:application/octet-stream;base64,"
        }
    ]
}
