{
    "asset" : {
        "generator" : "Khronos glTF Blender I/O v0.9.36",
        "version" : "2.0"
    },
    "scene" : 0,
    "scenes" : [
        {
            "name" : "Scene",
            "nodes" : [
                0,
                1,
                2,
                3,
                4,
                5,
                6,
                7,
                8,
                9,
                10,
                11
            ]
        }
    ],
    "nodes" : [
        {
            "name" : "Light",
            "rotation" : [
                0.16907575726509094,
                0.7558803558349609,
                -0.27217137813568115,
                0.570947527885437
            ],
            "translation" : [
                -0.31093883514404297,
                8.05899429321289,
                -1.8888626098632812
            ]
        },
        {
            "name" : "Camera",
            "rotation" : [
                0.483536034822464,
                0.33687159419059753,
                -0.20870360732078552,
                0.7804827094078064
            ],
            "translation" : [
                7.358891487121582,
                4.958309173583984,
                6.925790786743164
            ]
        },
        {
            "mesh" : 0,
            "name" : "Cube",
            "scale" : [
                0.1350419968366623,
                2.484103202819824,
                1.190368890762329
            ]
        },
        {
            "mesh" : 1,
            "name" : "Cube.001",
            "scale" : [
                -0.011979848146438599,
                0.5180201530456543,
                0.4880201518535614
            ],
            "translation" : [
                0.14223423600196838,
                1.8633111715316772,
                0.624573826789856
            ]
        },
        {
            "mesh" : 2,
            "name" : "Cylinder",
            "rotation" : [
                0,
                0,
                -0.7071067690849304,
                0.7071067690849304
            ],
            "scale" : [
                0.2204575091600418,
                0.010457515716552734,
                0.2204575091600418
            ],
            "translation" : [
                0.16439831256866455,
                2.1300578117370605,
                0.8513901233673096
            ]
        },
        {
            "mesh" : 3,
            "name" : "Cylinder.001",
            "rotation" : [
                0,
                0,
                -0.7071067690849304,
                0.7071067690849304
            ],
            "scale" : [
                0.2204575091600418,
                0.010457515716552734,
                0.2204575091600418
            ],
            "translation" : [
                0.16439831256866455,
                1.6003566980361938,
                0.8513901233673096
            ]
        },
        {
            "mesh" : 4,
            "name" : "Cylinder.002",
            "rotation" : [
                0,
                0,
                -0.7071067690849304,
                0.7071067690849304
            ],
            "scale" : [
                0.2204575091600418,
                0.010457515716552734,
                0.2204575091600418
            ],
            "translation" : [
                0.16439831256866455,
                1.8641083240509033,
                0.39861658215522766
            ]
        },
        {
            "mesh" : 5,
            "name" : "Cube.002",
            "scale" : [
                0.1050419956445694,
                0.28962212800979614,
                0.06962211430072784
            ],
            "translation" : [
                0,
                0.9448055028915405,
                1.1620547771453857
            ]
        },
        {
            "mesh" : 6,
            "name" : "Cube.003",
            "scale" : [
                0.1050419956445694,
                0.18962213397026062,
                0.06962211430072784
            ],
            "translation" : [
                0,
                1.1863600015640259,
                -1.1577801704406738
            ]
        },
        {
            "mesh" : 7,
            "name" : "Cube.004",
            "scale" : [
                0.1050419956445694,
                0.18962213397026062,
                0.06962211430072784
            ],
            "translation" : [
                0,
                0.6986932158470154,
                -1.1577801704406738
            ]
        },
        {
            "mesh" : 8,
            "name" : "screen",
            "rotation" : [
                0.5000000596046448,
                -0.4999999403953552,
                0.4999999701976776,
                0.5000000596046448
            ],
            "scale" : [
                4.785372734069824,
                4.785372734069824,
                4.785372734069824
            ],
            "translation" : [
                -0.1354370415210724,
                0,
                0
            ]
        },
        {
            "mesh" : 9,
            "name" : "apple logo",
            "rotation" : [
                0.5,
                0.5,
                -0.5,
                0.4999999701976776
            ],
            "scale" : [
                0.5287938117980957,
                0.5287938117980957,
                0.5287938117980957
            ],
            "translation" : [
                0.13511566817760468,
                0.945929229259491,
                0
            ]
        }
    ],
    "materials" : [
        {
            "doubleSided" : true,
            "name" : "Material.001",
            "pbrMetallicRoughness" : {
                "baseColorFactor" : [
                    0.0003035266709048301,
                    0.0003035266709048301,
                    0.0003035266709048301,
                    1
                ],
                "metallicFactor" : 0,
                "roughnessFactor" : 0.5
            }
        },
        {
            "doubleSided" : true,
            "name" : "Material",
            "pbrMetallicRoughness" : {
                "baseColorFactor" : [
                    0.0677986815571785,
                    0.060773879289627075,
                    0.06599938869476318,
                    1
                ],
                "metallicFactor" : 0,
                "roughnessFactor" : 0.5
            }
        },
        {
            "doubleSided" : true,
            "name" : "screen",
            "pbrMetallicRoughness" : {}
        },
        {
            "alphaMode" : "BLEND",
            "doubleSided" : true,
            "name" : "apple logo",
            "pbrMetallicRoughness" : {}
        }
    ],
    "meshes" : [
        {
            "name" : "Cube.001",
            "primitives" : [
                {
                    "attributes" : {
                        "POSITION" : 0,
                        "NORMAL" : 1,
                        "TEXCOORD_0" : 2
                    },
                    "indices" : 3,
                    "material" : 0
                }
            ]
        },
        {
            "name" : "Cube.002",
            "primitives" : [
                {
                    "attributes" : {
                        "POSITION" : 4,
                        "NORMAL" : 5,
                        "TEXCOORD_0" : 6
                    },
                    "indices" : 7,
                    "material" : 0
                }
            ]
        },
        {
            "name" : "Cylinder",
            "primitives" : [
                {
                    "attributes" : {
                        "POSITION" : 8,
                        "NORMAL" : 9,
                        "TEXCOORD_0" : 10
                    },
                    "indices" : 11,
                    "material" : 1
                }
            ]
        },
        {
            "name" : "Cylinder.001",
            "primitives" : [
                {
                    "attributes" : {
                        "POSITION" : 12,
                        "NORMAL" : 13,
                        "TEXCOORD_0" : 14
                    },
                    "indices" : 11,
                    "material" : 1
                }
            ]
        },
        {
            "name" : "Cylinder.002",
            "primitives" : [
                {
                    "attributes" : {
                        "POSITION" : 15,
                        "NORMAL" : 16,
                        "TEXCOORD_0" : 17
                    },
                    "indices" : 11,
                    "material" : 1
                }
            ]
        },
        {
            "name" : "Cube.004",
            "primitives" : [
                {
                    "attributes" : {
                        "POSITION" : 18,
                        "NORMAL" : 19,
                        "TEXCOORD_0" : 20
                    },
                    "indices" : 21,
                    "material" : 0
                }
            ]
        },
        {
            "name" : "Cube.005",
            "primitives" : [
                {
                    "attributes" : {
                        "POSITION" : 22,
                        "NORMAL" : 23,
                        "TEXCOORD_0" : 24
                    },
                    "indices" : 21,
                    "material" : 0
                }
            ]
        },
        {
            "name" : "Cube.006",
            "primitives" : [
                {
                    "attributes" : {
                        "POSITION" : 25,
                        "NORMAL" : 26,
                        "TEXCOORD_0" : 27
                    },
                    "indices" : 21,
                    "material" : 0
                }
            ]
        },
        {
            "name" : "screen",
            "primitives" : [
                {
                    "attributes" : {
                        "POSITION" : 28,
                        "NORMAL" : 29,
                        "TEXCOORD_0" : 30
                    },
                    "indices" : 31,
                    "material" : 2
                }
            ]
        },
        {
            "name" : "apple logo",
            "primitives" : [
                {
                    "attributes" : {
                        "POSITION" : 32,
                        "NORMAL" : 33,
                        "TEXCOORD_0" : 34
                    },
                    "indices" : 35,
                    "material" : 3
                }
            ]
        }
    ],
    "accessors" : [
        {
            "bufferView" : 0,
            "componentType" : 5126,
            "count" : 504,
            "max" : [
                1,
                1,
                1
            ],
            "min" : [
                -1,
                -1,
                -1
            ],
            "type" : "VEC3"
        },
        {
            "bufferView" : 1,
            "componentType" : 5126,
            "count" : 504,
            "type" : "VEC3"
        },
        {
            "bufferView" : 2,
            "componentType" : 5126,
            "count" : 504,
            "type" : "VEC2"
        },
        {
            "bufferView" : 3,
            "componentType" : 5123,
            "count" : 756,
            "type" : "SCALAR"
        },
        {
            "bufferView" : 4,
            "componentType" : 5126,
            "count" : 1176,
            "max" : [
                1,
                1,
                1
            ],
            "min" : [
                -1,
                -1,
                -1
            ],
            "type" : "VEC3"
        },
        {
            "bufferView" : 5,
            "componentType" : 5126,
            "count" : 1176,
            "type" : "VEC3"
        },
        {
            "bufferView" : 6,
            "componentType" : 5126,
            "count" : 1176,
            "type" : "VEC2"
        },
        {
            "bufferView" : 7,
            "componentType" : 5123,
            "count" : 1764,
            "type" : "SCALAR"
        },
        {
            "bufferView" : 8,
            "componentType" : 5126,
            "count" : 640,
            "max" : [
                1,
                1,
                1
            ],
            "min" : [
                -1,
                -1,
                -1
            ],
            "type" : "VEC3"
        },
        {
            "bufferView" : 9,
            "componentType" : 5126,
            "count" : 640,
            "type" : "VEC3"
        },
        {
            "bufferView" : 10,
            "componentType" : 5126,
            "count" : 640,
            "type" : "VEC2"
        },
        {
            "bufferView" : 11,
            "componentType" : 5123,
            "count" : 1140,
            "type" : "SCALAR"
        },
        {
            "bufferView" : 12,
            "componentType" : 5126,
            "count" : 640,
            "max" : [
                1,
                1,
                1
            ],
            "min" : [
                -1,
                -1,
                -1
            ],
            "type" : "VEC3"
        },
        {
            "bufferView" : 13,
            "componentType" : 5126,
            "count" : 640,
            "type" : "VEC3"
        },
        {
            "bufferView" : 14,
            "componentType" : 5126,
            "count" : 640,
            "type" : "VEC2"
        },
        {
            "bufferView" : 15,
            "componentType" : 5126,
            "count" : 640,
            "max" : [
                1,
                1,
                1
            ],
            "min" : [
                -1,
                -1,
                -1
            ],
            "type" : "VEC3"
        },
        {
            "bufferView" : 16,
            "componentType" : 5126,
            "count" : 640,
            "type" : "VEC3"
        },
        {
            "bufferView" : 17,
            "componentType" : 5126,
            "count" : 640,
            "type" : "VEC2"
        },
        {
            "bufferView" : 18,
            "componentType" : 5126,
            "count" : 24,
            "max" : [
                1,
                1,
                1
            ],
            "min" : [
                -1,
                -1,
                -1
            ],
            "type" : "VEC3"
        },
        {
            "bufferView" : 19,
            "componentType" : 5126,
            "count" : 24,
            "type" : "VEC3"
        },
        {
            "bufferView" : 20,
            "componentType" : 5126,
            "count" : 24,
            "type" : "VEC2"
        },
        {
            "bufferView" : 21,
            "componentType" : 5123,
            "count" : 36,
            "type" : "SCALAR"
        },
        {
            "bufferView" : 22,
            "componentType" : 5126,
            "count" : 24,
            "max" : [
                1,
                1,
                1
            ],
            "min" : [
                -1,
                -1,
                -1
            ],
            "type" : "VEC3"
        },
        {
            "bufferView" : 23,
            "componentType" : 5126,
            "count" : 24,
            "type" : "VEC3"
        },
        {
            "bufferView" : 24,
            "componentType" : 5126,
            "count" : 24,
            "type" : "VEC2"
        },
        {
            "bufferView" : 25,
            "componentType" : 5126,
            "count" : 24,
            "max" : [
                1,
                1,
                1
            ],
            "min" : [
                -1,
                -1,
                -1
            ],
            "type" : "VEC3"
        },
        {
            "bufferView" : 26,
            "componentType" : 5126,
            "count" : 24,
            "type" : "VEC3"
        },
        {
            "bufferView" : 27,
            "componentType" : 5126,
            "count" : 24,
            "type" : "VEC2"
        },
        {
            "bufferView" : 28,
            "componentType" : 5126,
            "count" : 289,
            "max" : [
                0.23095722496509552,
                0.0006457940326072276,
                0.5077147483825684
            ],
            "min" : [
                -0.23095744848251343,
                0.0006456934497691691,
                -0.5077142119407654
            ],
            "type" : "VEC3"
        },
        {
            "bufferView" : 29,
            "componentType" : 5126,
            "count" : 289,
            "type" : "VEC3"
        },
        {
            "bufferView" : 30,
            "componentType" : 5126,
            "count" : 289,
            "type" : "VEC2"
        },
        {
            "bufferView" : 31,
            "componentType" : 5123,
            "count" : 1536,
            "type" : "SCALAR"
        },
        {
            "bufferView" : 32,
            "componentType" : 5126,
            "count" : 289,
            "max" : [
                0.43078699707984924,
                0.0012768059968948364,
                0.5000065565109253
            ],
            "min" : [
                -0.4307875633239746,
                0.001276746392250061,
                -0.5000065565109253
            ],
            "type" : "VEC3"
        },
        {
            "bufferView" : 33,
            "componentType" : 5126,
            "count" : 289,
            "type" : "VEC3"
        },
        {
            "bufferView" : 34,
            "componentType" : 5126,
            "count" : 289,
            "type" : "VEC2"
        },
        {
            "bufferView" : 35,
            "componentType" : 5123,
            "count" : 1536,
            "type" : "SCALAR"
        }
    ],
    "bufferViews" : [
        {
            "buffer" : 0,
            "byteLength" : 6048,
            "byteOffset" : 0
        },
        {
            "buffer" : 0,
            "byteLength" : 6048,
            "byteOffset" : 6048
        },
        {
            "buffer" : 0,
            "byteLength" : 4032,
            "byteOffset" : 12096
        },
        {
            "buffer" : 0,
            "byteLength" : 1512,
            "byteOffset" : 16128
        },
        {
            "buffer" : 0,
            "byteLength" : 14112,
            "byteOffset" : 17640
        },
        {
            "buffer" : 0,
            "byteLength" : 14112,
            "byteOffset" : 31752
        },
        {
            "buffer" : 0,
            "byteLength" : 9408,
            "byteOffset" : 45864
        },
        {
            "buffer" : 0,
            "byteLength" : 3528,
            "byteOffset" : 55272
        },
        {
            "buffer" : 0,
            "byteLength" : 7680,
            "byteOffset" : 58800
        },
        {
            "buffer" : 0,
            "byteLength" : 7680,
            "byteOffset" : 66480
        },
        {
            "buffer" : 0,
            "byteLength" : 5120,
            "byteOffset" : 74160
        },
        {
            "buffer" : 0,
            "byteLength" : 2280,
            "byteOffset" : 79280
        },
        {
            "buffer" : 0,
            "byteLength" : 7680,
            "byteOffset" : 81560
        },
        {
            "buffer" : 0,
            "byteLength" : 7680,
            "byteOffset" : 89240
        },
        {
            "buffer" : 0,
            "byteLength" : 5120,
            "byteOffset" : 96920
        },
        {
            "buffer" : 0,
            "byteLength" : 7680,
            "byteOffset" : 102040
        },
        {
            "buffer" : 0,
            "byteLength" : 7680,
            "byteOffset" : 109720
        },
        {
            "buffer" : 0,
            "byteLength" : 5120,
            "byteOffset" : 117400
        },
        {
            "buffer" : 0,
            "byteLength" : 288,
            "byteOffset" : 122520
        },
        {
            "buffer" : 0,
            "byteLength" : 288,
            "byteOffset" : 122808
        },
        {
            "buffer" : 0,
            "byteLength" : 192,
            "byteOffset" : 123096
        },
        {
            "buffer" : 0,
            "byteLength" : 72,
            "byteOffset" : 123288
        },
        {
            "buffer" : 0,
            "byteLength" : 288,
            "byteOffset" : 123360
        },
        {
            "buffer" : 0,
            "byteLength" : 288,
            "byteOffset" : 123648
        },
        {
            "buffer" : 0,
            "byteLength" : 192,
            "byteOffset" : 123936
        },
        {
            "buffer" : 0,
            "byteLength" : 288,
            "byteOffset" : 124128
        },
        {
            "buffer" : 0,
            "byteLength" : 288,
            "byteOffset" : 124416
        },
        {
            "buffer" : 0,
            "byteLength" : 192,
            "byteOffset" : 124704
        },
        {
            "buffer" : 0,
            "byteLength" : 3468,
            "byteOffset" : 124896
        },
        {
            "buffer" : 0,
            "byteLength" : 3468,
            "byteOffset" : 128364
        },
        {
            "buffer" : 0,
            "byteLength" : 2312,
            "byteOffset" : 131832
        },
        {
            "buffer" : 0,
            "byteLength" : 3072,
            "byteOffset" : 134144
        },
        {
            "buffer" : 0,
            "byteLength" : 3468,
            "byteOffset" : 137216
        },
        {
            "buffer" : 0,
            "byteLength" : 3468,
            "byteOffset" : 140684
        },
        {
            "buffer" : 0,
            "byteLength" : 2312,
            "byteOffset" : 144152
        },
        {
            "buffer" : 0,
            "byteLength" : 3072,
            "byteOffset" : 146464
        }
    ],
    "buffers" : [
        {
            "byteLength" : 149536,
            "uri" : "data:application/octet-stream;base64,"
        }
    ]
}
