{
    "asset" : {
        "generator" : "Khronos glTF Blender I/O v0.9.36",
        "version" : "2.0"
    },
    "scene" : 0,
    "scenes" : [
        {
            "name" : "Scene",
            "nodes" : [
                0,
                1,
                2,
                3,
                4
            ]
        }
    ],
    "nodes" : [
        {
            "mesh" : 0,
            "name" : "Cube",
            "rotation" : [
                0,
                0.0915016159415245,
                0,
                0.9958049058914185
            ],
            "translation" : [
                0,
                1,
                0
            ]
        },
        {
            "name" : "Light",
            "rotation" : [
                0.16907575726509094,
                0.7558803558349609,
                -0.27217137813568115,
                0.570947527885437
            ],
            "translation" : [
                4.076245307922363,
                5.903861999511719,
                -1.0054539442062378
            ]
        },
        {
            "name" : "Camera",
            "rotation" : [
                0.483536034822464,
                0.33687159419059753,
                -0.20870360732078552,
                0.7804827094078064
            ],
            "translation" : [
                7.358891487121582,
                4.958309173583984,
                6.925790786743164
            ]
        },
        {
            "name" : "Circle",
            "scale" : [
                0.5675446391105652,
                0.5675446391105652,
                0.5675446391105652
            ]
        },
        {
            "mesh" : 1,
            "name" : "Cylinder",
            "scale" : [
                1.2135114669799805,
                0.03839925304055214,
                1.2135114669799805
            ]
        }
    ],
    "materials" : [
        {
            "doubleSided" : true,
            "name" : "Material",
            "pbrMetallicRoughness" : {
                "baseColorFactor" : [
                    0.800000011920929,
                    0.800000011920929,
                    0.800000011920929,
                    1
                ],
                "metallicFactor" : 0,
                "roughnessFactor" : 0.4000000059604645
            }
        }
    ],
    "meshes" : [
        {
            "name" : "Cube",
            "primitives" : [
                {
                    "attributes" : {
                        "POSITION" : 0,
                        "NORMAL" : 1,
                        "TEXCOORD_0" : 2
                    },
                    "indices" : 3,
                    "material" : 0
                }
            ]
        },
        {
            "name" : "Cylinder.001",
            "primitives" : [
                {
                    "attributes" : {
                        "POSITION" : 4,
                        "NORMAL" : 5,
                        "TEXCOORD_0" : 6
                    },
                    "indices" : 7,
                    "material" : 0
                }
            ]
        }
    ],
    "accessors" : [
        {
            "bufferView" : 0,
            "componentType" : 5126,
            "count" : 11825,
            "max" : [
                0.8907253742218018,
                1.0032358169555664,
                0.8907253742218018
            ],
            "min" : [
                -0.8907253742218018,
                -0.9971518516540527,
                -1.3967543840408325
            ],
            "type" : "VEC3"
        },
        {
            "bufferView" : 1,
            "componentType" : 5126,
            "count" : 11825,
            "type" : "VEC3"
        },
        {
            "bufferView" : 2,
            "componentType" : 5126,
            "count" : 11825,
            "type" : "VEC2"
        },
        {
            "bufferView" : 3,
            "componentType" : 5123,
            "count" : 61248,
            "type" : "SCALAR"
        },
        {
            "bufferView" : 4,
            "componentType" : 5126,
            "count" : 576,
            "max" : [
                1,
                1,
                1
            ],
            "min" : [
                -1,
                -1,
                -1
            ],
            "type" : "VEC3"
        },
        {
            "bufferView" : 5,
            "componentType" : 5126,
            "count" : 576,
            "type" : "VEC3"
        },
        {
            "bufferView" : 6,
            "componentType" : 5126,
            "count" : 576,
            "type" : "VEC2"
        },
        {
            "bufferView" : 7,
            "componentType" : 5123,
            "count" : 948,
            "type" : "SCALAR"
        }
    ],
    "bufferViews" : [
        {
            "buffer" : 0,
            "byteLength" : 141900,
            "byteOffset" : 0
        },
        {
            "buffer" : 0,
            "byteLength" : 141900,
            "byteOffset" : 141900
        },
        {
            "buffer" : 0,
            "byteLength" : 94600,
            "byteOffset" : 283800
        },
        {
            "buffer" : 0,
            "byteLength" : 122496,
            "byteOffset" : 378400
        },
        {
            "buffer" : 0,
            "byteLength" : 6912,
            "byteOffset" : 500896
        },
        {
            "buffer" : 0,
            "byteLength" : 6912,
            "byteOffset" : 507808
        },
        {
            "buffer" : 0,
            "byteLength" : 4608,
            "byteOffset" : 514720
        },
        {
            "buffer" : 0,
            "byteLength" : 1896,
            "byteOffset" : 519328
        }
    ],
    "buffers" : [
        {
            "byteLength" : 521224,
            "uri" : "data:application/octet-stream;base64,"
        }
    ]
}
