{
    "asset" : {
        "generator" : "Khronos glTF Blender I/O v0.9.36",
        "version" : "2.0"
    },
    "scene" : 0,
    "scenes" : [
        {
            "name" : "Scene",
            "nodes" : [
                0
            ]
        }
    ],
    "nodes" : [
        {
            "mesh" : 0,
            "name" : "lamp1",
            "scale" : [
                2.4985721111297607,
                -0.2059711515903473,
                2.4985721111297607
            ],
            "translation" : [
                -5.446963310241699,
                2.2324776649475098,
                -0.8082805871963501
            ]
        }
    ],
    "materials" : [
        {
            "doubleSided" : true,
            "name" : "frames",
            "pbrMetallicRoughness" : {
                "baseColorFactor" : [
                    0.09296385943889618,
                    0.10883025079965591,
                    0.11493503302335739,
                    1
                ],
                "metallicFactor" : 0,
                "roughnessFactor" : 0.5
            }
        },
        {
            "doubleSided" : true,
            "emissiveFactor" : [
                1,
                1,
                1
            ],
            "name" : "light",
            "pbrMetallicRoughness" : {}
        }
    ],
    "meshes" : [
        {
            "name" : "Cube.008",
            "primitives" : [
                {
                    "attributes" : {
                        "POSITION" : 0,
                        "NORMAL" : 1,
                        "TEXCOORD_0" : 2
                    },
                    "indices" : 3,
                    "material" : 0
                },
                {
                    "attributes" : {
                        "POSITION" : 4,
                        "NORMAL" : 5,
                        "TEXCOORD_0" : 6
                    },
                    "indices" : 7,
                    "material" : 1
                }
            ]
        }
    ],
    "accessors" : [
        {
            "bufferView" : 0,
            "componentType" : 5126,
            "count" : 164,
            "max" : [
                1,
                2.944725275039673,
                1
            ],
            "min" : [
                -1,
                -11.739535331726074,
                -1
            ],
            "type" : "VEC3"
        },
        {
            "bufferView" : 1,
            "componentType" : 5126,
            "count" : 164,
            "type" : "VEC3"
        },
        {
            "bufferView" : 2,
            "componentType" : 5126,
            "count" : 164,
            "type" : "VEC2"
        },
        {
            "bufferView" : 3,
            "componentType" : 5123,
            "count" : 246,
            "type" : "SCALAR"
        },
        {
            "bufferView" : 4,
            "componentType" : 5126,
            "count" : 36,
            "max" : [
                0.9773238897323608,
                2.944725275039673,
                0.9773238897323608
            ],
            "min" : [
                -0.9773238897323608,
                1,
                -0.9773238897323608
            ],
            "type" : "VEC3"
        },
        {
            "bufferView" : 5,
            "componentType" : 5126,
            "count" : 36,
            "type" : "VEC3"
        },
        {
            "bufferView" : 6,
            "componentType" : 5126,
            "count" : 36,
            "type" : "VEC2"
        },
        {
            "bufferView" : 7,
            "componentType" : 5123,
            "count" : 54,
            "type" : "SCALAR"
        }
    ],
    "bufferViews" : [
        {
            "buffer" : 0,
            "byteLength" : 1968,
            "byteOffset" : 0
        },
        {
            "buffer" : 0,
            "byteLength" : 1968,
            "byteOffset" : 1968
        },
        {
            "buffer" : 0,
            "byteLength" : 1312,
            "byteOffset" : 3936
        },
        {
            "buffer" : 0,
            "byteLength" : 492,
            "byteOffset" : 5248
        },
        {
            "buffer" : 0,
            "byteLength" : 432,
            "byteOffset" : 5740
        },
        {
            "buffer" : 0,
            "byteLength" : 432,
            "byteOffset" : 6172
        },
        {
            "buffer" : 0,
            "byteLength" : 288,
            "byteOffset" : 6604
        },
        {
            "buffer" : 0,
            "byteLength" : 108,
            "byteOffset" : 6892
        }
    ],
    "buffers" : [
        {
            "byteLength" : 7000,
            "uri" : "data:application/octet-stream;base64,"
        }
    ]
}
