{
    "asset" : {
        "generator" : "Khronos glTF Blender I/O v0.9.36",
        "version" : "2.0"
    },
    "scene" : 0,
    "scenes" : [
        {
            "name" : "Scene",
            "nodes" : [
                0
            ]
        }
    ],
    "nodes" : [
        {
            "mesh" : 0,
            "name" : "lamp4",
            "scale" : [
                1,
                0.19588631391525269,
                1
            ],
            "translation" : [
                2.210103750228882,
                2.144076347351074,
                -2.1733593940734863
            ]
        }
    ],
    "materials" : [
        {
            "doubleSided" : true,
            "name" : "wood",
            "pbrMetallicRoughness" : {
                "baseColorFactor" : [
                    0.8000000715255737,
                    0.3192923069000244,
                    0.03604254871606827,
                    1
                ],
                "metallicFactor" : 0,
                "roughnessFactor" : 0.4000000059604645
            }
        },
        {
            "doubleSided" : true,
            "emissiveFactor" : [
                1,
                1,
                1
            ],
            "name" : "light.001",
            "pbrMetallicRoughness" : {}
        }
    ],
    "meshes" : [
        {
            "name" : "Cube.005",
            "primitives" : [
                {
                    "attributes" : {
                        "POSITION" : 0,
                        "NORMAL" : 1,
                        "TEXCOORD_0" : 2
                    },
                    "indices" : 3,
                    "material" : 0
                },
                {
                    "attributes" : {
                        "POSITION" : 4,
                        "NORMAL" : 5,
                        "TEXCOORD_0" : 6
                    },
                    "indices" : 7,
                    "material" : 1
                }
            ]
        }
    ],
    "accessors" : [
        {
            "bufferView" : 0,
            "componentType" : 5126,
            "count" : 3368,
            "max" : [
                1.0081653594970703,
                12.647032737731934,
                3.1733593940734863
            ],
            "min" : [
                -3.218269109725952,
                -1,
                -1
            ],
            "type" : "VEC3"
        },
        {
            "bufferView" : 1,
            "componentType" : 5126,
            "count" : 3368,
            "type" : "VEC3"
        },
        {
            "bufferView" : 2,
            "componentType" : 5126,
            "count" : 3368,
            "type" : "VEC2"
        },
        {
            "bufferView" : 3,
            "componentType" : 5123,
            "count" : 5112,
            "type" : "SCALAR"
        },
        {
            "bufferView" : 4,
            "componentType" : 5126,
            "count" : 272,
            "max" : [
                0.9493891596794128,
                -0.6789959073066711,
                3.1145832538604736
            ],
            "min" : [
                -3.1594929695129395,
                -0.6933485865592957,
                -0.9412238001823425
            ],
            "type" : "VEC3"
        },
        {
            "bufferView" : 5,
            "componentType" : 5126,
            "count" : 272,
            "type" : "VEC3"
        },
        {
            "bufferView" : 6,
            "componentType" : 5126,
            "count" : 272,
            "type" : "VEC2"
        },
        {
            "bufferView" : 7,
            "componentType" : 5123,
            "count" : 408,
            "type" : "SCALAR"
        }
    ],
    "bufferViews" : [
        {
            "buffer" : 0,
            "byteLength" : 40416,
            "byteOffset" : 0
        },
        {
            "buffer" : 0,
            "byteLength" : 40416,
            "byteOffset" : 40416
        },
        {
            "buffer" : 0,
            "byteLength" : 26944,
            "byteOffset" : 80832
        },
        {
            "buffer" : 0,
            "byteLength" : 10224,
            "byteOffset" : 107776
        },
        {
            "buffer" : 0,
            "byteLength" : 3264,
            "byteOffset" : 118000
        },
        {
            "buffer" : 0,
            "byteLength" : 3264,
            "byteOffset" : 121264
        },
        {
            "buffer" : 0,
            "byteLength" : 2176,
            "byteOffset" : 124528
        },
        {
            "buffer" : 0,
            "byteLength" : 816,
            "byteOffset" : 126704
        }
    ],
    "buffers" : [
        {
            "byteLength" : 127520,
            "uri" : "data:application/octet-stream;base64,"
        }
    ]
}
