{
    "asset" : {
        "generator" : "Khronos glTF Blender I/O v0.9.36",
        "version" : "2.0"
    },
    "scene" : 0,
    "scenes" : [
        {
            "name" : "Scene",
            "nodes" : [
                0,
                1
            ]
        }
    ],
    "nodes" : [
        {
            "mesh" : 0,
            "name" : "Palm Tree Base 2",
            "scale" : [
                0.15139620006084442,
                2.222069501876831,
                0.15139620006084442
            ],
            "translation" : [
                0,
                -0.0650564432144165,
                4.181578636169434
            ]
        },
        {
            "mesh" : 1,
            "name" : "Palm Tree Leaves 2",
            "rotation" : [
                0,
                -0.7574226260185242,
                0,
                -0.6529249548912048
            ],
            "scale" : [
                0.45874693989753723,
                0.6185850501060486,
                0.8878269791603088
            ],
            "translation" : [
                0.23734498023986816,
                4.48691463470459,
                4.846713066101074
            ]
        }
    ],
    "materials" : [
        {
            "doubleSided" : true,
            "name" : "Tree (Without Nodes)",
            "pbrMetallicRoughness" : {
                "baseColorFactor" : [
                    0.28744086623191833,
                    0.109461709856987,
                    0.030713465064764023,
                    1
                ],
                "metallicFactor" : 0,
                "roughnessFactor" : 0.9571428298950195
            }
        },
        {
            "doubleSided" : true,
            "name" : "Palm Tree (Without Nodes)",
            "pbrMetallicRoughness" : {
                "baseColorFactor" : [
                    0.055592913180589676,
                    0.467202365398407,
                    0.13752755522727966,
                    1
                ],
                "metallicFactor" : 0,
                "roughnessFactor" : 0.5
            }
        }
    ],
    "meshes" : [
        {
            "name" : "Cylinder.001",
            "primitives" : [
                {
                    "attributes" : {
                        "POSITION" : 0,
                        "TEXCOORD_0" : 1
                    },
                    "indices" : 2,
                    "material" : 0
                }
            ]
        },
        {
            "name" : "Plane.022",
            "primitives" : [
                {
                    "attributes" : {
                        "POSITION" : 3,
                        "TEXCOORD_0" : 4
                    },
                    "indices" : 5,
                    "material" : 1
                }
            ]
        }
    ],
    "accessors" : [
        {
            "bufferView" : 0,
            "componentType" : 5126,
            "count" : 372,
            "max" : [
                4.485200881958008,
                1.9341086149215698,
                6.887662410736084
            ],
            "min" : [
                1.45243239402771,
                -0.009612321853637695,
                -1.3766670227050781
            ],
            "type" : "VEC3"
        },
        {
            "bufferView" : 1,
            "componentType" : 5126,
            "count" : 372,
            "type" : "VEC2"
        },
        {
            "bufferView" : 2,
            "componentType" : 5123,
            "count" : 564,
            "type" : "SCALAR"
        },
        {
            "bufferView" : 3,
            "componentType" : 5126,
            "count" : 3328,
            "max" : [
                2.5766637325286865,
                0.08003818988800049,
                1.4440404176712036
            ],
            "min" : [
                -2.60023832321167,
                -3.00128173828125,
                -1.2908724546432495
            ],
            "type" : "VEC3"
        },
        {
            "bufferView" : 4,
            "componentType" : 5126,
            "count" : 3328,
            "type" : "VEC2"
        },
        {
            "bufferView" : 5,
            "componentType" : 5123,
            "count" : 4992,
            "type" : "SCALAR"
        }
    ],
    "bufferViews" : [
        {
            "buffer" : 0,
            "byteLength" : 4464,
            "byteOffset" : 0
        },
        {
            "buffer" : 0,
            "byteLength" : 2976,
            "byteOffset" : 4464
        },
        {
            "buffer" : 0,
            "byteLength" : 1128,
            "byteOffset" : 7440
        },
        {
            "buffer" : 0,
            "byteLength" : 39936,
            "byteOffset" : 8568
        },
        {
            "buffer" : 0,
            "byteLength" : 26624,
            "byteOffset" : 48504
        },
        {
            "buffer" : 0,
            "byteLength" : 9984,
            "byteOffset" : 75128
        }
    ],
    "buffers" : [
        {
            "byteLength" : 85112,
            "uri" : "data:application/octet-stream;base64,"
        }
    ]
}
