{
    "asset" : {
        "generator" : "Khronos glTF Blender I/O v0.9.36",
        "version" : "2.0"
    },
    "scene" : 0,
    "scenes" : [
        {
            "name" : "Scene",
            "nodes" : [
                0,
                1,
                2
            ]
        }
    ],
    "nodes" : [
        {
            "mesh" : 0,
            "name" : "Mball.001",
            "scale" : [
                0.13331744074821472,
                0.1810537576675415,
                0.17882704734802246
            ],
            "translation" : [
                -0.0009871125221252441,
                0.5333862900733948,
                -1.3018336296081543
            ]
        },
        {
            "mesh" : 1,
            "name" : "Cube",
            "scale" : [
                -0.02755226194858551,
                -0.09631771594285965,
                -0.03418128192424774
            ],
            "translation" : [
                0,
                0.2542772889137268,
                -1.3018336296081543
            ]
        },
        {
            "mesh" : 2,
            "name" : "Cube.001",
            "scale" : [
                0.13573525846004486,
                0.13573525846004486,
                0.13573525846004486
            ],
            "translation" : [
                0.00023871660232543945,
                0.13749277591705322,
                -1.3018336296081543
            ]
        }
    ],
    "materials" : [
        {
            "doubleSided" : true,
            "name" : "Green Dark",
            "pbrMetallicRoughness" : {
                "baseColorFactor" : [
                    0.08021984994411469,
                    0.20863687992095947,
                    0.10702312737703323,
                    1
                ],
                "metallicFactor" : 0,
                "roughnessFactor" : 0.7183406352996826
            }
        },
        {
            "doubleSided" : true,
            "name" : "Ground",
            "pbrMetallicRoughness" : {}
        },
        {
            "doubleSided" : true,
            "name" : "Wood",
            "pbrMetallicRoughness" : {
                "baseColorFactor" : [
                    0.13758426904678345,
                    0.06684835255146027,
                    0.03705311939120293,
                    1
                ],
                "metallicFactor" : 0,
                "roughnessFactor" : 0.5
            }
        },
        {
            "doubleSided" : true,
            "name" : "Material.001",
            "pbrMetallicRoughness" : {
                "baseColorFactor" : [
                    0.23955275118350983,
                    0.17890658974647522,
                    0.11585227400064468,
                    1
                ],
                "metallicFactor" : 0,
                "roughnessFactor" : 0.5
            }
        },
        {
            "doubleSided" : true,
            "name" : "Dirt (Fake)",
            "pbrMetallicRoughness" : {
                "baseColorFactor" : [
                    0.04196657985448837,
                    0.01438096072524786,
                    0.007739483378827572,
                    1
                ],
                "metallicFactor" : 0,
                "roughnessFactor" : 0.5
            }
        }
    ],
    "meshes" : [
        {
            "name" : "Mesh.001",
            "primitives" : [
                {
                    "attributes" : {
                        "POSITION" : 0,
                        "NORMAL" : 1
                    },
                    "indices" : 2,
                    "material" : 0
                }
            ]
        },
        {
            "name" : "Cube.001",
            "primitives" : [
                {
                    "attributes" : {
                        "POSITION" : 3,
                        "NORMAL" : 4,
                        "TEXCOORD_0" : 5
                    },
                    "indices" : 6,
                    "material" : 1
                },
                {
                    "attributes" : {
                        "POSITION" : 7,
                        "NORMAL" : 8,
                        "TEXCOORD_0" : 9
                    },
                    "indices" : 10,
                    "material" : 2
                }
            ]
        },
        {
            "name" : "Cube.002",
            "primitives" : [
                {
                    "attributes" : {
                        "POSITION" : 11,
                        "NORMAL" : 12,
                        "TEXCOORD_0" : 13
                    },
                    "indices" : 14,
                    "material" : 3
                },
                {
                    "attributes" : {
                        "POSITION" : 15,
                        "NORMAL" : 16,
                        "TEXCOORD_0" : 17
                    },
                    "indices" : 18,
                    "material" : 4
                }
            ]
        }
    ],
    "accessors" : [
        {
            "bufferView" : 0,
            "componentType" : 5126,
            "count" : 624,
            "max" : [
                1.1151094436645508,
                1.1151094436645508,
                1.1151094436645508
            ],
            "min" : [
                -1.1151094436645508,
                -1.1151094436645508,
                -1.1151094436645508
            ],
            "type" : "VEC3"
        },
        {
            "bufferView" : 1,
            "componentType" : 5126,
            "count" : 624,
            "type" : "VEC3"
        },
        {
            "bufferView" : 2,
            "componentType" : 5123,
            "count" : 852,
            "type" : "SCALAR"
        },
        {
            "bufferView" : 3,
            "componentType" : 5126,
            "count" : 32,
            "max" : [
                1.2211302518844604,
                1,
                1.2372448444366455
            ],
            "min" : [
                -1.2432432174682617,
                -1,
                -1.2351871728897095
            ],
            "type" : "VEC3"
        },
        {
            "bufferView" : 4,
            "componentType" : 5126,
            "count" : 32,
            "type" : "VEC3"
        },
        {
            "bufferView" : 5,
            "componentType" : 5126,
            "count" : 32,
            "type" : "VEC2"
        },
        {
            "bufferView" : 6,
            "componentType" : 5123,
            "count" : 48,
            "type" : "SCALAR"
        },
        {
            "bufferView" : 7,
            "componentType" : 5126,
            "count" : 32,
            "max" : [
                1.2211302518844604,
                1,
                1.2372448444366455
            ],
            "min" : [
                -1.2432432174682617,
                -1,
                -1.2351871728897095
            ],
            "type" : "VEC3"
        },
        {
            "bufferView" : 8,
            "componentType" : 5126,
            "count" : 32,
            "type" : "VEC3"
        },
        {
            "bufferView" : 9,
            "componentType" : 5126,
            "count" : 32,
            "type" : "VEC2"
        },
        {
            "bufferView" : 10,
            "componentType" : 5123,
            "count" : 48,
            "type" : "SCALAR"
        },
        {
            "bufferView" : 11,
            "componentType" : 5126,
            "count" : 160,
            "max" : [
                1.2915937900543213,
                0.6450101137161255,
                1.2915937900543213
            ],
            "min" : [
                -1.2915937900543213,
                -1,
                -1.2915937900543213
            ],
            "type" : "VEC3"
        },
        {
            "bufferView" : 12,
            "componentType" : 5126,
            "count" : 160,
            "type" : "VEC3"
        },
        {
            "bufferView" : 13,
            "componentType" : 5126,
            "count" : 160,
            "type" : "VEC2"
        },
        {
            "bufferView" : 14,
            "componentType" : 5123,
            "count" : 252,
            "type" : "SCALAR"
        },
        {
            "bufferView" : 15,
            "componentType" : 5126,
            "count" : 8,
            "max" : [
                1.0611097812652588,
                0.28982576727867126,
                1.0912511348724365
            ],
            "min" : [
                -1.0752003192901611,
                0.28982576727867126,
                -1.0912516117095947
            ],
            "type" : "VEC3"
        },
        {
            "bufferView" : 16,
            "componentType" : 5126,
            "count" : 8,
            "type" : "VEC3"
        },
        {
            "bufferView" : 17,
            "componentType" : 5126,
            "count" : 8,
            "type" : "VEC2"
        },
        {
            "bufferView" : 18,
            "componentType" : 5123,
            "count" : 12,
            "type" : "SCALAR"
        }
    ],
    "bufferViews" : [
        {
            "buffer" : 0,
            "byteLength" : 7488,
            "byteOffset" : 0
        },
        {
            "buffer" : 0,
            "byteLength" : 7488,
            "byteOffset" : 7488
        },
        {
            "buffer" : 0,
            "byteLength" : 1704,
            "byteOffset" : 14976
        },
        {
            "buffer" : 0,
            "byteLength" : 384,
            "byteOffset" : 16680
        },
        {
            "buffer" : 0,
            "byteLength" : 384,
            "byteOffset" : 17064
        },
        {
            "buffer" : 0,
            "byteLength" : 256,
            "byteOffset" : 17448
        },
        {
            "buffer" : 0,
            "byteLength" : 96,
            "byteOffset" : 17704
        },
        {
            "buffer" : 0,
            "byteLength" : 384,
            "byteOffset" : 17800
        },
        {
            "buffer" : 0,
            "byteLength" : 384,
            "byteOffset" : 18184
        },
        {
            "buffer" : 0,
            "byteLength" : 256,
            "byteOffset" : 18568
        },
        {
            "buffer" : 0,
            "byteLength" : 96,
            "byteOffset" : 18824
        },
        {
            "buffer" : 0,
            "byteLength" : 1920,
            "byteOffset" : 18920
        },
        {
            "buffer" : 0,
            "byteLength" : 1920,
            "byteOffset" : 20840
        },
        {
            "buffer" : 0,
            "byteLength" : 1280,
            "byteOffset" : 22760
        },
        {
            "buffer" : 0,
            "byteLength" : 504,
            "byteOffset" : 24040
        },
        {
            "buffer" : 0,
            "byteLength" : 96,
            "byteOffset" : 24544
        },
        {
            "buffer" : 0,
            "byteLength" : 96,
            "byteOffset" : 24640
        },
        {
            "buffer" : 0,
            "byteLength" : 64,
            "byteOffset" : 24736
        },
        {
            "buffer" : 0,
            "byteLength" : 24,
            "byteOffset" : 24800
        }
    ],
    "buffers" : [
        {
            "byteLength" : 24824,
            "uri" : "data:application/octet-stream;base64,"
        }
    ]
}
