{
    "asset" : {
        "generator" : "Khronos glTF Blender I/O v0.9.36",
        "version" : "2.0"
    },
    "scene" : 0,
    "scenes" : [
        {
            "name" : "Scene",
            "nodes" : [
                0,
                1,
                2
            ]
        }
    ],
    "nodes" : [
        {
            "mesh" : 0,
            "name" : "Cube.002",
            "scale" : [
                -0.02755226194858551,
                -0.2543925940990448,
                -0.03418128192424774
            ],
            "translation" : [
                0,
                0.39553365111351013,
                -0.7056699991226196
            ]
        },
        {
            "mesh" : 1,
            "name" : "Cube.003",
            "scale" : [
                0.13573525846004486,
                0.13573525846004486,
                0.13573525846004486
            ],
            "translation" : [
                0.00023871660232543945,
                0.13749277591705322,
                -0.7056699991226196
            ]
        },
        {
            "mesh" : 2,
            "name" : "Palm Tree Leaves",
            "rotation" : [
                0.06279951333999634,
                -0.7044422626495361,
                -0.06277652084827423,
                -0.7041849493980408
            ],
            "scale" : [
                0.09155700355768204,
                0.14169809222221375,
                0.1771930754184723
            ],
            "translation" : [
                -0.016745775938034058,
                0.6534324288368225,
                -0.7042050361633301
            ]
        }
    ],
    "materials" : [
        {
            "doubleSided" : true,
            "name" : "Ground",
            "pbrMetallicRoughness" : {}
        },
        {
            "doubleSided" : true,
            "name" : "Wood",
            "pbrMetallicRoughness" : {
                "baseColorFactor" : [
                    0.13758426904678345,
                    0.06684835255146027,
                    0.03705311939120293,
                    1
                ],
                "metallicFactor" : 0,
                "roughnessFactor" : 0.5
            }
        },
        {
            "doubleSided" : true,
            "name" : "Material.001",
            "pbrMetallicRoughness" : {
                "baseColorFactor" : [
                    0.23955275118350983,
                    0.17890658974647522,
                    0.11585227400064468,
                    1
                ],
                "metallicFactor" : 0,
                "roughnessFactor" : 0.5
            }
        },
        {
            "doubleSided" : true,
            "name" : "Dirt (Fake)",
            "pbrMetallicRoughness" : {
                "baseColorFactor" : [
                    0.04196657985448837,
                    0.01438096072524786,
                    0.007739483378827572,
                    1
                ],
                "metallicFactor" : 0,
                "roughnessFactor" : 0.5
            }
        },
        {
            "doubleSided" : true,
            "name" : "Leaves",
            "pbrMetallicRoughness" : {
                "baseColorFactor" : [
                    0.060319915413856506,
                    0.326376348733902,
                    0.047397736459970474,
                    1
                ],
                "metallicFactor" : 0,
                "roughnessFactor" : 0.5
            }
        }
    ],
    "meshes" : [
        {
            "name" : "Cube.000",
            "primitives" : [
                {
                    "attributes" : {
                        "POSITION" : 0,
                        "NORMAL" : 1,
                        "TEXCOORD_0" : 2
                    },
                    "indices" : 3,
                    "material" : 0
                },
                {
                    "attributes" : {
                        "POSITION" : 4,
                        "NORMAL" : 5,
                        "TEXCOORD_0" : 6
                    },
                    "indices" : 7,
                    "material" : 1
                }
            ]
        },
        {
            "name" : "Cube.003",
            "primitives" : [
                {
                    "attributes" : {
                        "POSITION" : 8,
                        "NORMAL" : 9,
                        "TEXCOORD_0" : 10
                    },
                    "indices" : 11,
                    "material" : 2
                },
                {
                    "attributes" : {
                        "POSITION" : 12,
                        "NORMAL" : 13,
                        "TEXCOORD_0" : 14
                    },
                    "indices" : 15,
                    "material" : 3
                }
            ]
        },
        {
            "name" : "Plane.003",
            "primitives" : [
                {
                    "attributes" : {
                        "POSITION" : 16,
                        "NORMAL" : 17,
                        "TEXCOORD_0" : 18
                    },
                    "indices" : 19,
                    "material" : 4
                }
            ]
        }
    ],
    "accessors" : [
        {
            "bufferView" : 0,
            "componentType" : 5126,
            "count" : 32,
            "max" : [
                1.2211302518844604,
                1,
                1.2372448444366455
            ],
            "min" : [
                -1.2432432174682617,
                -1,
                -1.2351871728897095
            ],
            "type" : "VEC3"
        },
        {
            "bufferView" : 1,
            "componentType" : 5126,
            "count" : 32,
            "type" : "VEC3"
        },
        {
            "bufferView" : 2,
            "componentType" : 5126,
            "count" : 32,
            "type" : "VEC2"
        },
        {
            "bufferView" : 3,
            "componentType" : 5123,
            "count" : 48,
            "type" : "SCALAR"
        },
        {
            "bufferView" : 4,
            "componentType" : 5126,
            "count" : 32,
            "max" : [
                1.2211302518844604,
                1,
                1.2372448444366455
            ],
            "min" : [
                -1.2432432174682617,
                -1,
                -1.2351871728897095
            ],
            "type" : "VEC3"
        },
        {
            "bufferView" : 5,
            "componentType" : 5126,
            "count" : 32,
            "type" : "VEC3"
        },
        {
            "bufferView" : 6,
            "componentType" : 5126,
            "count" : 32,
            "type" : "VEC2"
        },
        {
            "bufferView" : 7,
            "componentType" : 5123,
            "count" : 48,
            "type" : "SCALAR"
        },
        {
            "bufferView" : 8,
            "componentType" : 5126,
            "count" : 160,
            "max" : [
                1.2915937900543213,
                0.6450101137161255,
                1.2915937900543213
            ],
            "min" : [
                -1.2915937900543213,
                -1,
                -1.2915937900543213
            ],
            "type" : "VEC3"
        },
        {
            "bufferView" : 9,
            "componentType" : 5126,
            "count" : 160,
            "type" : "VEC3"
        },
        {
            "bufferView" : 10,
            "componentType" : 5126,
            "count" : 160,
            "type" : "VEC2"
        },
        {
            "bufferView" : 11,
            "componentType" : 5123,
            "count" : 252,
            "type" : "SCALAR"
        },
        {
            "bufferView" : 12,
            "componentType" : 5126,
            "count" : 8,
            "max" : [
                1.0611097812652588,
                0.28982576727867126,
                1.0912511348724365
            ],
            "min" : [
                -1.0752003192901611,
                0.28982576727867126,
                -1.0912516117095947
            ],
            "type" : "VEC3"
        },
        {
            "bufferView" : 13,
            "componentType" : 5126,
            "count" : 8,
            "type" : "VEC3"
        },
        {
            "bufferView" : 14,
            "componentType" : 5126,
            "count" : 8,
            "type" : "VEC2"
        },
        {
            "bufferView" : 15,
            "componentType" : 5123,
            "count" : 12,
            "type" : "SCALAR"
        },
        {
            "bufferView" : 16,
            "componentType" : 5126,
            "count" : 3584,
            "max" : [
                2.607956647872925,
                0.3145102858543396,
                1.461904764175415
            ],
            "min" : [
                -2.6267566680908203,
                -2.554934024810791,
                -1.3370051383972168
            ],
            "type" : "VEC3"
        },
        {
            "bufferView" : 17,
            "componentType" : 5126,
            "count" : 3584,
            "type" : "VEC3"
        },
        {
            "bufferView" : 18,
            "componentType" : 5126,
            "count" : 3584,
            "type" : "VEC2"
        },
        {
            "bufferView" : 19,
            "componentType" : 5123,
            "count" : 5376,
            "type" : "SCALAR"
        }
    ],
    "bufferViews" : [
        {
            "buffer" : 0,
            "byteLength" : 384,
            "byteOffset" : 0
        },
        {
            "buffer" : 0,
            "byteLength" : 384,
            "byteOffset" : 384
        },
        {
            "buffer" : 0,
            "byteLength" : 256,
            "byteOffset" : 768
        },
        {
            "buffer" : 0,
            "byteLength" : 96,
            "byteOffset" : 1024
        },
        {
            "buffer" : 0,
            "byteLength" : 384,
            "byteOffset" : 1120
        },
        {
            "buffer" : 0,
            "byteLength" : 384,
            "byteOffset" : 1504
        },
        {
            "buffer" : 0,
            "byteLength" : 256,
            "byteOffset" : 1888
        },
        {
            "buffer" : 0,
            "byteLength" : 96,
            "byteOffset" : 2144
        },
        {
            "buffer" : 0,
            "byteLength" : 1920,
            "byteOffset" : 2240
        },
        {
            "buffer" : 0,
            "byteLength" : 1920,
            "byteOffset" : 4160
        },
        {
            "buffer" : 0,
            "byteLength" : 1280,
            "byteOffset" : 6080
        },
        {
            "buffer" : 0,
            "byteLength" : 504,
            "byteOffset" : 7360
        },
        {
            "buffer" : 0,
            "byteLength" : 96,
            "byteOffset" : 7864
        },
        {
            "buffer" : 0,
            "byteLength" : 96,
            "byteOffset" : 7960
        },
        {
            "buffer" : 0,
            "byteLength" : 64,
            "byteOffset" : 8056
        },
        {
            "buffer" : 0,
            "byteLength" : 24,
            "byteOffset" : 8120
        },
        {
            "buffer" : 0,
            "byteLength" : 43008,
            "byteOffset" : 8144
        },
        {
            "buffer" : 0,
            "byteLength" : 43008,
            "byteOffset" : 51152
        },
        {
            "buffer" : 0,
            "byteLength" : 28672,
            "byteOffset" : 94160
        },
        {
            "buffer" : 0,
            "byteLength" : 10752,
            "byteOffset" : 122832
        }
    ],
    "buffers" : [
        {
            "byteLength" : 133584,
            "uri" : "data:application/octet-stream;base64,"
        }
    ]
}
