{
    "asset" : {
        "generator" : "Khronos glTF Blender I/O v1.0.5",
        "version" : "2.0"
    },
    "scene" : 0,
    "scenes" : [
        {
            "name" : "Scene",
            "nodes" : [
                0,
                1,
                2,
                3,
                4,
                5,
                6,
                7
            ]
        }
    ],
    "nodes" : [
        {
            "name" : "Light",
            "rotation" : [
                0.16907575726509094,
                0.7558803558349609,
                -0.27217137813568115,
                0.570947527885437
            ],
            "scale" : [
                1.1250925064086914,
                1.2939894199371338,
                1.2253329753875732
            ],
            "translation" : [
                4.301420211791992,
                6.560194492340088,
                -1.0693395137786865
            ]
        },
        {
            "name" : "Camera",
            "rotation" : [
                0.483536034822464,
                0.33687159419059753,
                -0.20870360732078552,
                0.7804827094078064
            ],
            "scale" : [
                1.4321622848510742,
                1.4321622848510742,
                1.4321621656417847
            ],
            "translation" : [
                10.131146430969238,
                5.40787410736084,
                7.7351274490356445
            ]
        },
        {
            "mesh" : 0,
            "name" : "Mball.001",
            "scale" : [
                0.1271124631166458,
                0.1810537576675415,
                0.17882704734802246
            ],
            "translation" : [
                0,
                0.5333862900733948,
                -2.091418504714966
            ]
        },
        {
            "mesh" : 1,
            "name" : "Cube",
            "scale" : [
                -0.02755226194858551,
                -0.09631771594285965,
                -0.03418128192424774
            ],
            "translation" : [
                0,
                0.2542772889137268,
                -2.091418504714966
            ]
        },
        {
            "mesh" : 2,
            "name" : "Cube.001",
            "scale" : [
                0.13573525846004486,
                0.13573525846004486,
                0.13573525846004486
            ],
            "translation" : [
                0.00023871660232543945,
                0.13749277591705322,
                -2.091418504714966
            ]
        },
        {
            "mesh" : 3,
            "name" : "Cylinder",
            "scale" : [
                0.16791382431983948,
                0.21586015820503235,
                0.16791382431983948
            ],
            "translation" : [
                0,
                0.21457798779010773,
                -2.7687225341796875
            ]
        },
        {
            "mesh" : 4,
            "name" : "Cylinder.001",
            "scale" : [
                -0.022192994132637978,
                -0.3766949772834778,
                -0.022192994132637978
            ],
            "translation" : [
                0,
                0.6791250109672546,
                -2.7687225341796875
            ]
        },
        {
            "mesh" : 5,
            "name" : "Mball.000",
            "scale" : [
                0.1617979258298874,
                0.23045828938484192,
                0.22762398421764374
            ],
            "translation" : [
                0,
                1.1229780912399292,
                -2.769026279449463
            ]
        }
    ],
    "materials" : [
        {
            "doubleSided" : true,
            "name" : "Material",
            "pbrMetallicRoughness" : {}
        },
        {
            "doubleSided" : true,
            "name" : "Tree",
            "pbrMetallicRoughness" : {}
        },
        {
            "doubleSided" : true,
            "name" : "Material.001",
            "pbrMetallicRoughness" : {
                "baseColorFactor" : [
                    0.8000000715255737,
                    0.11470438539981842,
                    0.05864247307181358,
                    1
                ],
                "metallicFactor" : 0,
                "roughnessFactor" : 0.5
            }
        },
        {
            "doubleSided" : true,
            "name" : "Material.002",
            "pbrMetallicRoughness" : {
                "baseColorFactor" : [
                    0.013410543091595173,
                    0.01299913041293621,
                    0.013306323438882828,
                    1
                ],
                "metallicFactor" : 0,
                "roughnessFactor" : 0.5
            }
        }
    ],
    "meshes" : [
        {
            "name" : "Mesh.001",
            "primitives" : [
                {
                    "attributes" : {
                        "POSITION" : 0,
                        "NORMAL" : 1
                    },
                    "indices" : 2,
                    "material" : 0
                }
            ]
        },
        {
            "name" : "Cube.001",
            "primitives" : [
                {
                    "attributes" : {
                        "POSITION" : 3,
                        "NORMAL" : 4,
                        "TEXCOORD_0" : 5
                    },
                    "indices" : 6,
                    "material" : 1
                }
            ]
        },
        {
            "name" : "Cube.002",
            "primitives" : [
                {
                    "attributes" : {
                        "POSITION" : 7,
                        "NORMAL" : 8,
                        "TEXCOORD_0" : 9
                    },
                    "indices" : 10,
                    "material" : 2
                },
                {
                    "attributes" : {
                        "POSITION" : 11,
                        "NORMAL" : 12,
                        "TEXCOORD_0" : 13
                    },
                    "indices" : 14,
                    "material" : 1
                }
            ]
        },
        {
            "name" : "Cylinder",
            "primitives" : [
                {
                    "attributes" : {
                        "POSITION" : 15,
                        "NORMAL" : 16,
                        "TEXCOORD_0" : 17
                    },
                    "indices" : 18,
                    "material" : 3
                },
                {
                    "attributes" : {
                        "POSITION" : 19,
                        "NORMAL" : 20,
                        "TEXCOORD_0" : 21
                    },
                    "indices" : 22,
                    "material" : 1
                }
            ]
        },
        {
            "name" : "Cylinder.002",
            "primitives" : [
                {
                    "attributes" : {
                        "POSITION" : 23,
                        "NORMAL" : 24,
                        "TEXCOORD_0" : 25
                    },
                    "indices" : 26,
                    "material" : 1
                }
            ]
        },
        {
            "name" : "Mesh.000",
            "primitives" : [
                {
                    "attributes" : {
                        "POSITION" : 27,
                        "NORMAL" : 28
                    },
                    "indices" : 2,
                    "material" : 0
                }
            ]
        }
    ],
    "accessors" : [
        {
            "bufferView" : 0,
            "componentType" : 5126,
            "count" : 624,
            "max" : [
                1.1151094436645508,
                1.1151094436645508,
                1.1151094436645508
            ],
            "min" : [
                -1.1151094436645508,
                -1.1151094436645508,
                -1.1151094436645508
            ],
            "type" : "VEC3"
        },
        {
            "bufferView" : 1,
            "componentType" : 5126,
            "count" : 624,
            "type" : "VEC3"
        },
        {
            "bufferView" : 2,
            "componentType" : 5123,
            "count" : 852,
            "type" : "SCALAR"
        },
        {
            "bufferView" : 3,
            "componentType" : 5126,
            "count" : 64,
            "max" : [
                1.2211302518844604,
                1,
                1.2372448444366455
            ],
            "min" : [
                -1.2432432174682617,
                -1,
                -1.2351871728897095
            ],
            "type" : "VEC3"
        },
        {
            "bufferView" : 4,
            "componentType" : 5126,
            "count" : 64,
            "type" : "VEC3"
        },
        {
            "bufferView" : 5,
            "componentType" : 5126,
            "count" : 64,
            "type" : "VEC2"
        },
        {
            "bufferView" : 6,
            "componentType" : 5123,
            "count" : 96,
            "type" : "SCALAR"
        },
        {
            "bufferView" : 7,
            "componentType" : 5126,
            "count" : 80,
            "max" : [
                1.2915937900543213,
                0.6450101137161255,
                1.2915937900543213
            ],
            "min" : [
                -1.2915937900543213,
                -1,
                -1.2915937900543213
            ],
            "type" : "VEC3"
        },
        {
            "bufferView" : 8,
            "componentType" : 5126,
            "count" : 80,
            "type" : "VEC3"
        },
        {
            "bufferView" : 9,
            "componentType" : 5126,
            "count" : 80,
            "type" : "VEC2"
        },
        {
            "bufferView" : 10,
            "componentType" : 5123,
            "count" : 126,
            "type" : "SCALAR"
        },
        {
            "bufferView" : 11,
            "componentType" : 5126,
            "count" : 4,
            "max" : [
                1.0611097812652588,
                0.28982576727867126,
                1.0912511348724365
            ],
            "min" : [
                -1.0752003192901611,
                0.28982576727867126,
                -1.0912516117095947
            ],
            "type" : "VEC3"
        },
        {
            "bufferView" : 12,
            "componentType" : 5126,
            "count" : 4,
            "type" : "VEC3"
        },
        {
            "bufferView" : 13,
            "componentType" : 5126,
            "count" : 4,
            "type" : "VEC2"
        },
        {
            "bufferView" : 14,
            "componentType" : 5123,
            "count" : 6,
            "type" : "SCALAR"
        },
        {
            "bufferView" : 15,
            "componentType" : 5126,
            "count" : 1159,
            "max" : [
                1.2599880695343018,
                0.6715142726898193,
                1.2557051181793213
            ],
            "min" : [
                -1.2599879503250122,
                -1,
                -1.2614166736602783
            ],
            "type" : "VEC3"
        },
        {
            "bufferView" : 16,
            "componentType" : 5126,
            "count" : 1159,
            "type" : "VEC3"
        },
        {
            "bufferView" : 17,
            "componentType" : 5126,
            "count" : 1159,
            "type" : "VEC2"
        },
        {
            "bufferView" : 18,
            "componentType" : 5123,
            "count" : 1875,
            "type" : "SCALAR"
        },
        {
            "bufferView" : 19,
            "componentType" : 5126,
            "count" : 33,
            "max" : [
                1.0847344398498535,
                0.4654189944267273,
                1.0810470581054688
            ],
            "min" : [
                -1.084734320640564,
                0.4654189944267273,
                -1.085964322090149
            ],
            "type" : "VEC3"
        },
        {
            "bufferView" : 20,
            "componentType" : 5126,
            "count" : 33,
            "type" : "VEC3"
        },
        {
            "bufferView" : 21,
            "componentType" : 5126,
            "count" : 33,
            "type" : "VEC2"
        },
        {
            "bufferView" : 22,
            "componentType" : 5123,
            "count" : 93,
            "type" : "SCALAR"
        },
        {
            "bufferView" : 23,
            "componentType" : 5126,
            "count" : 30,
            "max" : [
                0.9510565400123596,
                1,
                0.8090170621871948
            ],
            "min" : [
                -0.9510564804077148,
                -1,
                -1
            ],
            "type" : "VEC3"
        },
        {
            "bufferView" : 24,
            "componentType" : 5126,
            "count" : 30,
            "type" : "VEC3"
        },
        {
            "bufferView" : 25,
            "componentType" : 5126,
            "count" : 30,
            "type" : "VEC2"
        },
        {
            "bufferView" : 26,
            "componentType" : 5123,
            "count" : 48,
            "type" : "SCALAR"
        },
        {
            "bufferView" : 27,
            "componentType" : 5126,
            "count" : 624,
            "max" : [
                1.1151094436645508,
                1.1151094436645508,
                1.1151094436645508
            ],
            "min" : [
                -1.1151094436645508,
                -1.1151094436645508,
                -1.1151094436645508
            ],
            "type" : "VEC3"
        },
        {
            "bufferView" : 28,
            "componentType" : 5126,
            "count" : 624,
            "type" : "VEC3"
        }
    ],
    "bufferViews" : [
        {
            "buffer" : 0,
            "byteLength" : 7488,
            "byteOffset" : 0
        },
        {
            "buffer" : 0,
            "byteLength" : 7488,
            "byteOffset" : 7488
        },
        {
            "buffer" : 0,
            "byteLength" : 1704,
            "byteOffset" : 14976
        },
        {
            "buffer" : 0,
            "byteLength" : 768,
            "byteOffset" : 16680
        },
        {
            "buffer" : 0,
            "byteLength" : 768,
            "byteOffset" : 17448
        },
        {
            "buffer" : 0,
            "byteLength" : 512,
            "byteOffset" : 18216
        },
        {
            "buffer" : 0,
            "byteLength" : 192,
            "byteOffset" : 18728
        },
        {
            "buffer" : 0,
            "byteLength" : 960,
            "byteOffset" : 18920
        },
        {
            "buffer" : 0,
            "byteLength" : 960,
            "byteOffset" : 19880
        },
        {
            "buffer" : 0,
            "byteLength" : 640,
            "byteOffset" : 20840
        },
        {
            "buffer" : 0,
            "byteLength" : 252,
            "byteOffset" : 21480
        },
        {
            "buffer" : 0,
            "byteLength" : 48,
            "byteOffset" : 21732
        },
        {
            "buffer" : 0,
            "byteLength" : 48,
            "byteOffset" : 21780
        },
        {
            "buffer" : 0,
            "byteLength" : 32,
            "byteOffset" : 21828
        },
        {
            "buffer" : 0,
            "byteLength" : 12,
            "byteOffset" : 21860
        },
        {
            "buffer" : 0,
            "byteLength" : 13908,
            "byteOffset" : 21872
        },
        {
            "buffer" : 0,
            "byteLength" : 13908,
            "byteOffset" : 35780
        },
        {
            "buffer" : 0,
            "byteLength" : 9272,
            "byteOffset" : 49688
        },
        {
            "buffer" : 0,
            "byteLength" : 3750,
            "byteOffset" : 58960
        },
        {
            "buffer" : 0,
            "byteLength" : 396,
            "byteOffset" : 62712
        },
        {
            "buffer" : 0,
            "byteLength" : 396,
            "byteOffset" : 63108
        },
        {
            "buffer" : 0,
            "byteLength" : 264,
            "byteOffset" : 63504
        },
        {
            "buffer" : 0,
            "byteLength" : 186,
            "byteOffset" : 63768
        },
        {
            "buffer" : 0,
            "byteLength" : 360,
            "byteOffset" : 63956
        },
        {
            "buffer" : 0,
            "byteLength" : 360,
            "byteOffset" : 64316
        },
        {
            "buffer" : 0,
            "byteLength" : 240,
            "byteOffset" : 64676
        },
        {
            "buffer" : 0,
            "byteLength" : 96,
            "byteOffset" : 64916
        },
        {
            "buffer" : 0,
            "byteLength" : 7488,
            "byteOffset" : 65012
        },
        {
            "buffer" : 0,
            "byteLength" : 7488,
            "byteOffset" : 72500
        }
    ],
    "buffers" : [
        {
            "byteLength" : 79988,
            "uri" : "data:application/octet-stream;base64,"
        }
    ]
}
