{
    "asset" : {
        "generator" : "Khronos glTF Blender I/O v0.9.36",
        "version" : "2.0"
    },
    "scene" : 0,
    "scenes" : [
        {
            "name" : "Scene",
            "nodes" : [
                0,
                1,
                2,
                3,
                4,
                5
            ]
        }
    ],
    "nodes" : [
        {
            "mesh" : 0,
            "name" : "Cylinder",
            "scale" : [
                0.16791382431983948,
                0.21586015820503235,
                0.16791382431983948
            ],
            "translation" : [
                0,
                0.21457798779010773,
                -2.013869285583496
            ]
        },
        {
            "mesh" : 1,
            "name" : "Cylinder.001",
            "scale" : [
                -0.022192994132637978,
                -0.3766949772834778,
                -0.022192994132637978
            ],
            "translation" : [
                0,
                0.6791250109672546,
                -2.013869285583496
            ]
        },
        {
            "mesh" : 2,
            "name" : "Mball.000",
            "scale" : [
                0.22974956035614014,
                0.23045828938484192,
                0.22762396931648254
            ],
            "translation" : [
                0.007522398605942726,
                1.1229780912399292,
                -2.0141730308532715
            ]
        },
        {
            "mesh" : 3,
            "name" : "Mball.002",
            "scale" : [
                0.13374869525432587,
                0.13416129350662231,
                0.13251128792762756
            ],
            "translation" : [
                -0.03744006156921387,
                0.9030821323394775,
                -2.1359262466430664
            ]
        },
        {
            "mesh" : 4,
            "name" : "Mball.003",
            "scale" : [
                0.15152496099472046,
                0.15199239552021027,
                0.15012308955192566
            ],
            "translation" : [
                -0.05319096893072128,
                0.8866449594497681,
                -1.8717913627624512
            ]
        },
        {
            "mesh" : 5,
            "name" : "Cylinder.002",
            "rotation" : [
                -0.9743658900260925,
                0.02729077823460102,
                -0.005485071800649166,
                0.22324036061763763
            ],
            "scale" : [
                -0.022192994132637978,
                -0.08720137178897858,
                -0.022192994132637978
            ],
            "translation" : [
                0.0038079111836850643,
                0.7064822316169739,
                -1.9695231914520264
            ]
        }
    ],
    "materials" : [
        {
            "doubleSided" : true,
            "name" : "Material.002",
            "pbrMetallicRoughness" : {
                "baseColorFactor" : [
                    0.013410543091595173,
                    0.01299913041293621,
                    0.013306323438882828,
                    1
                ],
                "metallicFactor" : 0,
                "roughnessFactor" : 0.5
            }
        },
        {
            "doubleSided" : true,
            "name" : "Dirt (Fake)",
            "pbrMetallicRoughness" : {
                "baseColorFactor" : [
                    0.04196657985448837,
                    0.01438096072524786,
                    0.007739483378827572,
                    1
                ],
                "metallicFactor" : 0,
                "roughnessFactor" : 0.5
            }
        },
        {
            "doubleSided" : true,
            "name" : "Wood",
            "pbrMetallicRoughness" : {
                "baseColorFactor" : [
                    0.13758426904678345,
                    0.06684835255146027,
                    0.03705311939120293,
                    1
                ],
                "metallicFactor" : 0,
                "roughnessFactor" : 0.5
            }
        },
        {
            "doubleSided" : true,
            "name" : "Green Dark",
            "pbrMetallicRoughness" : {
                "baseColorFactor" : [
                    0.08021984994411469,
                    0.20863687992095947,
                    0.10702312737703323,
                    1
                ],
                "metallicFactor" : 0,
                "roughnessFactor" : 0.7183406352996826
            }
        }
    ],
    "meshes" : [
        {
            "name" : "Cylinder",
            "primitives" : [
                {
                    "attributes" : {
                        "POSITION" : 0,
                        "NORMAL" : 1,
                        "TEXCOORD_0" : 2
                    },
                    "indices" : 3,
                    "material" : 0
                },
                {
                    "attributes" : {
                        "POSITION" : 4,
                        "NORMAL" : 5,
                        "TEXCOORD_0" : 6
                    },
                    "indices" : 7,
                    "material" : 1
                }
            ]
        },
        {
            "name" : "Cylinder.002",
            "primitives" : [
                {
                    "attributes" : {
                        "POSITION" : 8,
                        "NORMAL" : 9,
                        "TEXCOORD_0" : 10
                    },
                    "indices" : 11,
                    "material" : 2
                }
            ]
        },
        {
            "name" : "Mesh.000",
            "primitives" : [
                {
                    "attributes" : {
                        "POSITION" : 12,
                        "NORMAL" : 13
                    },
                    "indices" : 14,
                    "material" : 3
                }
            ]
        },
        {
            "name" : "Mesh.002",
            "primitives" : [
                {
                    "attributes" : {
                        "POSITION" : 15,
                        "NORMAL" : 16
                    },
                    "indices" : 14,
                    "material" : 3
                }
            ]
        },
        {
            "name" : "Mesh.003",
            "primitives" : [
                {
                    "attributes" : {
                        "POSITION" : 17,
                        "NORMAL" : 18
                    },
                    "indices" : 14,
                    "material" : 3
                }
            ]
        },
        {
            "name" : "Cylinder.001",
            "primitives" : [
                {
                    "attributes" : {
                        "POSITION" : 19,
                        "NORMAL" : 20,
                        "TEXCOORD_0" : 21
                    },
                    "indices" : 22,
                    "material" : 2
                }
            ]
        }
    ],
    "accessors" : [
        {
            "bufferView" : 0,
            "componentType" : 5126,
            "count" : 1159,
            "max" : [
                1.2599880695343018,
                0.6715142726898193,
                1.2557051181793213
            ],
            "min" : [
                -1.2599879503250122,
                -1,
                -1.2614166736602783
            ],
            "type" : "VEC3"
        },
        {
            "bufferView" : 1,
            "componentType" : 5126,
            "count" : 1159,
            "type" : "VEC3"
        },
        {
            "bufferView" : 2,
            "componentType" : 5126,
            "count" : 1159,
            "type" : "VEC2"
        },
        {
            "bufferView" : 3,
            "componentType" : 5123,
            "count" : 1875,
            "type" : "SCALAR"
        },
        {
            "bufferView" : 4,
            "componentType" : 5126,
            "count" : 33,
            "max" : [
                1.0847344398498535,
                0.4654189944267273,
                1.0810470581054688
            ],
            "min" : [
                -1.084734320640564,
                0.4654189944267273,
                -1.085964322090149
            ],
            "type" : "VEC3"
        },
        {
            "bufferView" : 5,
            "componentType" : 5126,
            "count" : 33,
            "type" : "VEC3"
        },
        {
            "bufferView" : 6,
            "componentType" : 5126,
            "count" : 33,
            "type" : "VEC2"
        },
        {
            "bufferView" : 7,
            "componentType" : 5123,
            "count" : 93,
            "type" : "SCALAR"
        },
        {
            "bufferView" : 8,
            "componentType" : 5126,
            "count" : 30,
            "max" : [
                0.9510565400123596,
                1,
                0.8090170621871948
            ],
            "min" : [
                -0.9510564804077148,
                -1,
                -1
            ],
            "type" : "VEC3"
        },
        {
            "bufferView" : 9,
            "componentType" : 5126,
            "count" : 30,
            "type" : "VEC3"
        },
        {
            "bufferView" : 10,
            "componentType" : 5126,
            "count" : 30,
            "type" : "VEC2"
        },
        {
            "bufferView" : 11,
            "componentType" : 5123,
            "count" : 48,
            "type" : "SCALAR"
        },
        {
            "bufferView" : 12,
            "componentType" : 5126,
            "count" : 624,
            "max" : [
                1.1151094436645508,
                1.1151094436645508,
                1.1151094436645508
            ],
            "min" : [
                -1.1151094436645508,
                -1.1151094436645508,
                -1.1151094436645508
            ],
            "type" : "VEC3"
        },
        {
            "bufferView" : 13,
            "componentType" : 5126,
            "count" : 624,
            "type" : "VEC3"
        },
        {
            "bufferView" : 14,
            "componentType" : 5123,
            "count" : 852,
            "type" : "SCALAR"
        },
        {
            "bufferView" : 15,
            "componentType" : 5126,
            "count" : 624,
            "max" : [
                1.1151094436645508,
                1.1151094436645508,
                1.1151094436645508
            ],
            "min" : [
                -1.1151094436645508,
                -1.1151094436645508,
                -1.1151094436645508
            ],
            "type" : "VEC3"
        },
        {
            "bufferView" : 16,
            "componentType" : 5126,
            "count" : 624,
            "type" : "VEC3"
        },
        {
            "bufferView" : 17,
            "componentType" : 5126,
            "count" : 624,
            "max" : [
                1.1151094436645508,
                1.1151094436645508,
                1.1151094436645508
            ],
            "min" : [
                -1.1151094436645508,
                -1.1151094436645508,
                -1.1151094436645508
            ],
            "type" : "VEC3"
        },
        {
            "bufferView" : 18,
            "componentType" : 5126,
            "count" : 624,
            "type" : "VEC3"
        },
        {
            "bufferView" : 19,
            "componentType" : 5126,
            "count" : 30,
            "max" : [
                3.7174336910247803,
                0.9229366183280945,
                0.9508428573608398
            ],
            "min" : [
                0.13125693798065186,
                -0.8754130005836487,
                -0.858174204826355
            ],
            "type" : "VEC3"
        },
        {
            "bufferView" : 20,
            "componentType" : 5126,
            "count" : 30,
            "type" : "VEC3"
        },
        {
            "bufferView" : 21,
            "componentType" : 5126,
            "count" : 30,
            "type" : "VEC2"
        },
        {
            "bufferView" : 22,
            "componentType" : 5123,
            "count" : 48,
            "type" : "SCALAR"
        }
    ],
    "bufferViews" : [
        {
            "buffer" : 0,
            "byteLength" : 13908,
            "byteOffset" : 0
        },
        {
            "buffer" : 0,
            "byteLength" : 13908,
            "byteOffset" : 13908
        },
        {
            "buffer" : 0,
            "byteLength" : 9272,
            "byteOffset" : 27816
        },
        {
            "buffer" : 0,
            "byteLength" : 3750,
            "byteOffset" : 37088
        },
        {
            "buffer" : 0,
            "byteLength" : 396,
            "byteOffset" : 40840
        },
        {
            "buffer" : 0,
            "byteLength" : 396,
            "byteOffset" : 41236
        },
        {
            "buffer" : 0,
            "byteLength" : 264,
            "byteOffset" : 41632
        },
        {
            "buffer" : 0,
            "byteLength" : 186,
            "byteOffset" : 41896
        },
        {
            "buffer" : 0,
            "byteLength" : 360,
            "byteOffset" : 42084
        },
        {
            "buffer" : 0,
            "byteLength" : 360,
            "byteOffset" : 42444
        },
        {
            "buffer" : 0,
            "byteLength" : 240,
            "byteOffset" : 42804
        },
        {
            "buffer" : 0,
            "byteLength" : 96,
            "byteOffset" : 43044
        },
        {
            "buffer" : 0,
            "byteLength" : 7488,
            "byteOffset" : 43140
        },
        {
            "buffer" : 0,
            "byteLength" : 7488,
            "byteOffset" : 50628
        },
        {
            "buffer" : 0,
            "byteLength" : 1704,
            "byteOffset" : 58116
        },
        {
            "buffer" : 0,
            "byteLength" : 7488,
            "byteOffset" : 59820
        },
        {
            "buffer" : 0,
            "byteLength" : 7488,
            "byteOffset" : 67308
        },
        {
            "buffer" : 0,
            "byteLength" : 7488,
            "byteOffset" : 74796
        },
        {
            "buffer" : 0,
            "byteLength" : 7488,
            "byteOffset" : 82284
        },
        {
            "buffer" : 0,
            "byteLength" : 360,
            "byteOffset" : 89772
        },
        {
            "buffer" : 0,
            "byteLength" : 360,
            "byteOffset" : 90132
        },
        {
            "buffer" : 0,
            "byteLength" : 240,
            "byteOffset" : 90492
        },
        {
            "buffer" : 0,
            "byteLength" : 96,
            "byteOffset" : 90732
        }
    ],
    "buffers" : [
        {
            "byteLength" : 90828,
            "uri" : "data:application/octet-stream;base64,"
        }
    ]
}
