{
    "asset" : {
        "generator" : "Khronos glTF Blender I/O v0.9.36",
        "version" : "2.0"
    },
    "scene" : 0,
    "scenes" : [
        {
            "extras" : {
                "glTF2ExportSettings" : {
                    "export_apply" : 1,
                    "export_extras" : 1,
                    "export_format" : "GLTF_EMBEDDED",
                    "export_selected" : 1
                }
            },
            "name" : "Scene",
            "nodes" : [
                0
            ]
        }
    ],
    "nodes" : [
        {
            "mesh" : 0,
            "name" : "Cylinder",
            "scale" : [
                1,
                2.9567816257476807,
                1
            ],
            "translation" : [
                -0.022844314575195312,
                3.0382943153381348,
                -0.06853322684764862
            ]
        }
    ],
    "materials" : [
        {
            "doubleSided" : true,
            "name" : "Material.005",
            "pbrMetallicRoughness" : {
                "baseColorFactor" : [
                    0.24228115379810333,
                    0.7230553030967712,
                    0.04518621414899826,
                    1
                ],
                "metallicFactor" : 0,
                "roughnessFactor" : 0.5
            }
        },
        {
            "doubleSided" : true,
            "name" : "Material.006",
            "pbrMetallicRoughness" : {
                "baseColorFactor" : [
                    0.25294655561447144,
                    0.2499527633190155,
                    0.15494459867477417,
                    1
                ],
                "metallicFactor" : 0,
                "roughnessFactor" : 0.692307710647583
            }
        },
        {
            "doubleSided" : true,
            "name" : "pringlesGreen",
            "pbrMetallicRoughness" : {
                "baseColorTexture" : {
                    "index" : 0,
                    "texCoord" : 0
                },
                "metallicFactor" : 0,
                "roughnessFactor" : 0.5
            }
        }
    ],
    "meshes" : [
        {
            "name" : "Cylinder.002",
            "primitives" : [
                {
                    "attributes" : {
                        "POSITION" : 0,
                        "NORMAL" : 1,
                        "TEXCOORD_0" : 2
                    },
                    "indices" : 3,
                    "material" : 0
                },
                {
                    "attributes" : {
                        "POSITION" : 4,
                        "NORMAL" : 5,
                        "TEXCOORD_0" : 6
                    },
                    "indices" : 7,
                    "material" : 1
                },
                {
                    "attributes" : {
                        "POSITION" : 8,
                        "NORMAL" : 9,
                        "TEXCOORD_0" : 10
                    },
                    "indices" : 11,
                    "material" : 2
                }
            ]
        }
    ],
    "textures" : [
        {
            "source" : 0
        }
    ],
    "images" : [
        {
            "bufferView" : 12,
            "mimeType" : "image/jpeg",
            "name" : "fnf4egh8-900"
        }
    ],
    "accessors" : [
        {
            "bufferView" : 0,
            "componentType" : 5126,
            "count" : 194,
            "max" : [
                1.025195598602295,
                1,
                1.0129307508468628
            ],
            "min" : [
                -1.0257878303527832,
                -1,
                -1.0183483362197876
            ],
            "type" : "VEC3"
        },
        {
            "bufferView" : 1,
            "componentType" : 5126,
            "count" : 194,
            "type" : "VEC3"
        },
        {
            "bufferView" : 2,
            "componentType" : 5126,
            "count" : 194,
            "type" : "VEC2"
        },
        {
            "bufferView" : 3,
            "componentType" : 5123,
            "count" : 567,
            "type" : "SCALAR"
        },
        {
            "bufferView" : 4,
            "componentType" : 5126,
            "count" : 198,
            "max" : [
                1.025195598602295,
                1.0075076818466187,
                1.03263521194458
            ],
            "min" : [
                -1.0257878303527832,
                1,
                -1.0183483362197876
            ],
            "type" : "VEC3"
        },
        {
            "bufferView" : 5,
            "componentType" : 5126,
            "count" : 198,
            "type" : "VEC3"
        },
        {
            "bufferView" : 6,
            "componentType" : 5126,
            "count" : 198,
            "type" : "VEC2"
        },
        {
            "bufferView" : 7,
            "componentType" : 5123,
            "count" : 648,
            "type" : "SCALAR"
        },
        {
            "bufferView" : 8,
            "componentType" : 5126,
            "count" : 132,
            "max" : [
                1,
                1,
                1
            ],
            "min" : [
                -1,
                -1,
                -1
            ],
            "type" : "VEC3"
        },
        {
            "bufferView" : 9,
            "componentType" : 5126,
            "count" : 132,
            "type" : "VEC3"
        },
        {
            "bufferView" : 10,
            "componentType" : 5126,
            "count" : 132,
            "type" : "VEC2"
        },
        {
            "bufferView" : 11,
            "componentType" : 5123,
            "count" : 576,
            "type" : "SCALAR"
        }
    ],
    "bufferViews" : [
        {
            "buffer" : 0,
            "byteLength" : 2328,
            "byteOffset" : 0
        },
        {
            "buffer" : 0,
            "byteLength" : 2328,
            "byteOffset" : 2328
        },
        {
            "buffer" : 0,
            "byteLength" : 1552,
            "byteOffset" : 4656
        },
        {
            "buffer" : 0,
            "byteLength" : 1134,
            "byteOffset" : 6208
        },
        {
            "buffer" : 0,
            "byteLength" : 2376,
            "byteOffset" : 7344
        },
        {
            "buffer" : 0,
            "byteLength" : 2376,
            "byteOffset" : 9720
        },
        {
            "buffer" : 0,
            "byteLength" : 1584,
            "byteOffset" : 12096
        },
        {
            "buffer" : 0,
            "byteLength" : 1296,
            "byteOffset" : 13680
        },
        {
            "buffer" : 0,
            "byteLength" : 1584,
            "byteOffset" : 14976
        },
        {
            "buffer" : 0,
            "byteLength" : 1584,
            "byteOffset" : 16560
        },
        {
            "buffer" : 0,
            "byteLength" : 1056,
            "byteOffset" : 18144
        },
        {
            "buffer" : 0,
            "byteLength" : 1152,
            "byteOffset" : 19200
        },
        {
            "buffer" : 0,
            "byteLength" : 41284,
            "byteOffset" : 20352
        }
    ],
    "buffers" : [
        {
            "byteLength" : 61636,
            "uri" : "data:application/octet-stream;base64,"
        }
    ]
}
