{
    "asset" : {
        "generator" : "Khronos glTF Blender I/O v0.9.36",
        "version" : "2.0"
    },
    "scene" : 0,
    "scenes" : [
        {
            "name" : "Scene",
            "nodes" : [
                0,
                1,
                2
            ]
        }
    ],
    "nodes" : [
        {
            "mesh" : 0,
            "name" : "Cube.009",
            "scale" : [
                0.21586185693740845,
                0.21586185693740845,
                0.21586185693740845
            ],
            "translation" : [
                -5.955278396606445,
                0.2167540341615677,
                5.463940620422363
            ]
        },
        {
            "mesh" : 1,
            "name" : "Cube.010",
            "scale" : [
                0.21586185693740845,
                0.21586185693740845,
                0.21586185693740845
            ],
            "translation" : [
                -7.18671989440918,
                0.2167540341615677,
                4.861678123474121
            ]
        },
        {
            "mesh" : 2,
            "name" : "Cube.008",
            "scale" : [
                -1.5,
                -1.180411696434021,
                -0.10000000149011612
            ],
            "translation" : [
                -6.573880195617676,
                1.1796284914016724,
                5.149397373199463
            ]
        }
    ],
    "materials" : [
        {
            "doubleSided" : true,
            "name" : "Single Couch Black",
            "pbrMetallicRoughness" : {
                "baseColorFactor" : [
                    0,
                    0,
                    0,
                    1
                ],
                "metallicFactor" : 0,
                "roughnessFactor" : 0.40833333134651184
            }
        },
        {
            "doubleSided" : true,
            "name" : "Couch Leg",
            "pbrMetallicRoughness" : {}
        },
        {
            "doubleSided" : true,
            "name" : "Marble (Black)",
            "pbrMetallicRoughness" : {
                "baseColorTexture" : {
                    "index" : 0,
                    "texCoord" : 0
                },
                "metallicFactor" : 0,
                "roughnessFactor" : 0.5
            }
        },
        {
            "doubleSided" : true,
            "name" : "Wood",
            "pbrMetallicRoughness" : {
                "baseColorTexture" : {
                    "index" : 1,
                    "texCoord" : 0
                },
                "metallicFactor" : 0,
                "roughnessFactor" : 1
            }
        }
    ],
    "meshes" : [
        {
            "name" : "Cube.019",
            "primitives" : [
                {
                    "attributes" : {
                        "POSITION" : 0,
                        "TEXCOORD_0" : 1
                    },
                    "indices" : 2,
                    "material" : 0
                },
                {
                    "attributes" : {
                        "POSITION" : 3,
                        "TEXCOORD_0" : 4
                    },
                    "indices" : 5,
                    "material" : 1
                }
            ]
        },
        {
            "name" : "Cube.021",
            "primitives" : [
                {
                    "attributes" : {
                        "POSITION" : 6,
                        "TEXCOORD_0" : 7
                    },
                    "indices" : 8,
                    "material" : 0
                },
                {
                    "attributes" : {
                        "POSITION" : 9,
                        "TEXCOORD_0" : 10
                    },
                    "indices" : 11,
                    "material" : 1
                }
            ]
        },
        {
            "name" : "Cube.018",
            "primitives" : [
                {
                    "attributes" : {
                        "POSITION" : 12,
                        "TEXCOORD_0" : 13
                    },
                    "indices" : 14,
                    "material" : 2
                },
                {
                    "attributes" : {
                        "POSITION" : 15,
                        "TEXCOORD_0" : 16
                    },
                    "indices" : 17,
                    "material" : 3
                }
            ]
        }
    ],
    "textures" : [
        {
            "source" : 0
        },
        {
            "source" : 1
        }
    ],
    "images" : [
        {
            "bufferView" : 15,
            "mimeType" : "image/jpeg",
            "name" : "Marble05_rgh"
        },
        {
            "bufferView" : 19,
            "mimeType" : "image/jpeg",
            "name" : "Wood_020_basecolor"
        }
    ],
    "accessors" : [
        {
            "bufferView" : 0,
            "componentType" : 5126,
            "count" : 52,
            "max" : [
                1,
                1,
                0.8668049573898315
            ],
            "min" : [
                -1,
                -1,
                -1
            ],
            "type" : "VEC3"
        },
        {
            "bufferView" : 1,
            "componentType" : 5126,
            "count" : 52,
            "type" : "VEC2"
        },
        {
            "bufferView" : 2,
            "componentType" : 5123,
            "count" : 84,
            "type" : "SCALAR"
        },
        {
            "bufferView" : 3,
            "componentType" : 5126,
            "count" : 20,
            "max" : [
                0.8239994049072266,
                1.094711422920227,
                0.7142464518547058
            ],
            "min" : [
                -0.8239984512329102,
                1,
                -0.8239988684654236
            ],
            "type" : "VEC3"
        },
        {
            "bufferView" : 4,
            "componentType" : 5126,
            "count" : 20,
            "type" : "VEC2"
        },
        {
            "bufferView" : 5,
            "componentType" : 5123,
            "count" : 36,
            "type" : "SCALAR"
        },
        {
            "bufferView" : 6,
            "componentType" : 5126,
            "count" : 68,
            "max" : [
                1,
                1.094711422920227,
                0.8668049573898315
            ],
            "min" : [
                -1,
                -1,
                -1
            ],
            "type" : "VEC3"
        },
        {
            "bufferView" : 7,
            "componentType" : 5126,
            "count" : 68,
            "type" : "VEC2"
        },
        {
            "bufferView" : 8,
            "componentType" : 5123,
            "count" : 114,
            "type" : "SCALAR"
        },
        {
            "bufferView" : 9,
            "componentType" : 5126,
            "count" : 4,
            "max" : [
                -0.7908370494842529,
                1.094711422920227,
                0.7142464518547058
            ],
            "min" : [
                -0.8239984512329102,
                1,
                -0.8239988684654236
            ],
            "type" : "VEC3"
        },
        {
            "bufferView" : 10,
            "componentType" : 5126,
            "count" : 4,
            "type" : "VEC2"
        },
        {
            "bufferView" : 11,
            "componentType" : 5123,
            "count" : 6,
            "type" : "SCALAR"
        },
        {
            "bufferView" : 12,
            "componentType" : 5126,
            "count" : 84,
            "max" : [
                1,
                1,
                1
            ],
            "min" : [
                -1,
                0.1951960325241089,
                -1
            ],
            "type" : "VEC3"
        },
        {
            "bufferView" : 13,
            "componentType" : 5126,
            "count" : 84,
            "type" : "VEC2"
        },
        {
            "bufferView" : 14,
            "componentType" : 5123,
            "count" : 126,
            "type" : "SCALAR"
        },
        {
            "bufferView" : 16,
            "componentType" : 5126,
            "count" : 168,
            "max" : [
                1.13310968875885,
                1,
                5.016780853271484
            ],
            "min" : [
                -1.133762240409851,
                0.7070749998092651,
                -5.0252366065979
            ],
            "type" : "VEC3"
        },
        {
            "bufferView" : 17,
            "componentType" : 5126,
            "count" : 168,
            "type" : "VEC2"
        },
        {
            "bufferView" : 18,
            "componentType" : 5123,
            "count" : 282,
            "type" : "SCALAR"
        }
    ],
    "bufferViews" : [
        {
            "buffer" : 0,
            "byteLength" : 624,
            "byteOffset" : 0
        },
        {
            "buffer" : 0,
            "byteLength" : 416,
            "byteOffset" : 624
        },
        {
            "buffer" : 0,
            "byteLength" : 168,
            "byteOffset" : 1040
        },
        {
            "buffer" : 0,
            "byteLength" : 240,
            "byteOffset" : 1208
        },
        {
            "buffer" : 0,
            "byteLength" : 160,
            "byteOffset" : 1448
        },
        {
            "buffer" : 0,
            "byteLength" : 72,
            "byteOffset" : 1608
        },
        {
            "buffer" : 0,
            "byteLength" : 816,
            "byteOffset" : 1680
        },
        {
            "buffer" : 0,
            "byteLength" : 544,
            "byteOffset" : 2496
        },
        {
            "buffer" : 0,
            "byteLength" : 228,
            "byteOffset" : 3040
        },
        {
            "buffer" : 0,
            "byteLength" : 48,
            "byteOffset" : 3268
        },
        {
            "buffer" : 0,
            "byteLength" : 32,
            "byteOffset" : 3316
        },
        {
            "buffer" : 0,
            "byteLength" : 12,
            "byteOffset" : 3348
        },
        {
            "buffer" : 0,
            "byteLength" : 1008,
            "byteOffset" : 3360
        },
        {
            "buffer" : 0,
            "byteLength" : 672,
            "byteOffset" : 4368
        },
        {
            "buffer" : 0,
            "byteLength" : 252,
            "byteOffset" : 5040
        },
        {
            "buffer" : 0,
            "byteLength" : 1417740,
            "byteOffset" : 5292
        },
        {
            "buffer" : 0,
            "byteLength" : 2016,
            "byteOffset" : 1423032
        },
        {
            "buffer" : 0,
            "byteLength" : 1344,
            "byteOffset" : 1425048
        },
        {
            "buffer" : 0,
            "byteLength" : 564,
            "byteOffset" : 1426392
        },
        {
            "buffer" : 0,
            "byteLength" : 236083,
            "byteOffset" : 1426956
        }
    ],
    "buffers" : [
        {
            "byteLength" : 1663040,
            "uri" : "data:application/octet-stream;base64,"
        }
    ]
}
