{
    "asset" : {
        "generator" : "Khronos glTF Blender I/O v0.9.36",
        "version" : "2.0"
    },
    "scene" : 0,
    "scenes" : [
        {
            "name" : "Scene",
            "nodes" : [
                0,
                1,
                2
            ]
        }
    ],
    "nodes" : [
        {
            "mesh" : 0,
            "name" : "Pillow (Back)",
            "rotation" : [
                0,
                -0.12016202509403229,
                0,
                0.9927542805671692
            ],
            "scale" : [
                0.0270441472530365,
                0.23597507178783417,
                0.9991284012794495
            ],
            "translation" : [
                -5.5142035484313965,
                0.6591823697090149,
                7.706930637359619
            ]
        },
        {
            "mesh" : 1,
            "name" : "Pillow (Seat)",
            "rotation" : [
                -0.08496744185686111,
                -0.08496743440628052,
                0.7019832730293274,
                0.7019833326339722
            ],
            "scale" : [
                0.029462598264217377,
                0.20922759175300598,
                1.0021936893463135
            ],
            "translation" : [
                -5.3388800621032715,
                0.3938233256340027,
                7.750003814697266
            ]
        },
        {
            "mesh" : 2,
            "name" : "Seating",
            "rotation" : [
                0,
                -0.12016202509403229,
                0,
                0.9927542805671692
            ],
            "scale" : [
                0.05027899518609047,
                0.4399999976158142,
                1
            ],
            "translation" : [
                -5.5920209884643555,
                0.4400060474872589,
                7.687812805175781
            ]
        }
    ],
    "materials" : [
        {
            "doubleSided" : true,
            "name" : "Cloth (White)",
            "pbrMetallicRoughness" : {
                "baseColorTexture" : {
                    "index" : 0,
                    "texCoord" : 0
                },
                "metallicFactor" : 0,
                "roughnessFactor" : 0.5
            }
        },
        {
            "doubleSided" : true,
            "name" : "Marble (Black)",
            "pbrMetallicRoughness" : {
                "baseColorTexture" : {
                    "index" : 1,
                    "texCoord" : 0
                },
                "metallicFactor" : 0,
                "roughnessFactor" : 0.5
            }
        }
    ],
    "meshes" : [
        {
            "name" : "Cube.002",
            "primitives" : [
                {
                    "attributes" : {
                        "POSITION" : 0,
                        "TEXCOORD_0" : 1
                    },
                    "indices" : 2,
                    "material" : 0
                }
            ]
        },
        {
            "name" : "Cube.003",
            "primitives" : [
                {
                    "attributes" : {
                        "POSITION" : 3,
                        "TEXCOORD_0" : 4
                    },
                    "indices" : 5,
                    "material" : 0
                }
            ]
        },
        {
            "name" : "Cube.001",
            "primitives" : [
                {
                    "attributes" : {
                        "POSITION" : 6,
                        "TEXCOORD_0" : 7
                    },
                    "indices" : 8,
                    "material" : 1
                }
            ]
        }
    ],
    "textures" : [
        {
            "source" : 0
        },
        {
            "source" : 1
        }
    ],
    "images" : [
        {
            "bufferView" : 3,
            "mimeType" : "image/jpeg",
            "name" : "Fabric32_col"
        },
        {
            "bufferView" : 10,
            "mimeType" : "image/jpeg",
            "name" : "Marble05_rgh"
        }
    ],
    "accessors" : [
        {
            "bufferView" : 0,
            "componentType" : 5126,
            "count" : 13440,
            "max" : [
                1.0000001192092896,
                1.0000001192092896,
                1.0000001192092896
            ],
            "min" : [
                -1.0000001192092896,
                -1.0267912149429321,
                -1.0000001192092896
            ],
            "type" : "VEC3"
        },
        {
            "bufferView" : 1,
            "componentType" : 5126,
            "count" : 13440,
            "type" : "VEC2"
        },
        {
            "bufferView" : 2,
            "componentType" : 5123,
            "count" : 20160,
            "type" : "SCALAR"
        },
        {
            "bufferView" : 4,
            "componentType" : 5126,
            "count" : 11648,
            "max" : [
                1.0000001192092896,
                1.0000001192092896,
                1.0000001192092896
            ],
            "min" : [
                -1.0644471645355225,
                -1.0000001192092896,
                -1.0000001192092896
            ],
            "type" : "VEC3"
        },
        {
            "bufferView" : 5,
            "componentType" : 5126,
            "count" : 11648,
            "type" : "VEC2"
        },
        {
            "bufferView" : 6,
            "componentType" : 5123,
            "count" : 17472,
            "type" : "SCALAR"
        },
        {
            "bufferView" : 7,
            "componentType" : 5126,
            "count" : 54,
            "max" : [
                8.926325798034668,
                1,
                1
            ],
            "min" : [
                -1,
                -1,
                -1
            ],
            "type" : "VEC3"
        },
        {
            "bufferView" : 8,
            "componentType" : 5126,
            "count" : 54,
            "type" : "VEC2"
        },
        {
            "bufferView" : 9,
            "componentType" : 5123,
            "count" : 84,
            "type" : "SCALAR"
        }
    ],
    "bufferViews" : [
        {
            "buffer" : 0,
            "byteLength" : 161280,
            "byteOffset" : 0
        },
        {
            "buffer" : 0,
            "byteLength" : 107520,
            "byteOffset" : 161280
        },
        {
            "buffer" : 0,
            "byteLength" : 40320,
            "byteOffset" : 268800
        },
        {
            "buffer" : 0,
            "byteLength" : 329698,
            "byteOffset" : 309120
        },
        {
            "buffer" : 0,
            "byteLength" : 139776,
            "byteOffset" : 638820
        },
        {
            "buffer" : 0,
            "byteLength" : 93184,
            "byteOffset" : 778596
        },
        {
            "buffer" : 0,
            "byteLength" : 34944,
            "byteOffset" : 871780
        },
        {
            "buffer" : 0,
            "byteLength" : 648,
            "byteOffset" : 906724
        },
        {
            "buffer" : 0,
            "byteLength" : 432,
            "byteOffset" : 907372
        },
        {
            "buffer" : 0,
            "byteLength" : 168,
            "byteOffset" : 907804
        },
        {
            "buffer" : 0,
            "byteLength" : 1417740,
            "byteOffset" : 907972
        }
    ],
    "buffers" : [
        {
            "byteLength" : 2325712,
            "uri" : "data:application/octet-stream;base64,"
        }
    ]
}
