{
    "asset" : {
        "generator" : "Khronos glTF Blender I/O v0.9.36",
        "version" : "2.0"
    },
    "scene" : 0,
    "scenes" : [
        {
            "name" : "Scene",
            "nodes" : [
                0,
                1,
                2
            ]
        }
    ],
    "nodes" : [
        {
            "mesh" : 0,
            "name" : "Single Couch 1",
            "rotation" : [
                0,
                -0.5032386183738708,
                0,
                0.8641474843025208
            ],
            "scale" : [
                0.7671521306037903,
                0.7671521306037903,
                0.7671521306037903
            ],
            "translation" : [
                -1.9331060647964478,
                0.0010978432837873697,
                8.423065185546875
            ]
        },
        {
            "mesh" : 1,
            "name" : "Single Couch 2",
            "rotation" : [
                0,
                0.8714568018913269,
                0,
                0.49047228693962097
            ],
            "scale" : [
                0.7671522498130798,
                0.7671521306037903,
                0.7671522498130798
            ],
            "translation" : [
                -1.7113362550735474,
                0.0010978432837873697,
                8.813910484313965
            ]
        },
        {
            "mesh" : 2,
            "name" : "Single Couch 3",
            "rotation" : [
                0,
                0.9695372581481934,
                0,
                -0.2449437975883484
            ],
            "scale" : [
                0.7671521306037903,
                0.7671521306037903,
                0.7671521306037903
            ],
            "translation" : [
                -2.175518035888672,
                0.0010978432837873697,
                8.823273658752441
            ]
        }
    ],
    "materials" : [
        {
            "doubleSided" : true,
            "name" : "Single Couch White",
            "pbrMetallicRoughness" : {
                "baseColorFactor" : [
                    1,
                    1,
                    1,
                    1
                ],
                "metallicFactor" : 0,
                "roughnessFactor" : 0.0833333432674408
            }
        },
        {
            "doubleSided" : true,
            "name" : "Long Couch Color",
            "pbrMetallicRoughness" : {
                "baseColorFactor" : [
                    0.05628056824207306,
                    0.05478246882557869,
                    0.05780280753970146,
                    1
                ],
                "metallicFactor" : 0,
                "roughnessFactor" : 1
            }
        },
        {
            "doubleSided" : true,
            "name" : "Single Couch Black",
            "pbrMetallicRoughness" : {
                "baseColorFactor" : [
                    0,
                    0,
                    0,
                    1
                ],
                "metallicFactor" : 0,
                "roughnessFactor" : 0.40833333134651184
            }
        }
    ],
    "meshes" : [
        {
            "name" : "Circle.003",
            "primitives" : [
                {
                    "attributes" : {
                        "POSITION" : 0,
                        "TEXCOORD_0" : 1
                    },
                    "indices" : 2,
                    "material" : 0
                }
            ]
        },
        {
            "name" : "Circle.004",
            "primitives" : [
                {
                    "attributes" : {
                        "POSITION" : 3,
                        "TEXCOORD_0" : 4
                    },
                    "indices" : 2,
                    "material" : 1
                }
            ]
        },
        {
            "name" : "Circle.005",
            "primitives" : [
                {
                    "attributes" : {
                        "POSITION" : 5,
                        "TEXCOORD_0" : 6
                    },
                    "indices" : 2,
                    "material" : 2
                }
            ]
        }
    ],
    "accessors" : [
        {
            "bufferView" : 0,
            "componentType" : 5126,
            "count" : 868,
            "max" : [
                0.25980764627456665,
                0.4141860604286194,
                0.2970832288265228
            ],
            "min" : [
                -0.25980764627456665,
                0,
                -0.2970832288265228
            ],
            "type" : "VEC3"
        },
        {
            "bufferView" : 1,
            "componentType" : 5126,
            "count" : 868,
            "type" : "VEC2"
        },
        {
            "bufferView" : 2,
            "componentType" : 5123,
            "count" : 1413,
            "type" : "SCALAR"
        },
        {
            "bufferView" : 3,
            "componentType" : 5126,
            "count" : 868,
            "max" : [
                0.25980764627456665,
                0.4141860604286194,
                0.2970832288265228
            ],
            "min" : [
                -0.25980764627456665,
                0,
                -0.2970832288265228
            ],
            "type" : "VEC3"
        },
        {
            "bufferView" : 4,
            "componentType" : 5126,
            "count" : 868,
            "type" : "VEC2"
        },
        {
            "bufferView" : 5,
            "componentType" : 5126,
            "count" : 868,
            "max" : [
                0.25980764627456665,
                0.4141860604286194,
                0.2970832288265228
            ],
            "min" : [
                -0.25980764627456665,
                0,
                -0.2970832288265228
            ],
            "type" : "VEC3"
        },
        {
            "bufferView" : 6,
            "componentType" : 5126,
            "count" : 868,
            "type" : "VEC2"
        }
    ],
    "bufferViews" : [
        {
            "buffer" : 0,
            "byteLength" : 10416,
            "byteOffset" : 0
        },
        {
            "buffer" : 0,
            "byteLength" : 6944,
            "byteOffset" : 10416
        },
        {
            "buffer" : 0,
            "byteLength" : 2826,
            "byteOffset" : 17360
        },
        {
            "buffer" : 0,
            "byteLength" : 10416,
            "byteOffset" : 20188
        },
        {
            "buffer" : 0,
            "byteLength" : 6944,
            "byteOffset" : 30604
        },
        {
            "buffer" : 0,
            "byteLength" : 10416,
            "byteOffset" : 37548
        },
        {
            "buffer" : 0,
            "byteLength" : 6944,
            "byteOffset" : 47964
        }
    ],
    "buffers" : [
        {
            "byteLength" : 54908,
            "uri" : "data:application/octet-stream;base64,"
        }
    ]
}
