{
    "asset" : {
        "generator" : "Khronos glTF Blender I/O v0.9.36",
        "version" : "2.0"
    },
    "scene" : 0,
    "scenes" : [
        {
            "name" : "Scene",
            "nodes" : [
                0,
                1,
                2
            ]
        }
    ],
    "nodes" : [
        {
            "name" : "Light",
            "rotation" : [
                0.16907575726509094,
                0.7558803558349609,
                -0.27217137813568115,
                0.570947527885437
            ],
            "translation" : [
                4.076245307922363,
                5.903861999511719,
                -1.0054539442062378
            ]
        },
        {
            "name" : "Camera",
            "rotation" : [
                0.483536034822464,
                0.33687159419059753,
                -0.20870360732078552,
                0.7804827094078064
            ],
            "translation" : [
                7.358891487121582,
                4.958309173583984,
                6.925790786743164
            ]
        },
        {
            "mesh" : 0,
            "name" : "tv",
            "rotation" : [
                -0.7071067094802856,
                0,
                0,
                0.70710688829422
            ],
            "scale" : [
                -0.02017473243176937,
                -3.215543031692505,
                -2.009714365005493
            ],
            "translation" : [
                -0.8534685373306274,
                0.5499736666679382,
                -0.30991873145103455
            ]
        }
    ],
    "materials" : [
        {
            "doubleSided" : true,
            "name" : "n body",
            "pbrMetallicRoughness" : {
                "baseColorFactor" : [
                    0.010021788068115711,
                    0.010021788068115711,
                    0.010021788068115711,
                    1
                ],
                "metallicFactor" : 0,
                "roughnessFactor" : 0.7333333492279053
            }
        },
        {
            "doubleSided" : true,
            "name" : "body.003",
            "pbrMetallicRoughness" : {
                "baseColorTexture" : {
                    "index" : 0,
                    "texCoord" : 0
                },
                "metallicFactor" : 0,
                "roughnessFactor" : 0.33589744567871094
            }
        },
        {
            "doubleSided" : true,
            "name" : "sound",
            "pbrMetallicRoughness" : {
                "baseColorTexture" : {
                    "index" : 1,
                    "texCoord" : 0
                },
                "metallicFactor" : 0,
                "roughnessFactor" : 0.5
            }
        }
    ],
    "meshes" : [
        {
            "name" : "Cube.002",
            "primitives" : [
                {
                    "attributes" : {
                        "POSITION" : 0,
                        "NORMAL" : 1,
                        "TEXCOORD_0" : 2,
                        "TEXCOORD_1" : 3
                    },
                    "indices" : 4,
                    "material" : 0
                },
                {
                    "attributes" : {
                        "POSITION" : 5,
                        "NORMAL" : 6,
                        "TEXCOORD_0" : 7,
                        "TEXCOORD_1" : 8
                    },
                    "indices" : 9,
                    "material" : 1
                },
                {
                    "attributes" : {
                        "POSITION" : 10,
                        "NORMAL" : 11,
                        "TEXCOORD_0" : 12,
                        "TEXCOORD_1" : 13
                    },
                    "indices" : 14,
                    "material" : 2
                }
            ]
        }
    ],
    "textures" : [
        {
            "source" : 0
        },
        {
            "source" : 1
        }
    ],
    "images" : [
        {
            "bufferView" : 10,
            "mimeType" : "image/jpeg",
            "name" : "wood"
        },
        {
            "bufferView" : 16,
            "mimeType" : "image/jpeg",
            "name" : "sound2"
        }
    ],
    "accessors" : [
        {
            "bufferView" : 0,
            "componentType" : 5126,
            "count" : 126,
            "max" : [
                7.912503242492676,
                0.12390674650669098,
                -0.10563451796770096
            ],
            "min" : [
                -93.83984375,
                -0.12270724773406982,
                -0.47372177243232727
            ],
            "type" : "VEC3"
        },
        {
            "bufferView" : 1,
            "componentType" : 5126,
            "count" : 126,
            "type" : "VEC3"
        },
        {
            "bufferView" : 2,
            "componentType" : 5126,
            "count" : 126,
            "type" : "VEC2"
        },
        {
            "bufferView" : 3,
            "componentType" : 5126,
            "count" : 126,
            "type" : "VEC2"
        },
        {
            "bufferView" : 4,
            "componentType" : 5123,
            "count" : 144,
            "type" : "SCALAR"
        },
        {
            "bufferView" : 5,
            "componentType" : 5126,
            "count" : 85,
            "max" : [
                7.263118743896484,
                0.407370924949646,
                0.26901328563690186
            ],
            "min" : [
                -91.87078857421875,
                -0.41749900579452515,
                -1.9894572496414185
            ],
            "type" : "VEC3"
        },
        {
            "bufferView" : 6,
            "componentType" : 5126,
            "count" : 85,
            "type" : "VEC3"
        },
        {
            "bufferView" : 7,
            "componentType" : 5126,
            "count" : 85,
            "type" : "VEC2"
        },
        {
            "bufferView" : 8,
            "componentType" : 5126,
            "count" : 85,
            "type" : "VEC2"
        },
        {
            "bufferView" : 9,
            "componentType" : 5123,
            "count" : 135,
            "type" : "SCALAR"
        },
        {
            "bufferView" : 11,
            "componentType" : 5126,
            "count" : 16,
            "max" : [
                -10.178558349609375,
                0.4073708951473236,
                0.09392291307449341
            ],
            "min" : [
                -74.42910766601562,
                -0.41749894618988037,
                -1.6205713748931885
            ],
            "type" : "VEC3"
        },
        {
            "bufferView" : 12,
            "componentType" : 5126,
            "count" : 16,
            "type" : "VEC3"
        },
        {
            "bufferView" : 13,
            "componentType" : 5126,
            "count" : 16,
            "type" : "VEC2"
        },
        {
            "bufferView" : 14,
            "componentType" : 5126,
            "count" : 16,
            "type" : "VEC2"
        },
        {
            "bufferView" : 15,
            "componentType" : 5123,
            "count" : 24,
            "type" : "SCALAR"
        }
    ],
    "bufferViews" : [
        {
            "buffer" : 0,
            "byteLength" : 1512,
            "byteOffset" : 0
        },
        {
            "buffer" : 0,
            "byteLength" : 1512,
            "byteOffset" : 1512
        },
        {
            "buffer" : 0,
            "byteLength" : 1008,
            "byteOffset" : 3024
        },
        {
            "buffer" : 0,
            "byteLength" : 1008,
            "byteOffset" : 4032
        },
        {
            "buffer" : 0,
            "byteLength" : 288,
            "byteOffset" : 5040
        },
        {
            "buffer" : 0,
            "byteLength" : 1020,
            "byteOffset" : 5328
        },
        {
            "buffer" : 0,
            "byteLength" : 1020,
            "byteOffset" : 6348
        },
        {
            "buffer" : 0,
            "byteLength" : 680,
            "byteOffset" : 7368
        },
        {
            "buffer" : 0,
            "byteLength" : 680,
            "byteOffset" : 8048
        },
        {
            "buffer" : 0,
            "byteLength" : 270,
            "byteOffset" : 8728
        },
        {
            "buffer" : 0,
            "byteLength" : 637029,
            "byteOffset" : 9000
        },
        {
            "buffer" : 0,
            "byteLength" : 192,
            "byteOffset" : 646032
        },
        {
            "buffer" : 0,
            "byteLength" : 192,
            "byteOffset" : 646224
        },
        {
            "buffer" : 0,
            "byteLength" : 128,
            "byteOffset" : 646416
        },
        {
            "buffer" : 0,
            "byteLength" : 128,
            "byteOffset" : 646544
        },
        {
            "buffer" : 0,
            "byteLength" : 48,
            "byteOffset" : 646672
        },
        {
            "buffer" : 0,
            "byteLength" : 930552,
            "byteOffset" : 646720
        }
    ],
    "buffers" : [
        {
            "byteLength" : 1577272,
            "uri" : "data:application/octet-stream;base64,"
        }
    ]
}
