{
    "asset" : {
        "generator" : "Khronos glTF Blender I/O v0.9.36",
        "version" : "2.0"
    },
    "scene" : 0,
    "scenes" : [
        {
            "name" : "Scene",
            "nodes" : [
                0,
                1,
                2,
                3,
                4,
                5,
                6
            ]
        }
    ],
    "nodes" : [
        {
            "name" : "Light",
            "rotation" : [
                0.16907575726509094,
                0.7558803558349609,
                -0.27217137813568115,
                0.570947527885437
            ],
            "translation" : [
                4.076245307922363,
                11.113090515136719,
                -1.0054539442062378
            ]
        },
        {
            "name" : "Camera",
            "rotation" : [
                0.4509992003440857,
                0.5451229214668274,
                -0.47994449734687805,
                0.5187427401542664
            ],
            "translation" : [
                23.264501571655273,
                1.7427031993865967,
                -0.020302772521972656
            ]
        },
        {
            "mesh" : 0,
            "name" : "Torus",
            "scale" : [
                75.40776824951172,
                40.99581527709961,
                75.40776824951172
            ],
            "translation" : [
                0,
                8.879042625427246,
                -83.34495544433594
            ]
        },
        {
            "mesh" : 1,
            "name" : "Plane",
            "rotation" : [
                0,
                0.10246063023805618,
                0,
                0.9947370886802673
            ],
            "scale" : [
                5.486386775970459,
                5.486386775970459,
                5.486386775970459
            ],
            "translation" : [
                17.52606201171875,
                0,
                4.818741321563721
            ]
        },
        {
            "mesh" : 2,
            "name" : "Plane.001",
            "rotation" : [
                0,
                0.09724614024162292,
                0,
                0.9952603578567505
            ],
            "scale" : [
                5.950109004974365,
                5.950109004974365,
                5.950109004974365
            ],
            "translation" : [
                17.54173469543457,
                8.845478057861328,
                4.853231430053711
            ]
        },
        {
            "mesh" : 3,
            "name" : "Cube.002",
            "rotation" : [
                0,
                0.09558498859405518,
                0,
                0.995421290397644
            ],
            "scale" : [
                -0.19585442543029785,
                -0.19585442543029785,
                -0.19585442543029785
            ],
            "translation" : [
                21.633832931518555,
                0.2155228704214096,
                -1.408250331878662
            ]
        },
        {
            "mesh" : 4,
            "name" : "Cube.003",
            "rotation" : [
                0,
                0.09558498859405518,
                0,
                0.995421290397644
            ],
            "scale" : [
                -0.19585442543029785,
                -0.19585442543029785,
                -0.19585442543029785
            ],
            "translation" : [
                11.292000770568848,
                0.20875270664691925,
                0.7032294273376465
            ]
        }
    ],
    "materials" : [
        {
            "doubleSided" : true,
            "name" : "Material.001",
            "pbrMetallicRoughness" : {
                "baseColorFactor" : [
                    0.05221938341856003,
                    0.0508551150560379,
                    0.0508551150560379,
                    1
                ],
                "metallicFactor" : 0,
                "roughnessFactor" : 0.5
            }
        },
        {
            "alphaMode" : "BLEND",
            "doubleSided" : true,
            "name" : "Material.004",
            "pbrMetallicRoughness" : {
                "baseColorFactor" : [
                    0.2509189546108246,
                    0.3860163986682892,
                    0.8000000715255737,
                    0.392857164144516
                ],
                "metallicFactor" : 0,
                "roughnessFactor" : 0.5
            }
        }
    ],
    "meshes" : [
        {
            "name" : "Torus",
            "primitives" : [
                {
                    "attributes" : {
                        "POSITION" : 0,
                        "NORMAL" : 1,
                        "TEXCOORD_0" : 2
                    },
                    "indices" : 3,
                    "material" : 0
                },
                {
                    "attributes" : {
                        "POSITION" : 4,
                        "NORMAL" : 5,
                        "TEXCOORD_0" : 6
                    },
                    "indices" : 7,
                    "material" : 1
                }
            ]
        },
        {
            "name" : "Plane",
            "primitives" : [
                {
                    "attributes" : {
                        "POSITION" : 8,
                        "NORMAL" : 9,
                        "TEXCOORD_0" : 10
                    },
                    "indices" : 11,
                    "material" : 0
                }
            ]
        },
        {
            "name" : "Plane.001",
            "primitives" : [
                {
                    "attributes" : {
                        "POSITION" : 12,
                        "NORMAL" : 13,
                        "TEXCOORD_0" : 14
                    },
                    "indices" : 15,
                    "material" : 0
                }
            ]
        },
        {
            "name" : "Cube.002",
            "primitives" : [
                {
                    "attributes" : {
                        "POSITION" : 16,
                        "NORMAL" : 17,
                        "TEXCOORD_0" : 18
                    },
                    "indices" : 19,
                    "material" : 0
                }
            ]
        },
        {
            "name" : "Cube.003",
            "primitives" : [
                {
                    "attributes" : {
                        "POSITION" : 20,
                        "NORMAL" : 21,
                        "TEXCOORD_0" : 22
                    },
                    "indices" : 23,
                    "material" : 0
                }
            ]
        }
    ],
    "accessors" : [
        {
            "bufferView" : 0,
            "componentType" : 5126,
            "count" : 5740,
            "max" : [
                1.2489995956420898,
                0.2491944283246994,
                1.2489995956420898
            ],
            "min" : [
                -1.2489995956420898,
                -0.21650636196136475,
                -1.2489995956420898
            ],
            "type" : "VEC3"
        },
        {
            "bufferView" : 1,
            "componentType" : 5126,
            "count" : 5740,
            "type" : "VEC3"
        },
        {
            "bufferView" : 2,
            "componentType" : 5126,
            "count" : 5740,
            "type" : "VEC2"
        },
        {
            "bufferView" : 3,
            "componentType" : 5123,
            "count" : 8682,
            "type" : "SCALAR"
        },
        {
            "bufferView" : 4,
            "componentType" : 5126,
            "count" : 1912,
            "max" : [
                1.2489995956420898,
                0.2491944283246994,
                1.2489995956420898
            ],
            "min" : [
                -1.2489995956420898,
                -0.21650636196136475,
                -1.2489995956420898
            ],
            "type" : "VEC3"
        },
        {
            "bufferView" : 5,
            "componentType" : 5126,
            "count" : 1912,
            "type" : "VEC3"
        },
        {
            "bufferView" : 6,
            "componentType" : 5126,
            "count" : 1912,
            "type" : "VEC2"
        },
        {
            "bufferView" : 7,
            "componentType" : 5123,
            "count" : 2868,
            "type" : "SCALAR"
        },
        {
            "bufferView" : 8,
            "componentType" : 5126,
            "count" : 4,
            "max" : [
                1,
                0,
                1
            ],
            "min" : [
                -1,
                0,
                -1
            ],
            "type" : "VEC3"
        },
        {
            "bufferView" : 9,
            "componentType" : 5126,
            "count" : 4,
            "type" : "VEC3"
        },
        {
            "bufferView" : 10,
            "componentType" : 5126,
            "count" : 4,
            "type" : "VEC2"
        },
        {
            "bufferView" : 11,
            "componentType" : 5123,
            "count" : 6,
            "type" : "SCALAR"
        },
        {
            "bufferView" : 12,
            "componentType" : 5126,
            "count" : 32,
            "max" : [
                1,
                0,
                1
            ],
            "min" : [
                -1,
                -0.0641600638628006,
                -1
            ],
            "type" : "VEC3"
        },
        {
            "bufferView" : 13,
            "componentType" : 5126,
            "count" : 32,
            "type" : "VEC3"
        },
        {
            "bufferView" : 14,
            "componentType" : 5126,
            "count" : 32,
            "type" : "VEC2"
        },
        {
            "bufferView" : 15,
            "componentType" : 5123,
            "count" : 60,
            "type" : "SCALAR"
        },
        {
            "bufferView" : 16,
            "componentType" : 5126,
            "count" : 64,
            "max" : [
                1.0000171661376953,
                1,
                1
            ],
            "min" : [
                -1,
                -43.18110275268555,
                -54.78704833984375
            ],
            "type" : "VEC3"
        },
        {
            "bufferView" : 17,
            "componentType" : 5126,
            "count" : 64,
            "type" : "VEC3"
        },
        {
            "bufferView" : 18,
            "componentType" : 5126,
            "count" : 64,
            "type" : "VEC2"
        },
        {
            "bufferView" : 19,
            "componentType" : 5123,
            "count" : 96,
            "type" : "SCALAR"
        },
        {
            "bufferView" : 20,
            "componentType" : 5126,
            "count" : 76,
            "max" : [
                1.0000200271606445,
                1,
                1
            ],
            "min" : [
                -1,
                -43.18110275268555,
                -54.997352600097656
            ],
            "type" : "VEC3"
        },
        {
            "bufferView" : 21,
            "componentType" : 5126,
            "count" : 76,
            "type" : "VEC3"
        },
        {
            "bufferView" : 22,
            "componentType" : 5126,
            "count" : 76,
            "type" : "VEC2"
        },
        {
            "bufferView" : 23,
            "componentType" : 5123,
            "count" : 120,
            "type" : "SCALAR"
        }
    ],
    "bufferViews" : [
        {
            "buffer" : 0,
            "byteLength" : 68880,
            "byteOffset" : 0
        },
        {
            "buffer" : 0,
            "byteLength" : 68880,
            "byteOffset" : 68880
        },
        {
            "buffer" : 0,
            "byteLength" : 45920,
            "byteOffset" : 137760
        },
        {
            "buffer" : 0,
            "byteLength" : 17364,
            "byteOffset" : 183680
        },
        {
            "buffer" : 0,
            "byteLength" : 22944,
            "byteOffset" : 201044
        },
        {
            "buffer" : 0,
            "byteLength" : 22944,
            "byteOffset" : 223988
        },
        {
            "buffer" : 0,
            "byteLength" : 15296,
            "byteOffset" : 246932
        },
        {
            "buffer" : 0,
            "byteLength" : 5736,
            "byteOffset" : 262228
        },
        {
            "buffer" : 0,
            "byteLength" : 48,
            "byteOffset" : 267964
        },
        {
            "buffer" : 0,
            "byteLength" : 48,
            "byteOffset" : 268012
        },
        {
            "buffer" : 0,
            "byteLength" : 32,
            "byteOffset" : 268060
        },
        {
            "buffer" : 0,
            "byteLength" : 12,
            "byteOffset" : 268092
        },
        {
            "buffer" : 0,
            "byteLength" : 384,
            "byteOffset" : 268104
        },
        {
            "buffer" : 0,
            "byteLength" : 384,
            "byteOffset" : 268488
        },
        {
            "buffer" : 0,
            "byteLength" : 256,
            "byteOffset" : 268872
        },
        {
            "buffer" : 0,
            "byteLength" : 120,
            "byteOffset" : 269128
        },
        {
            "buffer" : 0,
            "byteLength" : 768,
            "byteOffset" : 269248
        },
        {
            "buffer" : 0,
            "byteLength" : 768,
            "byteOffset" : 270016
        },
        {
            "buffer" : 0,
            "byteLength" : 512,
            "byteOffset" : 270784
        },
        {
            "buffer" : 0,
            "byteLength" : 192,
            "byteOffset" : 271296
        },
        {
            "buffer" : 0,
            "byteLength" : 912,
            "byteOffset" : 271488
        },
        {
            "buffer" : 0,
            "byteLength" : 912,
            "byteOffset" : 272400
        },
        {
            "buffer" : 0,
            "byteLength" : 608,
            "byteOffset" : 273312
        },
        {
            "buffer" : 0,
            "byteLength" : 240,
            "byteOffset" : 273920
        }
    ],
    "buffers" : [
        {
            "byteLength" : 274160,
            "uri" : "data:application/octet-stream;base64,"
        }
    ]
}
