{
    "asset" : {
        "generator" : "Khronos glTF Blender I/O v0.9.36",
        "version" : "2.0"
    },
    "scene" : 0,
    "scenes" : [
        {
            "name" : "Scene",
            "nodes" : [
                0,
                1,
                2
            ]
        }
    ],
    "nodes" : [
        {
            "mesh" : 0,
            "name" : "cilindergroot",
            "scale" : [
                1,
                1.4660258293151855,
                1
            ],
            "translation" : [
                1.0716058015823364,
                1.099734902381897,
                2.237139940261841
            ]
        },
        {
            "mesh" : 1,
            "name" : "deksel",
            "scale" : [
                1.0273451805114746,
                1.4660258293151855,
                1.0273451805114746
            ],
            "translation" : [
                1.0716058015823364,
                1.2311267852783203,
                2.237139940261841
            ]
        },
        {
            "mesh" : 2,
            "name" : "Torus",
            "rotation" : [
                0,
                0,
                -0.7063049674034119,
                0.7079076766967773
            ],
            "scale" : [
                0.18276292085647583,
                0.3251241445541382,
                0.34417039155960083
            ],
            "translation" : [
                1.086366057395935,
                2.691556453704834,
                2.240950584411621
            ]
        }
    ],
    "materials" : [
        {
            "doubleSided" : true,
            "name" : "Material.001",
            "pbrMetallicRoughness" : {
                "metallicFactor" : 0.8507462739944458,
                "roughnessFactor" : 0.35820892453193665
            }
        }
    ],
    "meshes" : [
        {
            "name" : "Cylinder.001",
            "primitives" : [
                {
                    "attributes" : {
                        "POSITION" : 0,
                        "NORMAL" : 1,
                        "TEXCOORD_0" : 2
                    },
                    "indices" : 3,
                    "material" : 0
                }
            ]
        },
        {
            "name" : "Cylinder.000",
            "primitives" : [
                {
                    "attributes" : {
                        "POSITION" : 4,
                        "NORMAL" : 5,
                        "TANGENT" : 6,
                        "TEXCOORD_0" : 7
                    },
                    "indices" : 8,
                    "material" : 0
                }
            ]
        },
        {
            "name" : "Torus",
            "primitives" : [
                {
                    "attributes" : {
                        "POSITION" : 9,
                        "NORMAL" : 10,
                        "TEXCOORD_0" : 11
                    },
                    "indices" : 12,
                    "material" : 0
                }
            ]
        }
    ],
    "accessors" : [
        {
            "bufferView" : 0,
            "componentType" : 5126,
            "count" : 1344,
            "max" : [
                1.24491286277771,
                1,
                1.2449129819869995
            ],
            "min" : [
                -1.24491286277771,
                -1,
                -1.2449129819869995
            ],
            "type" : "VEC3"
        },
        {
            "bufferView" : 1,
            "componentType" : 5126,
            "count" : 1344,
            "type" : "VEC3"
        },
        {
            "bufferView" : 2,
            "componentType" : 5126,
            "count" : 1344,
            "type" : "VEC2"
        },
        {
            "bufferView" : 3,
            "componentType" : 5123,
            "count" : 2292,
            "type" : "SCALAR"
        },
        {
            "bufferView" : 4,
            "componentType" : 5126,
            "count" : 564,
            "max" : [
                1.24491286277771,
                1.0185623168945312,
                1.2449129819869995
            ],
            "min" : [
                -1.24491286277771,
                0.9040232300758362,
                -1.2449129819869995
            ],
            "type" : "VEC3"
        },
        {
            "bufferView" : 5,
            "componentType" : 5126,
            "count" : 564,
            "type" : "VEC3"
        },
        {
            "bufferView" : 6,
            "componentType" : 5126,
            "count" : 564,
            "type" : "VEC4"
        },
        {
            "bufferView" : 7,
            "componentType" : 5126,
            "count" : 564,
            "type" : "VEC2"
        },
        {
            "bufferView" : 8,
            "componentType" : 5123,
            "count" : 756,
            "type" : "SCALAR"
        },
        {
            "bufferView" : 9,
            "componentType" : 5126,
            "count" : 1182,
            "max" : [
                -0.02961135283112526,
                0.25,
                1.247992992401123
            ],
            "min" : [
                -1.25,
                -0.25,
                -1.2479931116104126
            ],
            "type" : "VEC3"
        },
        {
            "bufferView" : 10,
            "componentType" : 5126,
            "count" : 1182,
            "type" : "VEC3"
        },
        {
            "bufferView" : 11,
            "componentType" : 5126,
            "count" : 1182,
            "type" : "VEC2"
        },
        {
            "bufferView" : 12,
            "componentType" : 5123,
            "count" : 1800,
            "type" : "SCALAR"
        }
    ],
    "bufferViews" : [
        {
            "buffer" : 0,
            "byteLength" : 16128,
            "byteOffset" : 0
        },
        {
            "buffer" : 0,
            "byteLength" : 16128,
            "byteOffset" : 16128
        },
        {
            "buffer" : 0,
            "byteLength" : 10752,
            "byteOffset" : 32256
        },
        {
            "buffer" : 0,
            "byteLength" : 4584,
            "byteOffset" : 43008
        },
        {
            "buffer" : 0,
            "byteLength" : 6768,
            "byteOffset" : 47592
        },
        {
            "buffer" : 0,
            "byteLength" : 6768,
            "byteOffset" : 54360
        },
        {
            "buffer" : 0,
            "byteLength" : 9024,
            "byteOffset" : 61128
        },
        {
            "buffer" : 0,
            "byteLength" : 4512,
            "byteOffset" : 70152
        },
        {
            "buffer" : 0,
            "byteLength" : 1512,
            "byteOffset" : 74664
        },
        {
            "buffer" : 0,
            "byteLength" : 14184,
            "byteOffset" : 76176
        },
        {
            "buffer" : 0,
            "byteLength" : 14184,
            "byteOffset" : 90360
        },
        {
            "buffer" : 0,
            "byteLength" : 9456,
            "byteOffset" : 104544
        },
        {
            "buffer" : 0,
            "byteLength" : 3600,
            "byteOffset" : 114000
        }
    ],
    "buffers" : [
        {
            "byteLength" : 117600,
            "uri" : "data:application/octet-stream;base64,"
        }
    ]
}
