{
    "asset" : {
        "generator" : "Khronos glTF Blender I/O v1.0.5",
        "version" : "2.0"
    },
    "scene" : 0,
    "scenes" : [
        {
            "name" : "Scene",
            "nodes" : [
                0,
                1,
                2,
                3,
                4,
                5,
                6,
                7,
                8,
                9,
                10
            ]
        }
    ],
    "nodes" : [
        {
            "name" : "Light",
            "rotation" : [
                0.16907575726509094,
                0.7558803558349609,
                -0.27217137813568115,
                0.570947527885437
            ],
            "translation" : [
                -47.92375564575195,
                47.90386199951172,
                20.99454689025879
            ]
        },
        {
            "name" : "Camera",
            "rotation" : [
                0.483536034822464,
                0.33687159419059753,
                -0.20870360732078552,
                0.7804827094078064
            ],
            "translation" : [
                3.4480721950531006,
                1.2755787372589111,
                8.317180633544922
            ]
        },
        {
            "mesh" : 0,
            "name" : "Gebouw buitenkant",
            "scale" : [
                15,
                0.5,
                25
            ],
            "translation" : [
                -48.43218994140625,
                52.48393630981445,
                19.98809242248535
            ]
        },
        {
            "mesh" : 1,
            "name" : "Cube",
            "scale" : [
                3.559999942779541,
                5.639999866485596,
                18.040000915527344
            ],
            "translation" : [
                0.25291818380355835,
                4.536734580993652,
                -5.318300247192383
            ]
        },
        {
            "mesh" : 2,
            "name" : "Cube.001",
            "scale" : [
                10.279999732971191,
                4.859999656677246,
                2.5999999046325684
            ],
            "translation" : [
                -47.858497619628906,
                45.51155471801758,
                3.436746597290039
            ]
        },
        {
            "mesh" : 3,
            "name" : "Cube.002",
            "scale" : [
                10.279999732971191,
                4.859999656677246,
                2.5999999046325684
            ],
            "translation" : [
                -47.858497619628906,
                45.51155471801758,
                10.436746597290039
            ]
        },
        {
            "mesh" : 4,
            "name" : "Cube.003",
            "scale" : [
                10.279999732971191,
                4.859999656677246,
                2.5999999046325684
            ],
            "translation" : [
                -47.858497619628906,
                45.51155471801758,
                17.43674659729004
            ]
        },
        {
            "mesh" : 5,
            "name" : "Cube.004",
            "scale" : [
                10.279999732971191,
                4.859999656677246,
                2.5999999046325684
            ],
            "translation" : [
                -47.858497619628906,
                45.51155471801758,
                24.43674659729004
            ]
        },
        {
            "name" : "Light.001",
            "rotation" : [
                0.16907575726509094,
                0.7558803558349609,
                -0.27217137813568115,
                0.570947527885437
            ],
            "translation" : [
                -47.92375564575195,
                47.90386199951172,
                9.994546890258789
            ]
        },
        {
            "name" : "Light.002",
            "rotation" : [
                0.16907575726509094,
                0.7558803558349609,
                -0.27217137813568115,
                0.570947527885437
            ],
            "translation" : [
                -47.92375564575195,
                47.90386199951172,
                28.99454689025879
            ]
        },
        {
            "name" : "Light.003",
            "rotation" : [
                0.16907575726509094,
                0.7558803558349609,
                -0.27217137813568115,
                0.570947527885437
            ],
            "translation" : [
                -47.92375564575195,
                47.90386199951172,
                36.994544982910156
            ]
        }
    ],
    "materials" : [
        {
            "doubleSided" : true,
            "name" : "Material.001",
            "pbrMetallicRoughness" : {}
        },
        {
            "doubleSided" : true,
            "name" : "Material.002",
            "pbrMetallicRoughness" : {}
        }
    ],
    "meshes" : [
        {
            "name" : "Cube.001",
            "primitives" : [
                {
                    "attributes" : {
                        "POSITION" : 0,
                        "NORMAL" : 1,
                        "TEXCOORD_0" : 2
                    },
                    "indices" : 3,
                    "material" : 0
                },
                {
                    "attributes" : {
                        "POSITION" : 4,
                        "NORMAL" : 5,
                        "TEXCOORD_0" : 6
                    },
                    "indices" : 7,
                    "material" : 1
                }
            ]
        },
        {
            "name" : "Cube.003",
            "primitives" : [
                {
                    "attributes" : {
                        "POSITION" : 8,
                        "NORMAL" : 9,
                        "TEXCOORD_0" : 10
                    },
                    "indices" : 11
                }
            ]
        },
        {
            "name" : "Cube",
            "primitives" : [
                {
                    "attributes" : {
                        "POSITION" : 12,
                        "NORMAL" : 13,
                        "TEXCOORD_0" : 14
                    },
                    "indices" : 11
                }
            ]
        },
        {
            "name" : "Cube.002",
            "primitives" : [
                {
                    "attributes" : {
                        "POSITION" : 15,
                        "NORMAL" : 16,
                        "TEXCOORD_0" : 17
                    },
                    "indices" : 11
                }
            ]
        },
        {
            "name" : "Cube.004",
            "primitives" : [
                {
                    "attributes" : {
                        "POSITION" : 18,
                        "NORMAL" : 19,
                        "TEXCOORD_0" : 20
                    },
                    "indices" : 11
                }
            ]
        },
        {
            "name" : "Cube.005",
            "primitives" : [
                {
                    "attributes" : {
                        "POSITION" : 21,
                        "NORMAL" : 22,
                        "TEXCOORD_0" : 23
                    },
                    "indices" : 11
                }
            ]
        }
    ],
    "accessors" : [
        {
            "bufferView" : 0,
            "componentType" : 5126,
            "count" : 271,
            "max" : [
                1.0020580291748047,
                -1,
                1.0020582675933838
            ],
            "min" : [
                -1.0020580291748047,
                -24.344139099121094,
                -1.0020582675933838
            ],
            "type" : "VEC3"
        },
        {
            "bufferView" : 1,
            "componentType" : 5126,
            "count" : 271,
            "type" : "VEC3"
        },
        {
            "bufferView" : 2,
            "componentType" : 5126,
            "count" : 271,
            "type" : "VEC2"
        },
        {
            "bufferView" : 3,
            "componentType" : 5123,
            "count" : 525,
            "type" : "SCALAR"
        },
        {
            "bufferView" : 4,
            "componentType" : 5126,
            "count" : 64,
            "max" : [
                1.0020580291748047,
                1,
                1.0020582675933838
            ],
            "min" : [
                -1.0020580291748047,
                -24.34413719177246,
                -1.0020582675933838
            ],
            "type" : "VEC3"
        },
        {
            "bufferView" : 5,
            "componentType" : 5126,
            "count" : 64,
            "type" : "VEC3"
        },
        {
            "bufferView" : 6,
            "componentType" : 5126,
            "count" : 64,
            "type" : "VEC2"
        },
        {
            "bufferView" : 7,
            "componentType" : 5123,
            "count" : 114,
            "type" : "SCALAR"
        },
        {
            "bufferView" : 8,
            "componentType" : 5126,
            "count" : 24,
            "max" : [
                1,
                1,
                1
            ],
            "min" : [
                -1,
                -1,
                -1
            ],
            "type" : "VEC3"
        },
        {
            "bufferView" : 9,
            "componentType" : 5126,
            "count" : 24,
            "type" : "VEC3"
        },
        {
            "bufferView" : 10,
            "componentType" : 5126,
            "count" : 24,
            "type" : "VEC2"
        },
        {
            "bufferView" : 11,
            "componentType" : 5123,
            "count" : 36,
            "type" : "SCALAR"
        },
        {
            "bufferView" : 12,
            "componentType" : 5126,
            "count" : 24,
            "max" : [
                1,
                1,
                1
            ],
            "min" : [
                -1,
                -1,
                -1
            ],
            "type" : "VEC3"
        },
        {
            "bufferView" : 13,
            "componentType" : 5126,
            "count" : 24,
            "type" : "VEC3"
        },
        {
            "bufferView" : 14,
            "componentType" : 5126,
            "count" : 24,
            "type" : "VEC2"
        },
        {
            "bufferView" : 15,
            "componentType" : 5126,
            "count" : 24,
            "max" : [
                1,
                1,
                1
            ],
            "min" : [
                -1,
                -1,
                -1
            ],
            "type" : "VEC3"
        },
        {
            "bufferView" : 16,
            "componentType" : 5126,
            "count" : 24,
            "type" : "VEC3"
        },
        {
            "bufferView" : 17,
            "componentType" : 5126,
            "count" : 24,
            "type" : "VEC2"
        },
        {
            "bufferView" : 18,
            "componentType" : 5126,
            "count" : 24,
            "max" : [
                1,
                1,
                1
            ],
            "min" : [
                -1,
                -1,
                -1
            ],
            "type" : "VEC3"
        },
        {
            "bufferView" : 19,
            "componentType" : 5126,
            "count" : 24,
            "type" : "VEC3"
        },
        {
            "bufferView" : 20,
            "componentType" : 5126,
            "count" : 24,
            "type" : "VEC2"
        },
        {
            "bufferView" : 21,
            "componentType" : 5126,
            "count" : 24,
            "max" : [
                1,
                1,
                1
            ],
            "min" : [
                -1,
                -1,
                -1
            ],
            "type" : "VEC3"
        },
        {
            "bufferView" : 22,
            "componentType" : 5126,
            "count" : 24,
            "type" : "VEC3"
        },
        {
            "bufferView" : 23,
            "componentType" : 5126,
            "count" : 24,
            "type" : "VEC2"
        }
    ],
    "bufferViews" : [
        {
            "buffer" : 0,
            "byteLength" : 3252,
            "byteOffset" : 0
        },
        {
            "buffer" : 0,
            "byteLength" : 3252,
            "byteOffset" : 3252
        },
        {
            "buffer" : 0,
            "byteLength" : 2168,
            "byteOffset" : 6504
        },
        {
            "buffer" : 0,
            "byteLength" : 1050,
            "byteOffset" : 8672
        },
        {
            "buffer" : 0,
            "byteLength" : 768,
            "byteOffset" : 9724
        },
        {
            "buffer" : 0,
            "byteLength" : 768,
            "byteOffset" : 10492
        },
        {
            "buffer" : 0,
            "byteLength" : 512,
            "byteOffset" : 11260
        },
        {
            "buffer" : 0,
            "byteLength" : 228,
            "byteOffset" : 11772
        },
        {
            "buffer" : 0,
            "byteLength" : 288,
            "byteOffset" : 12000
        },
        {
            "buffer" : 0,
            "byteLength" : 288,
            "byteOffset" : 12288
        },
        {
            "buffer" : 0,
            "byteLength" : 192,
            "byteOffset" : 12576
        },
        {
            "buffer" : 0,
            "byteLength" : 72,
            "byteOffset" : 12768
        },
        {
            "buffer" : 0,
            "byteLength" : 288,
            "byteOffset" : 12840
        },
        {
            "buffer" : 0,
            "byteLength" : 288,
            "byteOffset" : 13128
        },
        {
            "buffer" : 0,
            "byteLength" : 192,
            "byteOffset" : 13416
        },
        {
            "buffer" : 0,
            "byteLength" : 288,
            "byteOffset" : 13608
        },
        {
            "buffer" : 0,
            "byteLength" : 288,
            "byteOffset" : 13896
        },
        {
            "buffer" : 0,
            "byteLength" : 192,
            "byteOffset" : 14184
        },
        {
            "buffer" : 0,
            "byteLength" : 288,
            "byteOffset" : 14376
        },
        {
            "buffer" : 0,
            "byteLength" : 288,
            "byteOffset" : 14664
        },
        {
            "buffer" : 0,
            "byteLength" : 192,
            "byteOffset" : 14952
        },
        {
            "buffer" : 0,
            "byteLength" : 288,
            "byteOffset" : 15144
        },
        {
            "buffer" : 0,
            "byteLength" : 288,
            "byteOffset" : 15432
        },
        {
            "buffer" : 0,
            "byteLength" : 192,
            "byteOffset" : 15720
        }
    ],
    "buffers" : [
        {
            "byteLength" : 15912,
            "uri" : "data:application/octet-stream;base64,"
        }
    ]
}
