{
    "asset" : {
        "generator" : "Khronos glTF Blender I/O v0.9.36",
        "version" : "2.0"
    },
    "scene" : 0,
    "scenes" : [
        {
            "extras" : {
                "glTF2ExportSettings" : {
                    "export_apply" : 1,
                    "export_extras" : 1,
                    "export_format" : "GLTF_EMBEDDED",
                    "export_selected" : 1
                }
            },
            "name" : "Scene",
            "nodes" : [
                0,
                1,
                2,
                3,
                4
            ]
        }
    ],
    "nodes" : [
        {
            "name" : "Camera",
            "rotation" : [
                0.483536034822464,
                0.33687159419059753,
                -0.20870360732078552,
                0.7804827094078064
            ],
            "translation" : [
                7.358891487121582,
                4.958309173583984,
                6.925790786743164
            ]
        },
        {
            "mesh" : 0,
            "name" : "Cylinder",
            "scale" : [
                1.200865387916565,
                1.7608654499053955,
                1.200865387916565
            ]
        },
        {
            "mesh" : 1,
            "name" : "Cube",
            "rotation" : [
                -0.6613118052482605,
                0,
                0,
                0.7501111030578613
            ],
            "scale" : [
                0.29239198565483093,
                0.46085500717163086,
                -0.006391454488039017
            ],
            "translation" : [
                0.004480920732021332,
                2.1855928897857666,
                -0.08673995733261108
            ]
        },
        {
            "mesh" : 2,
            "name" : "Cylinder.001",
            "scale" : [
                1.200865387916565,
                1.7608654499053955,
                1.200865387916565
            ]
        },
        {
            "mesh" : 3,
            "name" : "Cylinder.002",
            "scale" : [
                1.200865387916565,
                1.7608654499053955,
                1.200865387916565
            ]
        }
    ],
    "materials" : [
        {
            "doubleSided" : true,
            "name" : "Material.002",
            "pbrMetallicRoughness" : {
                "baseColorFactor" : [
                    0.7230553030967712,
                    0.012286489829421043,
                    0.02518685907125473,
                    1
                ],
                "metallicFactor" : 0,
                "roughnessFactor" : 0.5
            }
        },
        {
            "doubleSided" : true,
            "name" : "colalogo",
            "pbrMetallicRoughness" : {
                "baseColorTexture" : {
                    "index" : 0,
                    "texCoord" : 0
                },
                "metallicFactor" : 0,
                "roughnessFactor" : 0.5
            }
        },
        {
            "doubleSided" : true,
            "name" : "Material.003",
            "pbrMetallicRoughness" : {
                "baseColorFactor" : [
                    0,
                    0,
                    0,
                    1
                ],
                "metallicFactor" : 0,
                "roughnessFactor" : 0.5
            }
        },
        {
            "doubleSided" : true,
            "name" : "Material.001",
            "pbrMetallicRoughness" : {
                "baseColorFactor" : [
                    0.2929520308971405,
                    0.2929520308971405,
                    0.2929520308971405,
                    1
                ],
                "metallicFactor" : 0,
                "roughnessFactor" : 0.5
            }
        },
        {
            "doubleSided" : true,
            "name" : "Material",
            "pbrMetallicRoughness" : {
                "baseColorFactor" : [
                    0.800000011920929,
                    0.800000011920929,
                    0.800000011920929,
                    1
                ],
                "metallicFactor" : 0,
                "roughnessFactor" : 0.4000000059604645
            }
        }
    ],
    "meshes" : [
        {
            "name" : "Cylinder",
            "primitives" : [
                {
                    "attributes" : {
                        "POSITION" : 0,
                        "NORMAL" : 1,
                        "TEXCOORD_0" : 2
                    },
                    "indices" : 3,
                    "material" : 0
                },
                {
                    "attributes" : {
                        "POSITION" : 4,
                        "NORMAL" : 5,
                        "TEXCOORD_0" : 6
                    },
                    "indices" : 7,
                    "material" : 1
                }
            ]
        },
        {
            "name" : "Cube.001",
            "primitives" : [
                {
                    "attributes" : {
                        "POSITION" : 8,
                        "NORMAL" : 9,
                        "TEXCOORD_0" : 10
                    },
                    "indices" : 11,
                    "material" : 2
                }
            ]
        },
        {
            "name" : "Cylinder.002",
            "primitives" : [
                {
                    "attributes" : {
                        "POSITION" : 12,
                        "NORMAL" : 13,
                        "TEXCOORD_0" : 14
                    },
                    "indices" : 15,
                    "material" : 3
                }
            ]
        },
        {
            "name" : "Cylinder.004",
            "primitives" : [
                {
                    "attributes" : {
                        "POSITION" : 16,
                        "NORMAL" : 17,
                        "TEXCOORD_0" : 18
                    },
                    "indices" : 19,
                    "material" : 4
                }
            ]
        }
    ],
    "textures" : [
        {
            "source" : 0
        }
    ],
    "images" : [
        {
            "bufferView" : 8,
            "mimeType" : "image/jpeg",
            "name" : "58443807_2246917128906723_676452259583754240_n"
        }
    ],
    "accessors" : [
        {
            "bufferView" : 0,
            "componentType" : 5126,
            "count" : 328,
            "max" : [
                1,
                1.2534451484680176,
                1
            ],
            "min" : [
                -1,
                -1.2534451484680176,
                -1
            ],
            "type" : "VEC3"
        },
        {
            "bufferView" : 1,
            "componentType" : 5126,
            "count" : 328,
            "type" : "VEC3"
        },
        {
            "bufferView" : 2,
            "componentType" : 5126,
            "count" : 328,
            "type" : "VEC2"
        },
        {
            "bufferView" : 3,
            "componentType" : 5123,
            "count" : 1332,
            "type" : "SCALAR"
        },
        {
            "bufferView" : 4,
            "componentType" : 5126,
            "count" : 99,
            "max" : [
                1,
                1,
                1
            ],
            "min" : [
                -1,
                -1,
                -1
            ],
            "type" : "VEC3"
        },
        {
            "bufferView" : 5,
            "componentType" : 5126,
            "count" : 99,
            "type" : "VEC3"
        },
        {
            "bufferView" : 6,
            "componentType" : 5126,
            "count" : 99,
            "type" : "VEC2"
        },
        {
            "bufferView" : 7,
            "componentType" : 5123,
            "count" : 384,
            "type" : "SCALAR"
        },
        {
            "bufferView" : 9,
            "componentType" : 5126,
            "count" : 482,
            "max" : [
                0.9585264921188354,
                1,
                0.9585264921188354
            ],
            "min" : [
                -0.9585264921188354,
                -1,
                -0.9585264921188354
            ],
            "type" : "VEC3"
        },
        {
            "bufferView" : 10,
            "componentType" : 5126,
            "count" : 482,
            "type" : "VEC3"
        },
        {
            "bufferView" : 11,
            "componentType" : 5126,
            "count" : 482,
            "type" : "VEC2"
        },
        {
            "bufferView" : 12,
            "componentType" : 5123,
            "count" : 876,
            "type" : "SCALAR"
        },
        {
            "bufferView" : 13,
            "componentType" : 5126,
            "count" : 320,
            "max" : [
                0.78849196434021,
                1.2534451484680176,
                0.7884919047355652
            ],
            "min" : [
                -0.7884920239448547,
                1.2087194919586182,
                -0.7884920835494995
            ],
            "type" : "VEC3"
        },
        {
            "bufferView" : 14,
            "componentType" : 5126,
            "count" : 320,
            "type" : "VEC3"
        },
        {
            "bufferView" : 15,
            "componentType" : 5126,
            "count" : 320,
            "type" : "VEC2"
        },
        {
            "bufferView" : 16,
            "componentType" : 5123,
            "count" : 564,
            "type" : "SCALAR"
        },
        {
            "bufferView" : 17,
            "componentType" : 5126,
            "count" : 416,
            "max" : [
                0.894245982170105,
                -1.104359745979309,
                0.894245982170105
            ],
            "min" : [
                -0.894245982170105,
                -1.2534451484680176,
                -0.8942460417747498
            ],
            "type" : "VEC3"
        },
        {
            "bufferView" : 18,
            "componentType" : 5126,
            "count" : 416,
            "type" : "VEC3"
        },
        {
            "bufferView" : 19,
            "componentType" : 5126,
            "count" : 416,
            "type" : "VEC2"
        },
        {
            "bufferView" : 20,
            "componentType" : 5123,
            "count" : 666,
            "type" : "SCALAR"
        }
    ],
    "bufferViews" : [
        {
            "buffer" : 0,
            "byteLength" : 3936,
            "byteOffset" : 0
        },
        {
            "buffer" : 0,
            "byteLength" : 3936,
            "byteOffset" : 3936
        },
        {
            "buffer" : 0,
            "byteLength" : 2624,
            "byteOffset" : 7872
        },
        {
            "buffer" : 0,
            "byteLength" : 2664,
            "byteOffset" : 10496
        },
        {
            "buffer" : 0,
            "byteLength" : 1188,
            "byteOffset" : 13160
        },
        {
            "buffer" : 0,
            "byteLength" : 1188,
            "byteOffset" : 14348
        },
        {
            "buffer" : 0,
            "byteLength" : 792,
            "byteOffset" : 15536
        },
        {
            "buffer" : 0,
            "byteLength" : 768,
            "byteOffset" : 16328
        },
        {
            "buffer" : 0,
            "byteLength" : 17021,
            "byteOffset" : 17096
        },
        {
            "buffer" : 0,
            "byteLength" : 5784,
            "byteOffset" : 34120
        },
        {
            "buffer" : 0,
            "byteLength" : 5784,
            "byteOffset" : 39904
        },
        {
            "buffer" : 0,
            "byteLength" : 3856,
            "byteOffset" : 45688
        },
        {
            "buffer" : 0,
            "byteLength" : 1752,
            "byteOffset" : 49544
        },
        {
            "buffer" : 0,
            "byteLength" : 3840,
            "byteOffset" : 51296
        },
        {
            "buffer" : 0,
            "byteLength" : 3840,
            "byteOffset" : 55136
        },
        {
            "buffer" : 0,
            "byteLength" : 2560,
            "byteOffset" : 58976
        },
        {
            "buffer" : 0,
            "byteLength" : 1128,
            "byteOffset" : 61536
        },
        {
            "buffer" : 0,
            "byteLength" : 4992,
            "byteOffset" : 62664
        },
        {
            "buffer" : 0,
            "byteLength" : 4992,
            "byteOffset" : 67656
        },
        {
            "buffer" : 0,
            "byteLength" : 3328,
            "byteOffset" : 72648
        },
        {
            "buffer" : 0,
            "byteLength" : 1332,
            "byteOffset" : 75976
        }
    ],
    "buffers" : [
        {
            "byteLength" : 77308,
            "uri" : "data:application/octet-stream;base64,"
        }
    ]
}
