{
    "asset" : {
        "generator" : "Khronos glTF Blender I/O v0.9.36",
        "version" : "2.0"
    },
    "scene" : 0,
    "scenes" : [
        {
            "name" : "Scene",
            "nodes" : [
                0,
                1,
                2,
                3
            ]
        }
    ],
    "nodes" : [
        {
            "mesh" : 0,
            "name" : "Cylinder",
            "scale" : [
                1.200865387916565,
                1.7608654499053955,
                1.200865387916565
            ]
        },
        {
            "mesh" : 1,
            "name" : "Cube",
            "rotation" : [
                -0.6613118052482605,
                0,
                0,
                0.7501111030578613
            ],
            "scale" : [
                0.29239198565483093,
                0.46085500717163086,
                -0.006391454488039017
            ],
            "translation" : [
                0.004480920732021332,
                2.1855928897857666,
                -0.08673995733261108
            ]
        },
        {
            "mesh" : 2,
            "name" : "Cylinder.001",
            "scale" : [
                1.200865387916565,
                1.7608654499053955,
                1.200865387916565
            ]
        },
        {
            "mesh" : 3,
            "name" : "Cylinder.002",
            "scale" : [
                1.200865387916565,
                1.7608654499053955,
                1.200865387916565
            ]
        }
    ],
    "materials" : [
        {
            "doubleSided" : true,
            "name" : "Material.002",
            "pbrMetallicRoughness" : {
                "baseColorFactor" : [
                    0.4958467185497284,
                    0.010199620388448238,
                    0.012070038355886936,
                    1
                ],
                "metallicFactor" : 0,
                "roughnessFactor" : 0.5
            }
        },
        {
            "doubleSided" : true,
            "name" : "Material.004",
            "pbrMetallicRoughness" : {
                "baseColorTexture" : {
                    "index" : 0,
                    "texCoord" : 0
                },
                "metallicFactor" : 0,
                "roughnessFactor" : 0.5
            }
        },
        {
            "doubleSided" : true,
            "name" : "Material.005",
            "pbrMetallicRoughness" : {
                "baseColorFactor" : [
                    0.854992687702179,
                    0.17144113779067993,
                    0.00334653677418828,
                    1
                ],
                "metallicFactor" : 0,
                "roughnessFactor" : 0.5
            }
        },
        {
            "doubleSided" : true,
            "name" : "Material.003",
            "pbrMetallicRoughness" : {
                "baseColorFactor" : [
                    0,
                    0,
                    0,
                    1
                ],
                "metallicFactor" : 0,
                "roughnessFactor" : 0.5
            }
        },
        {
            "doubleSided" : true,
            "name" : "Material.001",
            "pbrMetallicRoughness" : {
                "baseColorFactor" : [
                    0.2929520308971405,
                    0.2929520308971405,
                    0.2929520308971405,
                    1
                ],
                "metallicFactor" : 0,
                "roughnessFactor" : 0.5
            }
        },
        {
            "doubleSided" : true,
            "name" : "Material",
            "pbrMetallicRoughness" : {
                "baseColorFactor" : [
                    0.800000011920929,
                    0.800000011920929,
                    0.800000011920929,
                    1
                ],
                "metallicFactor" : 0,
                "roughnessFactor" : 0.4000000059604645
            }
        }
    ],
    "meshes" : [
        {
            "name" : "Cylinder",
            "primitives" : [
                {
                    "attributes" : {
                        "POSITION" : 0,
                        "NORMAL" : 1,
                        "TEXCOORD_0" : 2
                    },
                    "indices" : 3,
                    "material" : 0
                },
                {
                    "attributes" : {
                        "POSITION" : 4,
                        "NORMAL" : 5,
                        "TEXCOORD_0" : 6
                    },
                    "indices" : 7,
                    "material" : 1
                },
                {
                    "attributes" : {
                        "POSITION" : 8,
                        "NORMAL" : 9,
                        "TEXCOORD_0" : 10
                    },
                    "indices" : 11,
                    "material" : 2
                }
            ]
        },
        {
            "name" : "Cube.001",
            "primitives" : [
                {
                    "attributes" : {
                        "POSITION" : 12,
                        "NORMAL" : 13,
                        "TEXCOORD_0" : 14
                    },
                    "indices" : 15,
                    "material" : 3
                }
            ]
        },
        {
            "name" : "Cylinder.002",
            "primitives" : [
                {
                    "attributes" : {
                        "POSITION" : 16,
                        "NORMAL" : 17,
                        "TEXCOORD_0" : 18
                    },
                    "indices" : 19,
                    "material" : 4
                }
            ]
        },
        {
            "name" : "Cylinder.004",
            "primitives" : [
                {
                    "attributes" : {
                        "POSITION" : 20,
                        "NORMAL" : 21,
                        "TEXCOORD_0" : 22
                    },
                    "indices" : 23,
                    "material" : 5
                }
            ]
        }
    ],
    "textures" : [
        {
            "source" : 0
        }
    ],
    "images" : [
        {
            "bufferView" : 8,
            "mimeType" : "image/png",
            "name" : "fanta_label"
        }
    ],
    "accessors" : [
        {
            "bufferView" : 0,
            "componentType" : 5126,
            "count" : 262,
            "max" : [
                0.78849196434021,
                1.2534451484680176,
                0.7884919047355652
            ],
            "min" : [
                -0.7884920239448547,
                -1.2534451484680176,
                -0.7884920835494995
            ],
            "type" : "VEC3"
        },
        {
            "bufferView" : 1,
            "componentType" : 5126,
            "count" : 262,
            "type" : "VEC3"
        },
        {
            "bufferView" : 2,
            "componentType" : 5126,
            "count" : 262,
            "type" : "VEC2"
        },
        {
            "bufferView" : 3,
            "componentType" : 5123,
            "count" : 948,
            "type" : "SCALAR"
        },
        {
            "bufferView" : 4,
            "componentType" : 5126,
            "count" : 99,
            "max" : [
                1,
                1,
                1
            ],
            "min" : [
                -1,
                -1,
                -1
            ],
            "type" : "VEC3"
        },
        {
            "bufferView" : 5,
            "componentType" : 5126,
            "count" : 99,
            "type" : "VEC3"
        },
        {
            "bufferView" : 6,
            "componentType" : 5126,
            "count" : 99,
            "type" : "VEC2"
        },
        {
            "bufferView" : 7,
            "componentType" : 5123,
            "count" : 384,
            "type" : "SCALAR"
        },
        {
            "bufferView" : 9,
            "componentType" : 5126,
            "count" : 132,
            "max" : [
                1,
                1.2087194919586182,
                1
            ],
            "min" : [
                -1,
                -1.2087194919586182,
                -1
            ],
            "type" : "VEC3"
        },
        {
            "bufferView" : 10,
            "componentType" : 5126,
            "count" : 132,
            "type" : "VEC3"
        },
        {
            "bufferView" : 11,
            "componentType" : 5126,
            "count" : 132,
            "type" : "VEC2"
        },
        {
            "bufferView" : 12,
            "componentType" : 5123,
            "count" : 384,
            "type" : "SCALAR"
        },
        {
            "bufferView" : 13,
            "componentType" : 5126,
            "count" : 482,
            "max" : [
                0.9585264921188354,
                1,
                0.9585264921188354
            ],
            "min" : [
                -0.9585264921188354,
                -1,
                -0.9585264921188354
            ],
            "type" : "VEC3"
        },
        {
            "bufferView" : 14,
            "componentType" : 5126,
            "count" : 482,
            "type" : "VEC3"
        },
        {
            "bufferView" : 15,
            "componentType" : 5126,
            "count" : 482,
            "type" : "VEC2"
        },
        {
            "bufferView" : 16,
            "componentType" : 5123,
            "count" : 876,
            "type" : "SCALAR"
        },
        {
            "bufferView" : 17,
            "componentType" : 5126,
            "count" : 320,
            "max" : [
                0.78849196434021,
                1.2534451484680176,
                0.7884919047355652
            ],
            "min" : [
                -0.7884920239448547,
                1.2087194919586182,
                -0.7884920835494995
            ],
            "type" : "VEC3"
        },
        {
            "bufferView" : 18,
            "componentType" : 5126,
            "count" : 320,
            "type" : "VEC3"
        },
        {
            "bufferView" : 19,
            "componentType" : 5126,
            "count" : 320,
            "type" : "VEC2"
        },
        {
            "bufferView" : 20,
            "componentType" : 5123,
            "count" : 564,
            "type" : "SCALAR"
        },
        {
            "bufferView" : 21,
            "componentType" : 5126,
            "count" : 416,
            "max" : [
                0.894245982170105,
                -1.104359745979309,
                0.894245982170105
            ],
            "min" : [
                -0.894245982170105,
                -1.2534451484680176,
                -0.8942460417747498
            ],
            "type" : "VEC3"
        },
        {
            "bufferView" : 22,
            "componentType" : 5126,
            "count" : 416,
            "type" : "VEC3"
        },
        {
            "bufferView" : 23,
            "componentType" : 5126,
            "count" : 416,
            "type" : "VEC2"
        },
        {
            "bufferView" : 24,
            "componentType" : 5123,
            "count" : 666,
            "type" : "SCALAR"
        }
    ],
    "bufferViews" : [
        {
            "buffer" : 0,
            "byteLength" : 3144,
            "byteOffset" : 0
        },
        {
            "buffer" : 0,
            "byteLength" : 3144,
            "byteOffset" : 3144
        },
        {
            "buffer" : 0,
            "byteLength" : 2096,
            "byteOffset" : 6288
        },
        {
            "buffer" : 0,
            "byteLength" : 1896,
            "byteOffset" : 8384
        },
        {
            "buffer" : 0,
            "byteLength" : 1188,
            "byteOffset" : 10280
        },
        {
            "buffer" : 0,
            "byteLength" : 1188,
            "byteOffset" : 11468
        },
        {
            "buffer" : 0,
            "byteLength" : 792,
            "byteOffset" : 12656
        },
        {
            "buffer" : 0,
            "byteLength" : 768,
            "byteOffset" : 13448
        },
        {
            "buffer" : 0,
            "byteLength" : 322773,
            "byteOffset" : 14216
        },
        {
            "buffer" : 0,
            "byteLength" : 1584,
            "byteOffset" : 336992
        },
        {
            "buffer" : 0,
            "byteLength" : 1584,
            "byteOffset" : 338576
        },
        {
            "buffer" : 0,
            "byteLength" : 1056,
            "byteOffset" : 340160
        },
        {
            "buffer" : 0,
            "byteLength" : 768,
            "byteOffset" : 341216
        },
        {
            "buffer" : 0,
            "byteLength" : 5784,
            "byteOffset" : 341984
        },
        {
            "buffer" : 0,
            "byteLength" : 5784,
            "byteOffset" : 347768
        },
        {
            "buffer" : 0,
            "byteLength" : 3856,
            "byteOffset" : 353552
        },
        {
            "buffer" : 0,
            "byteLength" : 1752,
            "byteOffset" : 357408
        },
        {
            "buffer" : 0,
            "byteLength" : 3840,
            "byteOffset" : 359160
        },
        {
            "buffer" : 0,
            "byteLength" : 3840,
            "byteOffset" : 363000
        },
        {
            "buffer" : 0,
            "byteLength" : 2560,
            "byteOffset" : 366840
        },
        {
            "buffer" : 0,
            "byteLength" : 1128,
            "byteOffset" : 369400
        },
        {
            "buffer" : 0,
            "byteLength" : 4992,
            "byteOffset" : 370528
        },
        {
            "buffer" : 0,
            "byteLength" : 4992,
            "byteOffset" : 375520
        },
        {
            "buffer" : 0,
            "byteLength" : 3328,
            "byteOffset" : 380512
        },
        {
            "buffer" : 0,
            "byteLength" : 1332,
            "byteOffset" : 383840
        }
    ],
    "buffers" : [
        {
            "byteLength" : 385172,
            "uri" : "data:application/octet-stream;base64,"
        }
    ]
}
